<svg width="210" height="88" viewBox="0 0 210 88" fill="none" xmlns="http://www.w3.org/2000/svg">
<path d="M70.6469 42.2118V53.8149C70.6469 54.003 70.5723 54.1833 70.4397 54.3163C70.3071 54.4493 70.1272 54.524 69.9396 54.524H66.2866C66.0991 54.524 65.9192 54.4492 65.7866 54.3162C65.654 54.1833 65.5795 54.0029 65.5794 53.8149V34.942C65.5794 34.7539 65.6539 34.5735 65.7865 34.4405C65.9192 34.3075 66.0991 34.2328 66.2866 34.2328H69.667C69.8546 34.2328 70.0345 34.3075 70.1671 34.4405C70.2998 34.5735 70.3743 34.7539 70.3743 34.942V37.5998C70.3743 37.5998 71.5827 33.8085 75.1689 33.8085C75.1689 33.8085 78.7162 33.3785 80.1585 37.3262C80.1585 37.3262 81.3669 33.8085 85.031 33.8085C85.031 33.8085 90.4802 33.4836 90.4802 39.1372L90.5217 42.2509V53.854C90.5217 54.042 90.4472 54.2224 90.3145 54.3554C90.1819 54.4884 90.002 54.5631 89.8144 54.5631H86.1612C85.9736 54.563 85.7938 54.4883 85.6611 54.3553C85.5285 54.2224 85.454 54.042 85.4539 53.854L85.4205 41.1956C85.5244 38.3292 83.2117 38.5378 83.2117 38.5378C80.3013 38.59 80.5813 42.2509 80.5813 42.2509V53.854C80.5813 54.042 80.5068 54.2224 80.3742 54.3554C80.2415 54.4884 80.0616 54.5631 79.8741 54.5631H76.2211C76.0335 54.563 75.8537 54.4883 75.7211 54.3553C75.5884 54.2224 75.5139 54.042 75.5138 53.854V41.482C75.5138 41.482 75.7274 38.5115 73.1285 38.5115C73.1288 38.5115 70.5561 38.1729 70.6469 42.2118ZM164.81 42.1771V53.7799C164.81 53.9679 164.736 54.1482 164.603 54.2812C164.47 54.4142 164.29 54.4889 164.103 54.489L160.304 54.5628C160.116 54.5627 159.936 54.488 159.804 54.355C159.671 54.222 159.596 54.0417 159.596 53.8537V41.482C159.596 41.482 159.81 38.5115 157.211 38.5115C157.211 38.5115 154.729 38.389 154.729 43.0464V53.8146C154.729 54.0026 154.655 54.183 154.522 54.3159C154.39 54.4489 154.21 54.5236 154.022 54.5237H150.369C150.181 54.5236 150.001 54.4489 149.869 54.3159C149.736 54.183 149.662 54.0026 149.662 53.8146V34.942C149.662 34.7539 149.736 34.5736 149.869 34.4406C150.001 34.3076 150.181 34.2329 150.369 34.2328H153.749C153.937 34.2328 154.117 34.3075 154.249 34.4405C154.382 34.5735 154.457 34.7539 154.457 34.942V37.5998C154.457 37.5998 155.665 33.8085 159.251 33.8085C159.251 33.8085 163.093 33.2241 164.387 37.2527C164.387 37.2524 164.81 38.0835 164.81 42.1771ZM138.434 33.7303C133.763 33.7303 129.975 37.6779 129.975 44.3224C129.975 50.1724 132.899 54.9146 138.434 54.9146C143.658 54.9146 146.893 50.1724 146.893 44.3224C146.893 37.7952 143.106 33.7303 138.434 33.7303ZM141.383 44.557C141.383 47.0584 141.071 48.3873 141.071 48.3873C140.627 51.0317 138.713 51.0354 138.431 51.0214C138.126 51.0336 136.195 51.006 135.796 48.3873C135.796 48.3873 135.484 47.0584 135.484 44.557V44.1402C135.484 41.6387 135.796 40.3098 135.796 40.3098C136.195 37.6911 138.126 37.6635 138.431 37.6754C138.713 37.6614 140.627 37.6648 141.071 40.3098C141.071 40.3098 141.383 41.6387 141.383 44.1402V44.557ZM127.855 37.5735V34.8657C127.855 34.6776 127.781 34.4973 127.648 34.3643C127.515 34.2313 127.336 34.1566 127.148 34.1565H115.073C114.886 34.1565 114.706 34.2312 114.573 34.3642C114.441 34.4972 114.366 34.6776 114.366 34.8657V37.5525C114.366 37.7406 114.441 37.9209 114.573 38.0539C114.706 38.1869 114.886 38.2616 115.073 38.2617H121.372L113.917 49.1056C113.917 49.1056 113.623 49.5452 113.633 50.0308V53.3293C113.633 53.3293 113.584 54.4603 114.863 53.8039C114.863 53.8039 117.135 52.4275 120.945 52.4275C120.945 52.4275 124.707 52.3806 127.216 53.9224C127.216 53.9224 128.257 54.3971 128.257 53.3534V50.4823C128.257 50.4823 128.352 49.7225 127.358 49.2481C127.358 49.2481 124.471 47.6585 120.685 47.9192L127.855 37.5735ZM62.76 51.1489L61.6164 49.4035C61.2525 48.7519 61.2787 48.0221 61.2787 48.0221V39.9708C61.4346 33.0136 53.7423 33.613 53.7423 33.613C46.9042 33.613 45.8941 38.949 45.8941 38.949C45.6091 40.0218 46.438 40.0478 46.438 40.0478L49.7794 40.3876C49.7794 40.3876 50.3492 40.5183 50.5565 39.8383C50.5565 39.8383 50.9965 37.5103 53.4573 37.5103C56.1348 37.5103 56.1071 39.8145 56.1071 39.8145V41.7434C50.762 41.9226 48.285 43.4103 48.285 43.4103C44.9848 45.2864 45.1925 49.0127 45.1925 49.0127C45.1925 55.0837 50.9616 54.823 50.9616 54.823C54.6517 54.823 56.8346 52.1133 56.8346 52.1133C57.4842 53.2602 58.6798 54.3539 58.6798 54.3539C59.2779 55.0043 59.9013 54.4584 59.9013 54.4584L62.6041 52.1395C63.2015 51.6961 62.76 51.1489 62.76 51.1489ZM52.7625 51.0739C51.0268 51.0739 50.3816 49.3444 50.6697 47.6447C50.9582 45.945 52.4563 44.6092 56.1074 44.6483V45.6817C56.2368 50.1962 54.2073 51.0739 52.7625 51.0739ZM111.304 51.1489L110.16 49.4035C109.797 48.7519 109.822 48.0221 109.822 48.0221V39.9708C109.978 33.0136 102.286 33.613 102.286 33.613C95.4479 33.613 94.4379 38.949 94.4379 38.949C94.1528 40.0218 94.9817 40.0478 94.9817 40.0478L98.3231 40.3876C98.3231 40.3876 98.8929 40.5183 99.1003 39.8383C99.1003 39.8383 99.5403 37.5103 102.001 37.5103C104.679 37.5103 104.651 39.8145 104.651 39.8145V41.7434C99.3061 41.9226 96.8288 43.4103 96.8288 43.4103C93.5285 45.2864 93.7362 49.0127 93.7362 49.0127C93.7362 55.0837 99.5053 54.823 99.5053 54.823C103.195 54.823 105.378 52.1133 105.378 52.1133C106.028 53.2602 107.223 54.3539 107.223 54.3539C107.821 55.0043 108.445 54.4584 108.445 54.4584L111.147 52.1395C111.745 51.6961 111.304 51.1489 111.304 51.1489ZM101.306 51.0739C99.5705 51.0739 98.9253 49.3444 99.2135 47.6447C99.5019 45.945 101 44.6092 104.651 44.6483V45.6817C104.781 50.1962 102.751 51.0739 101.306 51.0739Z" fill="black"/>
<path d="M120.502 66.3883C120.502 66.3883 120.196 66.9215 120.572 67.0406C120.572 67.0406 120.996 67.2066 121.525 66.7145C121.525 66.7145 125.382 63.3359 125.475 57.1848C125.475 57.1848 125.503 56.4165 125.196 56.2064C125.196 56.2064 123.987 55.1345 119.642 55.4607C119.642 55.4607 115.854 55.7171 113.787 57.5578C113.787 57.5578 113.601 57.7207 113.601 57.9302C113.601 57.9302 113.556 58.3827 114.693 58.1866C114.693 58.1866 118.48 57.6504 120.734 57.9302C120.734 57.9302 121.896 58.07 122.222 58.4665C122.222 58.4665 122.756 58.9093 122.477 60.3767C122.477 60.3773 121.71 64.1051 120.502 66.3883Z" fill="#F3971B"/>
<path d="M119.738 60.4867C119.738 60.4867 120.304 61.2216 119.391 61.8554C119.391 61.8554 109.641 69.6756 93.2687 69.6756C93.2687 69.6756 76.416 70.5092 62.344 57.6892C62.344 57.6892 61.8506 57.2549 62.1568 56.8512C62.1568 56.8512 62.4306 56.4797 63.1395 56.8837C63.1395 56.8837 76.377 65.1545 93.7624 65.1545C93.7624 65.1545 105.846 65.6235 118.242 60.3079C118.242 60.3079 119.23 59.7948 119.738 60.4867Z" fill="#F3971B"/>
</svg>
