<svg width="210" height="88" viewBox="0 0 210 88" fill="none" xmlns="http://www.w3.org/2000/svg">
<path d="M121.654 21.0156C121.802 20.6496 121.5 20.2903 121.5 20.2903C121.5 20.2903 119.122 16.246 110.711 15.3487C106.207 14.8688 100.076 15.7799 95.7788 18.0974C87.9922 22.293 86.8263 29.2046 86.8263 29.2046C86.7824 29.3738 86.7078 29.889 86.8829 30.1088C87.0612 30.3324 87.3207 30.3283 87.6426 30.2197C90.3907 29.2914 98.5814 26.5751 103.75 25.2034C111.106 23.2532 117.149 22.0665 121.027 21.4057C121.303 21.359 121.55 21.2688 121.654 21.0156Z" fill="#FFBB36"/>
<path d="M130.053 53.5896C125.65 63.4773 117.204 70.3584 106.134 70.5153C98.0724 70.6296 90.9585 67.8678 85.8207 63.0507L82.7134 64.3802L82.7185 59.5691C79.333 55.0026 77.3701 49.2263 77.3701 42.6645C77.3701 25.8578 90.2428 12.6096 108.196 12.6096C111.126 12.6096 113.775 13.0656 115.771 13.518C112.695 12.5335 109.638 12 106.235 12C86.9672 12 74.0007 27.6234 74 43.7353C74 61.2932 87.7739 76 105.853 76C123.121 76 132.438 63.8254 135.417 56.5036L130.053 53.5896Z" fill="#0066B3"/>
<path d="M125.584 50.1157C128.117 49.8282 129.87 48.8098 130.833 47.8652C131.71 47.0037 131.914 45.8175 131.915 44.9362C131.951 43.6415 131.915 39.5556 131.915 39.5556L125.21 41.0064C125.21 41.0064 125.21 41.5118 125.208 42.5727C125.22 43.6089 125.719 44.173 126.805 43.9732C127.146 43.9174 127.67 43.7503 127.67 43.7503L127.679 45.0308C127.673 44.9941 127.778 45.7447 126.088 46.0788C123.877 46.426 122.872 45.0653 122.846 42.6608C122.889 40.0839 124.346 38.5978 126.114 38.1908C128.102 37.7348 129.228 38.2086 129.889 38.3095C132.11 38.6421 132.74 35.3123 130.72 34.5313C129.226 33.9297 127.289 33.821 125.442 34.1898C122.975 34.6816 118.125 36.746 118.112 43.4533C118.125 48.7831 122.054 50.52 125.584 50.1157M103.787 55.8281C103.787 55.8281 105.845 55.1224 106.023 55.0599C107.676 54.4894 108.279 53.5061 108.271 51.8044C108.25 49.9566 108.247 46.3535 108.247 46.3535L113.031 51.8656C113.808 52.668 114.782 52.7366 115.674 52.4749C116.596 52.2051 117.363 51.3622 117.386 50.1736C117.394 46.1931 117.384 36.4786 117.384 36.4786C117.384 36.4786 116.148 36.7409 115.122 37.0319C113.941 37.3664 113.033 38.1192 113.033 40.1065C113.033 40.8101 113.03 44.8474 113.03 44.8474C113.03 44.8474 110.338 41.4709 108.578 39.7097C107.636 38.7694 106.079 39.3307 106.079 39.3307L103.783 40.0253L103.787 55.8281ZM102.339 40.3814C102.339 40.3814 100.898 40.8039 99.7258 41.2272C98.2035 41.7776 97.3259 42.6585 97.3259 44.9629C97.3259 47.0795 97.3222 58.0954 97.3222 58.0954C97.3222 58.0954 98.6558 57.6394 99.8991 57.1704C101.667 56.5039 102.334 55.5947 102.334 53.7385C102.334 52.1432 102.339 40.3814 102.339 40.3814ZM95.1894 43.5063C93.8671 42.9056 92.732 43.5755 92.25 44.3159L88.1854 51.229L88.1783 45.6558L83.3867 47.6407L83.3717 63.4011L86.747 61.9862C86.747 61.9862 87.4096 61.7983 87.8094 61.17C88.1769 60.5912 88.1632 59.6204 88.1632 59.6204L88.1674 54.6227L91.9397 58.6257C92.768 59.4859 94.2899 59.9276 95.6328 58.8428C96.8471 57.8622 96.659 56.1904 95.9817 55.4417L92.5452 51.9825C92.5452 51.9825 95.5695 47.2161 96.0639 46.4197C96.7202 45.3619 96.39 44.0517 95.1894 43.5063Z" fill="#EC1D23"/>
<path d="M93.3129 62.0315C93.1346 62.4424 93.5414 62.8501 93.5414 62.8501C95.2854 65.0384 103.029 67.8132 111.434 65.7817C124.27 62.6774 126.982 53.5966 127.289 52.3144C127.352 52.0529 127.402 51.6325 127.16 51.3802C126.956 51.1696 126.667 51.1674 126.266 51.2602C117.35 53.3559 102.515 57.8843 93.9622 61.549C93.5941 61.7068 93.4275 61.7647 93.3129 62.0315Z" fill="#FFBB36"/>
<path d="M85.7003 41.3763C85.6886 40.5077 85.0132 40.0336 83.8463 40.6194L83.8438 43.412C83.8438 43.412 84.2212 43.245 84.498 43.116C85.1803 42.7995 85.7163 42.2302 85.7003 41.3763ZM83.8232 38.8521C84.0049 38.7818 84.1834 38.7035 84.3582 38.6176C84.9905 38.3097 85.4404 37.7387 85.4456 36.9994C85.4521 36.1574 84.7587 35.9398 83.8246 36.4227L83.8232 38.8521ZM88.7634 40.9774C88.8014 43.1813 87.2138 44.354 85.1455 45.2109L80.909 47.0107L80.8992 35.533C80.8992 35.533 83.5684 34.4448 84.4392 34.128C86.9145 33.2273 88.3701 34.3131 88.3701 35.9667C88.3701 37.0701 87.8978 38.008 86.8727 38.8321C87.8822 39.0005 88.7441 39.8297 88.7634 40.9774ZM96.8057 31.2897C96.8057 30.323 96.1408 30.0659 95.3365 30.2974C94.6863 30.4835 93.929 30.7792 93.929 30.7792L93.9237 37.9149C93.9159 38.6256 93.8059 39.5153 92.9303 39.7358C92.2582 39.9052 91.9404 39.4568 91.9397 38.7473L91.9302 32.9068C91.9302 31.9351 91.2542 31.6442 90.4525 31.9102C89.5513 32.2111 89.0098 32.4278 89.0098 32.4278C89.0098 32.4278 89.0203 37.4808 89.0079 39.5015C88.9964 41.8701 90.6296 43.0527 93.1189 42.3174C95.3148 41.6681 96.7812 40.4393 96.8089 37.2847L96.8057 31.2897ZM120.351 34.2387C120.983 34.1022 121.378 33.6549 121.378 32.8819C121.378 32.1855 121.381 31.6559 121.381 31.6559L117.944 32.4068L117.95 30.385C117.95 30.385 119.635 30.028 120.103 29.9259C120.69 29.7971 120.998 29.4767 120.998 28.805C120.998 28.1784 120.994 27.6363 120.994 27.6363L117.949 28.2824L117.949 26.6794C117.949 26.6794 119.532 26.349 120.385 26.1697C121.049 26.03 121.268 25.5749 121.268 24.9485C121.268 24.5407 121.275 23.7334 121.275 23.7334C119.756 24.0015 116.869 24.5784 115.068 24.9908L115.044 35.4538C115.044 35.4538 118.468 34.6474 120.351 34.2387ZM100.493 33.8161C100.495 33.8141 102.193 32.9372 102.174 31.5461C102.157 30.3566 101.062 30.6169 100.493 30.8255L100.493 33.8161ZM100.497 35.4301C100.497 35.4301 100.491 37.4339 100.489 38.2425C100.482 39.0005 99.9641 39.5479 99.3088 39.7982C98.7611 39.9862 97.5969 40.3868 97.5969 40.3868L97.6015 29.6125C97.6015 29.6125 100.005 28.7751 101.419 28.4466C103.616 27.9357 105.178 28.9352 105.15 30.7096C105.136 32.399 104.193 33.4241 103.347 34.1259L105.207 35.912C105.779 36.4659 105.819 37.4671 105.176 38.0722C104.795 38.4304 103.775 38.8016 102.977 37.9891L100.497 35.4301ZM124.819 28.0212C124.823 28.0212 126.496 27.3838 126.477 26.0419C126.46 24.9071 125.342 25.1125 124.815 25.2303L124.819 28.0211M122.011 33.925L122.015 23.5939C122.015 23.5939 125.032 23.0606 125.811 22.9604C127.973 22.6827 129.424 23.8829 129.395 25.5878C129.383 27.0872 128.441 27.9895 127.641 28.5308C127.641 28.5308 129.112 30.1881 129.506 30.6265C130.035 31.2175 130.012 32.2278 129.228 32.7226C128.458 33.2082 127.696 32.9542 127.253 32.4652L124.824 29.6173C124.824 29.6173 124.832 31.3689 124.83 32.1336C124.823 32.8949 124.383 33.4499 123.593 33.6132L122.011 33.925Z" fill="#EC1D23"/>
<path d="M114.367 29.5895L110.088 30.5612C110.088 30.5612 110.083 31.0133 110.082 31.7514C110.088 32.3048 110.476 32.6641 111.035 32.5491C111.387 32.476 111.669 32.4107 111.669 32.4107L111.675 33.5991C111.68 34.0692 110.974 34.3771 110.242 34.3602C109.215 34.3335 108.646 33.5358 108.631 32.0178C108.663 30.0219 109.602 28.8502 110.881 28.523C111.52 28.3585 112.101 28.4386 112.552 28.4972C113.655 28.6753 114.289 28.1437 114.312 27.2326C114.335 26.2567 113.469 25.6532 111.611 25.7176C107.583 25.8567 105.523 28.7512 105.523 32.2057C105.523 35.7435 107.834 37.3062 110.655 36.7963C112.249 36.4748 113.042 35.9571 113.592 35.4753C114.141 34.9935 114.367 34.2727 114.367 33.6573V29.5895Z" fill="#EC1D23"/>
<path d="M97.5085 18.0184C92.7895 20.1015 89.6034 25.0602 89.4283 27.1591C89.3593 27.9935 90.4655 28.1133 90.5696 27.2272C91.5655 23.3985 94.6131 19.7887 97.5085 18.0184ZM113.146 21.5761C115.692 20.9518 117.089 20.8576 117.114 19.7206C117.159 17.8166 111.727 15.6089 106.753 16.0088C111.821 16.3475 114.861 18.2984 114.877 19.6581C114.887 20.5181 114.142 21.277 113.146 21.5761ZM114.723 63.6591C118.543 62.1569 122.213 59.2875 124.243 54.9896C124.829 53.7475 123.135 53.113 122.656 54.5715C121.468 57.6272 119.026 61.2151 114.723 63.6591Z" fill="white"/>
</svg>
