<svg width="24" height="24" viewBox="0 0 24 24" fill="none" xmlns="http://www.w3.org/2000/svg">
<path d="M1.23333 20C0.877778 20 0.577778 19.8889 0.333333 19.6667C0.111111 19.4222 0 19.1222 0 18.7667C0 18.4333 0.111111 18.1556 0.333333 17.9333C0.577778 17.6889 0.877778 17.5667 1.23333 17.5667H22.7667C23.1222 17.5667 23.4111 17.6889 23.6333 17.9333C23.8778 18.1556 24 18.4333 24 18.7667C24 19.1222 23.8778 19.4222 23.6333 19.6667C23.4111 19.8889 23.1222 20 22.7667 20H1.23333ZM1.23333 13.2333C0.877778 13.2333 0.577778 13.1222 0.333333 12.9C0.111111 12.6556 0 12.3556 0 12C0 11.6444 0.111111 11.3556 0.333333 11.1333C0.577778 10.8889 0.877778 10.7667 1.23333 10.7667H22.7667C23.1222 10.7667 23.4111 10.8889 23.6333 11.1333C23.8778 11.3556 24 11.6444 24 12C24 12.3556 23.8778 12.6556 23.6333 12.9C23.4111 13.1222 23.1222 13.2333 22.7667 13.2333H1.23333ZM1.23333 6.43333C0.877778 6.43333 0.577778 6.32222 0.333333 6.1C0.111111 5.85555 0 5.56667 0 5.23333C0 4.87778 0.111111 4.58889 0.333333 4.36666C0.577778 4.12222 0.877778 4 1.23333 4H22.7667C23.1222 4 23.4111 4.12222 23.6333 4.36666C23.8778 4.58889 24 4.87778 24 5.23333C24 5.56667 23.8778 5.85555 23.6333 6.1C23.4111 6.32222 23.1222 6.43333 22.7667 6.43333H1.23333Z" fill="#474747" fill-opacity="0.8"/>
</svg>
