<svg width="7" height="6" viewBox="0 0 7 6" fill="none" xmlns="http://www.w3.org/2000/svg">
<path d="M2.29001 3.57803L5.65359 0.214441C5.79672 0.07131 5.95894 -0.000255668 6.14024 -0.000255668C6.33108 -0.000255668 6.49807 0.07131 6.6412 0.214441C6.79387 0.367114 6.87021 0.538872 6.87021 0.729714C6.87021 0.911013 6.79387 1.07323 6.6412 1.21636L2.79097 5.0809C2.64784 5.22403 2.47608 5.2956 2.2757 5.2956C2.08485 5.2956 1.91787 5.22403 1.77474 5.0809L0.214606 3.52077C0.0714745 3.37764 -9.10759e-05 3.21543 -9.10759e-05 3.03413C-9.10759e-05 2.84329 0.0762456 2.67153 0.228919 2.51885C0.37205 2.37572 0.534266 2.30416 0.715565 2.30416C0.906407 2.30416 1.07816 2.37572 1.23084 2.51885L2.29001 3.57803Z" fill="black" fill-opacity="0.87"/>
</svg>
