<svg width="210" height="88" viewBox="0 0 210 88" fill="none" xmlns="http://www.w3.org/2000/svg">
<path d="M43.1221 39.1035V43.4823H46.9982C48.0109 43.4823 48.8839 42.6416 48.8839 41.5907V33.3585C48.8839 32.3075 48.0458 31.4668 46.9982 31.4668H38.7571C37.7445 31.4668 36.8715 32.3075 36.8715 33.3585V37.2469H41.2365C42.284 37.2118 43.1221 38.0526 43.1221 39.1035ZM29.1193 39.1035V43.4823H25.2781C24.2654 43.4823 23.3924 42.6416 23.3924 41.5907V33.3585C23.3924 32.3075 24.2305 31.4668 25.2781 31.4668H33.5192C34.5318 31.4668 35.4048 32.3075 35.4048 33.3585V37.2469H31.0049C29.9573 37.2118 29.1193 38.0526 29.1193 39.1035Z" fill="#007BC2"/>
<path d="M29.1193 49.4028V45.0239H25.2781C24.2654 45.0239 23.3924 45.8646 23.3924 46.9155V55.1828C23.3924 56.2337 24.2305 57.0745 25.2781 57.0745H33.5192C34.5318 57.0745 35.4048 56.2337 35.4048 55.1828V51.2944H31.0049C29.9573 51.2944 29.1193 50.4537 29.1193 49.4028ZM43.1221 49.4028V45.0239H46.9982C48.0109 45.0239 48.8839 45.8646 48.8839 46.9155V55.1828C48.8839 56.2337 48.0458 57.0745 46.9982 57.0745H38.7571C37.7445 57.0745 36.8715 56.2337 36.8715 55.1828V51.2944H41.2365C42.284 51.2944 43.1221 50.4537 43.1221 49.4028Z" fill="#1D8553"/>
<path d="M93.3017 50.7683H93.3368L93.3017 50.6982V50.7683Z" fill="#555555"/>
<path d="M65.645 46.8455C65.226 49.718 63.2705 51.4695 60.3721 51.4695C56.3914 51.4695 54.6105 47.7563 54.6105 44.2182C54.6105 40.6801 56.3914 36.9668 60.3721 36.9668C63.2356 36.9668 65.1911 38.6132 65.645 41.5909L62.9911 41.9412C62.7118 40.4699 62.0832 39.1737 60.3721 39.1737C57.9628 39.1737 57.4739 42.3965 57.4739 44.1831C57.4739 45.9697 57.9628 49.1925 60.3721 49.1925C62.0483 49.1925 62.7118 47.8614 62.9911 46.4251L65.645 46.8455Z" fill="#555555"/>
<path d="M69.9058 37.2119H67.2519V51.2592H69.9058V37.2119Z" fill="#555555"/>
<path d="M77.7627 45.1636C77.7627 44.0427 77.3088 42.9217 76.0516 42.9217C74.8294 42.9217 74.3755 44.1127 74.3056 45.1636H77.7627ZM74.2009 46.8451C74.0961 48.0712 74.8294 49.5075 76.1913 49.5075C77.0294 49.5075 77.5881 48.947 77.8675 48.0362L80.3468 48.3164C79.7881 50.3132 77.8326 51.4692 75.9469 51.4692C73.0136 51.4692 71.5121 48.8769 71.5121 46.2146C71.5121 43.5522 72.9787 40.96 75.9469 40.96C78.496 40.96 80.4166 42.186 80.3468 46.8802L74.2009 46.8451Z" fill="#555555"/>
<path d="M96.6893 45.1636C96.6893 44.0427 96.2354 42.9217 94.9782 42.9217C93.756 42.9217 93.3021 44.1127 93.2322 45.1636H96.6893ZM93.1275 46.8451C93.0227 48.0712 93.756 49.5075 95.1179 49.5075C95.956 49.5075 96.5147 48.947 96.7941 48.0362L99.2734 48.3164C98.7147 50.3132 96.7592 51.4692 94.8735 51.4692C91.9402 51.4692 90.4387 48.8769 90.4387 46.2146C90.4387 43.5522 91.9053 40.96 94.8735 40.96C97.4226 40.96 99.3432 42.186 99.2734 46.8802L93.1275 46.8451Z" fill="#555555"/>
<path d="M86.9466 51.2593H84.1531L81.0103 41.1704H83.8039L85.5848 48.632H85.6197L87.3308 41.1704H89.9847L86.9466 51.2593Z" fill="#555555"/>
<path d="M103.743 37.2119H101.089V51.2592H103.743V37.2119Z" fill="#555555"/>
<path d="M111.216 46.6349C110.133 46.8451 107.933 46.9502 107.933 48.4215C107.933 49.017 108.213 49.5075 108.841 49.5075C109.924 49.5075 110.692 48.8419 111.216 48.1763V46.6349ZM111.355 50.3482C110.378 51.0488 109.749 51.5042 108.492 51.5042C106.746 51.5042 105.314 50.3132 105.314 48.5266C105.314 45.6891 109.051 45.0936 111.181 44.8484C111.355 43.4471 110.902 42.9217 109.889 42.9217C109.051 42.9217 108.422 43.307 108.283 44.1828L105.733 43.7974C106.327 41.6606 107.759 40.96 109.889 40.96C112.613 40.96 113.835 42.2561 113.835 44.1478V49.1572C113.835 49.8928 113.87 50.5934 114.184 51.259H111.635C111.46 50.8036 111.355 50.3482 111.355 50.3482Z" fill="#555555"/>
<path d="M118.688 42.2211C119.526 41.5205 120.574 40.96 121.691 40.96C122.809 40.96 124.345 41.6255 124.345 44.1127V51.259H121.691V45.1987C121.691 44.393 121.761 43.0968 120.609 43.0968C119.841 43.0968 119.212 43.6573 118.723 44.1828V51.259H116.069V41.1701H118.723L118.688 42.2211Z" fill="#555555"/>
<path d="M151.793 46.8455C151.374 49.718 149.418 51.4695 146.52 51.4695C142.539 51.4695 140.758 47.7563 140.758 44.2182C140.758 40.6801 142.539 36.9668 146.52 36.9668C149.383 36.9668 151.339 38.6132 151.793 41.5909L149.139 41.9412C148.86 40.4699 148.231 39.1737 146.52 39.1737C144.11 39.1737 143.622 42.3965 143.622 44.1831C143.622 45.9697 144.11 49.1925 146.52 49.1925C148.196 49.1925 148.86 47.8614 149.139 46.4251L151.793 46.8455Z" fill="#555555"/>
<path d="M156.088 37.2119H153.434V51.2592H156.088V37.2119Z" fill="#555555"/>
<path d="M160.976 51.2592H158.322V41.1704H160.976V51.2592ZM160.976 39.6641H158.322V37.2119H160.976V39.6641Z" fill="#555555"/>
<path d="M165.795 42.2211C166.634 41.5205 167.681 40.96 168.799 40.96C169.916 40.96 171.453 41.6255 171.453 44.1127V51.259H168.799V45.1987C168.799 44.393 168.868 43.0968 167.716 43.0968C166.948 43.0968 166.319 43.6573 165.83 44.1828V51.259H163.176V41.1701H165.83V42.2211H165.795Z" fill="#555555"/>
<path d="M176.307 51.2592H173.653V41.1704H176.307V51.2592ZM176.307 39.6641H173.653V37.2119H176.307V39.6641Z" fill="#555555"/>
<path d="M186.608 48.0011C186.189 50.103 184.652 51.4692 182.417 51.4692C179.484 51.4692 177.982 48.8769 177.982 46.2146C177.982 43.5522 179.449 40.96 182.417 40.96C184.652 40.96 186.189 42.3262 186.608 44.428L184.198 44.7433C184.024 43.9376 183.744 42.8867 182.417 42.8867C180.985 42.8867 180.741 44.9184 180.741 46.1795C180.741 47.4406 180.985 49.4724 182.417 49.4724C183.779 49.4724 183.954 48.5616 184.198 47.6508L186.608 48.0011Z" fill="#555555"/>
<path d="M132.342 48.0714C131.923 48.702 131.399 49.2275 130.631 49.2275C129.025 49.2275 128.815 47.2657 128.815 46.0747C128.815 44.9537 129.13 43.062 130.596 43.062C131.364 43.062 131.923 43.5875 132.377 44.148L132.342 48.0714ZM135.031 49.4727V37.2119H132.377V42.1512C131.609 41.4857 130.98 40.9252 129.898 40.9252C128.431 40.9252 126.196 42.2213 126.196 45.9346C126.196 50.2083 128.082 51.4694 130.107 51.4694C131.225 51.4694 131.818 51.0841 132.622 50.3484C132.622 50.3484 132.691 50.8389 132.936 51.2242H135.38C135.101 50.6987 135.031 50.0682 135.031 49.4727Z" fill="#555555"/>
</svg>
