<svg width="210" height="88" viewBox="0 0 210 88" fill="none" xmlns="http://www.w3.org/2000/svg">
<path d="M161.948 34.572C159.933 32.1216 156.376 30.7158 152.192 30.7158C147.765 30.7158 143.78 32.2254 141.02 34.6745L141.47 31.8464L140.274 31.4902C138.579 30.984 136.7 30.7158 134.835 30.7158C131.63 30.7158 128.565 31.7091 126.089 33.3459L126.802 30.9922H107.638L107.411 31.7439C105.709 31.058 103.835 30.7158 101.724 30.7158C97.7798 30.7158 93.509 32.2513 91.2925 35.2066C91.1473 34.9903 90.9952 34.777 90.8254 34.572C88.8096 32.1216 85.2533 30.7158 81.0689 30.7158C76.7729 30.7158 72.889 32.1355 70.1417 34.4588L71.2108 27.9389L69.9946 27.5864C67.9189 26.9848 65.6128 26.6665 63.3237 26.6665C54.9253 26.6665 47.2825 32.0178 45.9237 38.8484C45.3443 41.7544 46.0202 44.5693 47.8246 46.7755C49.3633 48.6552 51.6347 49.9953 54.3327 50.6798H46.012V61.3477H88.3931L88.4587 61.218L88.4669 61.3477H93.5683L94.26 60.2177L94.0467 61.3477H105.58L105.75 60.4569C106.763 61.1149 108.078 61.4717 109.594 61.4717C110.949 61.4717 112.205 61.1908 113.288 60.6903L113.165 61.3477H129.336L129.363 61.2028C130.113 61.3724 130.9 61.4724 131.653 61.4724C132.11 61.4724 132.58 61.4319 133.049 61.349H139.215L139.672 60.3753H140.083L140.208 61.349H159.224L160.17 56.3564H159.822L159.953 55.6705H160.201L161.148 50.6792H160.622C161.052 50.2901 161.363 49.7903 161.472 49.2208C161.535 48.8905 161.525 48.5502 161.442 48.2242C161.359 47.8983 161.205 47.5948 160.992 47.3354C160.879 47.2012 160.751 47.0801 160.611 46.9741C162.12 45.4209 163.165 43.5411 163.572 41.4279C164.067 38.837 163.507 36.4657 161.948 34.572ZM150.947 55.9844H150.363L151.244 51.3429C151.445 51.317 151.645 51.2879 151.843 51.2562L150.947 55.9844ZM137.337 40.8857C137.277 41.1957 137.235 41.5026 137.204 41.8038C135.921 42.6642 134.719 43.071 133.432 43.071C132.562 43.071 131.809 42.7863 131.417 42.3093C131.193 42.0385 131.118 41.7354 131.188 41.383C131.417 40.1942 133.025 39.1515 134.629 39.1515C135.633 39.1515 136.575 39.5071 137.5 40.2353C137.443 40.4504 137.379 40.6649 137.337 40.8857ZM138.636 50.6798L138.01 51.7143L137.49 51.422C137.142 51.2318 136.777 51.0742 136.399 50.9513C136.677 50.8855 136.936 50.8102 137.162 50.7279L137.893 50.4616L138.61 47.3082C138.707 47.4436 138.799 47.5822 138.907 47.7125C139.99 49.0279 141.551 50.0339 143.434 50.6792L138.636 50.6798ZM144.987 51.1164L144.738 52.4292L144.391 50.9709C144.588 51.0221 144.784 51.0721 144.987 51.1164ZM151.089 39.2894C151.87 39.2894 152.471 39.4976 152.784 39.8753C153.07 40.2233 153.06 40.6668 152.998 40.9787C152.749 42.265 151.433 43.1634 149.791 43.1634C148.992 43.1634 148.361 42.9521 148.059 42.5839C147.85 42.3289 147.787 41.9708 147.874 41.5197C148.086 40.4118 149.259 39.2894 151.089 39.2894ZM114.999 51.6384C114.769 51.4841 114.527 51.3474 114.275 51.2296H115.078L114.999 51.6384ZM110.587 55.9831C110.484 56.0755 110.315 56.1375 110.12 56.1488C110.22 56.0628 110.376 55.9919 110.587 55.9831ZM109.333 39.4096L108.381 42.5503C108.327 41.7348 108.059 40.9483 107.603 40.2707C107.409 39.9918 107.188 39.7334 106.942 39.4995L109.333 39.4096ZM81.8736 40.9781C81.6256 42.265 80.3072 43.1634 78.6663 43.1634C77.8685 43.1634 77.2368 42.9521 76.9344 42.5839C76.7236 42.3289 76.6618 41.9708 76.7495 41.5197C76.9628 40.4106 78.1361 39.2894 79.9657 39.2894C80.7471 39.2894 81.3485 39.4976 81.6609 39.8753C81.9449 40.2233 81.9336 40.6674 81.8736 40.9781ZM92.8722 51.1904L92.8412 51.2562L92.8349 51.1847C92.8475 51.186 92.8595 51.1885 92.8722 51.1904ZM107.033 47.0089L105.921 50.6798H101.652C103.835 49.9579 105.791 48.7476 107.033 47.0089ZM107.495 51.2296H107.733C107.645 51.267 107.56 51.3043 107.474 51.3448L107.495 51.2296ZM61.5755 41.6007C60.3574 41.6007 59.3022 41.1995 58.7525 40.5289C58.4344 40.1404 58.3277 39.7102 58.4256 39.2141C58.7436 37.6166 60.8686 36.267 63.0662 36.267C64.55 36.267 65.9226 36.8251 67.265 37.9645C66.91 38.6276 66.6278 39.3272 66.4231 40.0512C64.7841 41.1015 63.2353 41.6007 61.5755 41.6007ZM86.6821 49.1645L88.0681 49.7903C88.8343 50.1357 89.6856 50.4312 90.5774 50.6805H87.9974L87.7209 51.2353L87.685 50.6805H83.2255C84.433 50.3129 85.5932 49.8041 86.6821 49.1645ZM120.476 55.9844L121.482 50.6798H116.6L120.02 39.3767L121.063 39.4166C120.867 39.9311 120.713 40.461 120.603 41.0009C120.116 43.5228 120.708 45.958 122.271 47.8555C123.3 49.1063 124.714 50.0566 126.368 50.6792H122.065L121.059 55.9837L120.476 55.9844ZM66.0943 50.2831L66.8289 50.0237L67.4714 47.2867C67.5749 47.4309 67.6709 47.5758 67.7845 47.7131C68.8668 49.0285 70.427 50.0345 72.3096 50.6798H64.5228C65.1117 50.5691 65.6525 50.4381 66.0943 50.2831ZM154.35 50.6798C154.972 50.4881 155.582 50.2613 156.177 50.0003C156.264 50.2066 156.367 50.4059 156.511 50.5811C156.543 50.6178 156.583 50.6463 156.615 50.6798H154.35Z" fill="white"/>
<path d="M86.3474 52.1089L86.6421 56.7712H86.716C86.8687 56.2948 87.0378 55.7975 87.2745 55.3312L88.8782 52.1089H91.4828L91.876 56.7712H91.9511C92.0868 56.3144 92.2395 55.8374 92.4478 55.3926L94.0123 52.1089H97.5473L92.7671 59.9208H89.8034L89.5421 55.6729H89.4304C89.3168 56.0778 89.2171 56.4707 89.0322 56.8541L87.5086 59.9208H84.6181L82.8245 52.1089H86.3474Z" fill="#005DAA"/>
<path d="M97.3001 52.1089H100.574L100.076 54.7403H102.16L102.658 52.1089H105.933L104.452 59.9208H101.178L101.691 57.2065H99.6069L99.0932 59.9208H95.8189L97.3001 52.1089Z" fill="#005DAA"/>
<path d="M115.522 56.035C115.047 58.5424 112.442 60.0444 109.591 60.0444C106.738 60.0444 104.702 58.5418 105.178 56.035C105.644 53.5795 108.278 51.9839 111.118 51.9839C113.958 51.9839 115.987 53.5795 115.522 56.035ZM108.594 56.0762C108.424 56.967 109.028 57.5788 110.058 57.5788C111.088 57.5788 111.922 56.967 112.092 56.0762C112.249 55.2467 111.711 54.5539 110.632 54.5539C109.551 54.5539 108.75 55.2473 108.594 56.0762ZM116.267 52.1085H119.666L118.66 57.413H121.513L121.037 59.9198H114.786L116.267 52.1085ZM129.553 57.1226L129.704 57.2378C130.237 57.6307 130.908 57.9527 131.69 57.9527C132.025 57.9527 132.58 57.8376 132.647 57.4864C132.714 57.1353 132.273 57.1037 131.974 57.0511L131.311 56.9474C130.02 56.75 129.029 56.097 129.259 54.8759C129.612 53.0215 131.829 51.9851 133.863 51.9851C134.93 51.9851 135.87 52.2041 136.698 52.6691L135.401 54.669C134.881 54.3381 134.273 54.0781 133.541 54.0781C133.244 54.0781 132.791 54.1705 132.732 54.4912C132.676 54.781 133.09 54.8228 133.341 54.8747L134.083 55.0196C135.47 55.2904 136.39 55.9313 136.141 57.2574C135.786 59.1226 133.577 60.0444 131.555 60.0444C130.378 60.0444 129.064 59.7749 128.094 59.3295L129.553 57.1226Z" fill="#005DAA"/>
<path d="M141.229 57.092L141.093 55.714C141.056 55.3825 141.059 55.0408 141.061 54.7086H140.936L139.865 57.092H141.229ZM138.27 59.9208H134.673L139.404 52.1089H143.162L145.017 59.9208H141.421L141.296 58.9471H138.729L138.27 59.9208Z" fill="#005DAA"/>
<path d="M146.215 52.1089H149.613L148.607 57.4134H151.461L150.985 59.9202H144.734L146.215 52.1089ZM153.096 52.1089H159.386L158.981 54.2436H156.115L155.973 54.9896H158.59L158.205 57.0205H155.589L155.444 57.7867H158.409L158.003 59.9208H151.616L153.096 52.1089Z" fill="#005DAA"/>
<path d="M106.986 38.069L111.277 37.9076L107.677 49.8023H115.376L118.975 37.9076L123.17 38.069L124.878 32.4215H108.694L106.986 38.069ZM91.045 41.1571C89.9683 46.7337 84.0698 50.0775 77.6071 50.0775C71.1457 50.0775 66.536 46.735 67.6127 41.1571C68.6667 35.6932 74.6339 32.145 81.0682 32.145C87.5018 32.145 92.0996 35.6945 91.045 41.1571ZM75.349 41.2495C74.9671 43.2318 76.3348 44.592 78.6661 44.592C80.9975 44.592 82.8896 43.2324 83.2727 41.2495C83.628 39.4058 82.4087 37.8621 79.9644 37.8621C77.5194 37.8608 75.7049 39.4058 75.349 41.2495Z" fill="#E31837"/>
<path d="M88.6524 48.487C90.8493 49.4765 93.8244 50.0776 96.494 50.0776C101.073 50.0776 106.077 48.0264 106.878 43.8772C107.447 40.9269 105.363 39.4977 102.219 38.8985L100.54 38.5758C99.9715 38.4594 99.0337 38.3683 99.158 37.7217C99.2962 37.0074 100.32 36.7992 100.995 36.7992C102.651 36.7992 104.03 37.3756 105.208 38.1133L108.145 33.6648C106.265 32.6279 104.139 32.1451 101.723 32.1451C97.1151 32.1451 92.0901 34.45 91.2949 38.5758C90.7698 41.2958 93.0178 42.7478 95.9393 43.1856L97.4407 43.4153C98.1211 43.5324 99.1195 43.6001 98.968 44.3833C98.8166 45.1666 97.56 45.4203 96.8001 45.4203C95.0292 45.4203 93.5101 44.706 92.3028 43.8303L91.9588 43.5767L88.6524 48.487ZM139.865 32.8594C138.325 32.3982 136.575 32.1451 134.832 32.1451C128.623 32.1451 122.98 36.2019 122.001 41.273C121.043 46.2289 125.022 50.0782 131.062 50.0782C132.439 50.0782 135.344 49.8707 136.676 49.3867L138.155 42.887C136.726 43.8778 135.203 44.5004 133.432 44.5004C131.129 44.5004 129.418 43.0249 129.788 41.1129C130.153 39.2224 132.326 37.7248 134.629 37.7248C136.371 37.7248 137.76 38.5315 138.815 39.478L139.865 32.8594ZM152.192 32.1451C145.759 32.1451 139.792 35.6933 138.736 41.1566C137.66 46.7338 142.27 50.0776 148.733 50.0776C155.193 50.0776 161.094 46.7351 162.169 41.1566C163.222 35.6945 158.625 32.1451 152.192 32.1451ZM151.089 37.8609C153.533 37.8609 154.754 39.404 154.396 41.2483C154.014 43.2306 152.121 44.5909 149.789 44.5909C147.457 44.5909 146.09 43.2312 146.473 41.2483C146.829 39.4059 148.644 37.8609 151.089 37.8609ZM69.5969 28.9589C67.6751 28.4015 65.4946 28.0952 63.3217 28.0952C55.5772 28.0952 48.5383 32.9986 47.3183 39.1282C46.1261 45.1185 51.0867 49.7701 58.6204 49.7701C60.3377 49.7701 63.9629 49.5195 65.6208 48.9356L67.465 41.0775C65.6852 42.2765 63.783 43.0287 61.5754 43.0287C58.7019 43.0287 56.5687 41.2452 57.0294 38.9314C57.4844 36.6474 60.1932 34.8353 63.0654 34.8353C65.2371 34.8353 66.9708 35.8109 68.2854 36.953L69.5969 28.9589Z" fill="#E31837"/>
<path d="M157.432 48.9572C157.547 48.3498 158.222 47.8613 158.956 47.8613C159.685 47.8613 160.179 48.3504 160.065 48.9572C159.947 49.5677 159.269 50.0562 158.54 50.0562C157.806 50.0562 157.317 49.5658 157.432 48.9572ZM159.721 48.9572C159.813 48.4687 159.464 48.1479 158.901 48.1479C158.329 48.1479 157.866 48.4687 157.776 48.9572C157.683 49.4456 158.022 49.7696 158.595 49.7696C159.158 49.7696 159.629 49.4462 159.721 48.9572ZM159.252 49.5304H158.912L158.698 49.0438H158.475L158.383 49.5304H158.094L158.312 48.382H158.979C159.274 48.382 159.433 48.4637 159.382 48.7338C159.344 48.9306 159.19 49.0318 159.013 49.0457L159.252 49.5304ZM158.831 48.8243C158.975 48.8243 159.1 48.8243 159.124 48.7022C159.143 48.601 159.018 48.601 158.873 48.601H158.56L158.519 48.8243H158.831Z" fill="#E31837"/>
<path d="M47.8566 59.9334H83.8892L83.8867 59.9208H83.8564L83.402 57.9341H47.8566V59.9334ZM47.8566 57.0939H83.2082L82.7481 55.0952H47.8566V57.0939ZM47.8566 54.2423H82.5411L82.3858 53.5141L82.0665 52.1241H47.8566V54.2423ZM123.15 52.1089H129.438L129.033 54.2436H126.169L126.027 54.9896H128.643L128.26 57.0205H125.643L125.498 57.7867H128.462L128.058 59.9208H121.669L123.15 52.1089Z" fill="#005DAA"/>
</svg>
