<svg width="210" height="88" viewBox="0 0 210 88" fill="none" xmlns="http://www.w3.org/2000/svg">
<path d="M54.3449 18.1333H56.2568C61.7424 18.3549 66.9439 19.8806 71.9897 21.9587C74.2703 22.8985 76.4368 24.0472 78.5617 25.297C80.2262 26.2762 81.6574 27.3581 83.2536 28.5809C84.0926 29.2239 84.8814 29.9387 85.6533 30.6579C87.5559 32.431 89.3346 34.5069 90.6472 36.7578C90.9187 37.2236 91.1656 37.7744 91.418 38.2874C91.6471 38.7533 91.802 39.0839 91.8829 39.2792C92.4286 40.597 92.7449 42.0738 92.6897 43.5062C92.6569 44.3472 92.5777 45.1981 92.3663 46.0112C91.8299 48.0723 90.5904 49.9776 89.121 51.5444C87.8094 52.9433 86.0018 53.9621 84.2423 54.6851C79.4456 56.6568 74.1594 57.1089 69.0792 56.112C68.4397 55.9866 67.8013 55.8535 67.164 55.7127C67.1618 55.7121 67.1595 55.712 67.1573 55.7125C67.155 55.7129 67.1529 55.7138 67.1511 55.7152C67.1492 55.7166 67.1477 55.7183 67.1467 55.7204C67.1456 55.7224 67.145 55.7246 67.1449 55.7269C67.1034 56.5026 67.1187 57.7332 66.2185 58.0525C65.6143 58.2664 64.8031 58.3108 64.2191 58.0766C63.4473 57.7677 63.0529 57.0172 62.9179 56.2201C62.7916 55.4744 62.6976 54.7266 62.6361 53.9769C62.6349 53.9631 62.6301 53.9498 62.6221 53.9386C62.6142 53.9273 62.6033 53.9183 62.5907 53.9127C60.4614 52.9477 58.3332 51.7254 56.5114 50.2535C54.7519 48.8321 52.9263 47.2834 51.8442 45.248C50.7194 43.1326 52.0419 41.5247 53.7796 40.4867C55.7259 39.3237 57.8831 38.656 60.0359 38.0866C60.9006 37.8583 61.7987 37.7634 62.6732 37.584C62.6998 37.5787 62.7238 37.5647 62.7417 37.5443C62.7595 37.5239 62.7702 37.4982 62.7721 37.471C62.8278 36.6355 62.7972 35.7616 62.8677 34.9639C62.9589 33.9271 63.0862 32.8962 63.2086 31.8627C63.3083 31.0204 63.48 30.1927 63.7237 29.3797C63.9214 28.7214 64.3202 28.4092 64.9326 28.9156C65.7235 29.5695 66.1212 30.6168 66.3687 31.6026C66.827 33.4289 66.9018 35.3907 66.9362 37.1139C66.9363 37.1174 66.9371 37.1209 66.9385 37.1241C66.94 37.1273 66.942 37.1302 66.9446 37.1326C66.9472 37.135 66.9503 37.1368 66.9536 37.1381C66.957 37.1393 66.9605 37.1398 66.9641 37.1397C68.1484 37.1073 69.3862 37.0568 70.5656 37.1677C72.3916 37.3392 74.1898 37.6636 75.9605 38.1409C77.7598 38.6258 79.4396 39.3034 80.6288 40.7517C81.3744 41.6591 81.7907 42.9615 81.3318 44.0993C80.8637 45.259 79.8804 46.1966 78.6552 46.4901C77.939 46.6618 77.0535 46.4934 76.3652 46.2547C75.9605 46.1137 75.7769 45.7292 76.2243 45.4757C76.8367 45.1279 77.4315 44.8832 77.8849 44.3143C78.5858 43.4338 77.1917 42.922 76.6291 42.7371C75.5622 42.3865 74.4883 42.1408 73.3903 41.9142C71.3003 41.4837 69.1772 41.2421 67.0209 41.1895C67.0146 41.1893 67.0084 41.1906 67.0026 41.1932C66.9967 41.1958 66.9914 41.1998 66.987 41.2048C66.9826 41.2098 66.9791 41.2158 66.9767 41.2224C66.9744 41.229 66.9732 41.2361 66.9734 41.2432L67.211 52.2839C67.2112 52.2928 67.2142 52.3013 67.2194 52.308C67.2247 52.3148 67.2319 52.3194 67.24 52.3212C70.4787 52.9998 73.8634 53.013 77.1322 52.5598C79.4095 52.2438 81.5454 51.6058 83.5464 50.4702C84.3228 50.0295 85.0202 49.5171 85.6386 48.933C87.4418 47.2301 88.277 44.7263 87.9542 42.268C87.8351 41.3601 87.5133 40.3929 87.1364 39.5656C85.4676 35.8998 82.692 32.961 79.4052 30.5416C74.4429 26.889 68.717 24.3358 62.7776 22.8288C59.7119 22.0509 56.58 21.6078 53.3819 21.4995C51.5654 21.4385 49.8368 21.5186 48.1962 21.7398C47.6063 21.8194 46.9999 22.0075 46.3548 22.1798C46.1847 22.2252 46.0268 22.3021 45.8812 22.4108C45.8786 22.4126 45.8766 22.4151 45.8752 22.4179C45.8737 22.4207 45.873 22.4238 45.873 22.4269C45.873 22.43 45.8737 22.4331 45.8752 22.4358C45.8766 22.4385 45.8786 22.4409 45.8812 22.4426C45.9842 22.5121 46.0776 22.5527 46.1614 22.5644C46.495 22.6108 46.8288 22.6571 47.1627 22.7032C47.5768 22.7597 48.0684 22.9281 48.2121 23.3692C48.3137 23.6824 48.1492 23.8975 47.8734 24.0248C47.7762 24.0694 47.6751 24.1019 47.5702 24.1224C46.9016 24.2513 46.1215 24.2146 45.4387 24.0604C44.8449 23.926 44.2539 23.7784 44.1266 23.0812V22.656C44.2905 21.9165 44.6663 21.2055 45.1459 20.6377C45.6747 20.0095 46.3914 19.6003 47.1583 19.326C47.725 19.1237 48.507 18.9231 49.5045 18.7241C51.1032 18.4052 52.7167 18.2083 54.3449 18.1333ZM53.6927 45.5706C54.2564 46.1165 54.8016 46.6662 55.4211 47.1276C56.6272 48.0251 57.8909 48.8317 59.2121 49.5474C60.3505 50.1646 61.4348 50.5914 62.5842 51.0084C62.5914 51.0111 62.5992 51.0121 62.6068 51.0113C62.6145 51.0106 62.6217 51.008 62.628 51.004C62.6343 50.9999 62.6393 50.9944 62.6427 50.988C62.6461 50.9816 62.6478 50.9745 62.6475 50.9672C62.5623 47.7798 62.5534 44.5923 62.6208 41.4045C62.6209 41.4002 62.6201 41.3959 62.6184 41.3919C62.6168 41.3878 62.6144 41.3842 62.6114 41.3812C62.6084 41.3782 62.6048 41.3759 62.6008 41.3745C62.5969 41.373 62.5927 41.3724 62.5886 41.3727C61.7852 41.4309 60.9791 41.5018 60.1703 41.5856C58.4364 41.7651 56.7275 42.08 55.0436 42.5303C54.346 42.7168 53.5272 42.9746 52.9667 43.4283C52.167 44.0757 53.1978 45.0906 53.6927 45.5706ZM93.9565 35.3331C93.0715 35.9223 92.3931 34.6457 92.2325 33.9945C92.1068 33.4854 92.2603 32.8172 92.068 32.3926C91.8774 31.9729 91.5311 31.6301 91.3421 31.2159C89.7874 27.8074 92.8743 24.6364 95.527 23.113C97.1477 22.182 98.9362 21.5741 100.815 21.6164C101.997 21.6433 103.071 22.0328 103.912 22.8749C104.016 22.9797 104.128 23.1558 104.261 23.2776C104.274 23.2897 104.291 23.2975 104.308 23.3001C104.996 23.3973 105.602 23.6371 106.126 24.0193C108.255 25.5718 107.551 28.2956 105.985 29.9777C105.117 30.9106 104.216 31.7021 103.283 32.352C101.556 33.5556 99.3486 34.5492 97.2231 34.5541C96.7888 34.5552 96.3294 34.4652 95.8842 34.401C95.6641 34.3692 95.0807 34.2716 94.9179 34.1306C94.8494 34.0717 94.7941 34.0821 94.7518 34.1619C94.5459 34.5492 94.3263 35.0874 93.9565 35.3331ZM93.4894 30.0161C94.6775 28.1755 96.1623 26.5873 97.8513 25.2064C97.8772 25.1852 97.8735 25.1754 97.8404 25.1768C96.9511 25.213 96.2726 25.5323 95.5089 26.0233C94.4503 26.7041 92.7164 28.2984 93.3064 29.7407C93.3476 29.8412 93.3802 29.9294 93.4042 30.0051C93.4246 30.0691 93.453 30.0727 93.4894 30.0161ZM98.3921 28.7976C97.5858 29.6073 97.0193 30.3897 96.4032 31.2356C96.35 31.3084 96.3675 31.3543 96.4556 31.3733C96.5889 31.4022 96.7202 31.421 96.8495 31.4298C99.4606 31.6061 101.772 30.8786 103.785 29.2475C104.453 28.706 105.133 27.8781 105.164 26.9954C105.198 25.9525 104.303 25.3036 103.328 25.5263C102.179 25.7885 101.374 26.2702 100.413 27.0141C99.7008 27.5649 99.0272 28.1594 98.3921 28.7976ZM129.169 35.5482C130.143 36.568 130.952 37.8183 131.552 39.0933C131.617 39.2319 131.767 39.604 132.001 40.2097C133.046 42.9181 133.513 45.8948 133.113 48.7865C132.937 50.0555 132.563 51.1905 131.761 52.2038C130.95 53.228 129.272 53.8567 128.185 52.833C127.887 52.5527 127.552 52.1281 127.282 51.7468C126.594 50.7747 125.967 49.7634 125.402 48.713C124.642 47.2976 123.893 45.8756 123.157 44.4471C123.061 44.2606 122.946 44.1174 122.812 44.0175C122.722 43.9506 122.664 43.9718 122.637 44.0812C122.578 44.3299 122.54 44.5815 122.522 44.836C122.363 47.1539 122.358 49.2913 122.236 51.5153C122.185 52.4567 122.081 54.6709 120.588 54.402C118.749 54.0712 118.63 51.6283 118.623 50.174C118.617 49.1927 118.677 48.2151 118.803 47.2411C119.123 44.7576 119.676 42.347 120.546 39.9974C120.737 39.4828 121.139 38.6824 121.713 38.5715C122.357 38.447 122.937 38.9616 123.281 39.4422C124.599 41.2836 125.745 42.964 126.718 44.4833C127.676 45.9791 128.422 47.1292 128.955 47.9335C129.043 48.0651 129.212 48.267 129.332 48.306C129.477 48.3535 129.55 48.3034 129.549 48.1556C129.542 47.3031 129.488 46.3206 129.332 45.0928C128.97 42.2439 128.149 39.6408 127.429 36.9784C127.319 36.5708 127.119 35.7446 127.212 35.2783C127.334 34.6704 127.934 34.6743 128.373 34.9206C128.657 35.0804 128.922 35.2896 129.169 35.5482ZM138.142 40.7105C137.367 40.5306 136.495 40.332 135.833 39.8553C135.512 39.6243 135.11 39.0197 135.17 38.5924C135.225 38.1996 135.677 38.018 136.025 37.9423C138.878 37.3218 141.789 36.9866 144.697 36.7738C145.703 36.7002 146.631 36.7941 147.462 37.4195C148.061 37.8711 148.528 38.4417 148.861 39.1311C149.442 40.3358 148.259 40.6485 147.386 40.7901C145.383 41.1138 143.784 41.0808 141.354 41.0819C141.346 41.082 141.338 41.0841 141.332 41.0879C141.325 41.0918 141.321 41.0972 141.319 41.1033L140.662 43.2999C140.661 43.3049 140.66 43.3101 140.661 43.3152C140.662 43.3203 140.665 43.3251 140.668 43.3293C140.671 43.3334 140.675 43.3368 140.68 43.3392C140.685 43.3415 140.69 43.3427 140.696 43.3427C141.928 43.334 143.169 43.3245 144.42 43.3142C145.296 43.3065 146.001 43.4497 146.125 44.4679C146.2 45.0714 146.271 45.9064 145.62 46.1713C145.364 46.2761 144.936 46.2816 144.636 46.2876C143.399 46.3125 142.161 46.3363 140.924 46.359C140.57 46.3652 140.132 46.4096 139.611 46.4923C139.603 46.4936 139.595 46.4971 139.588 46.5023C139.581 46.5075 139.576 46.5143 139.574 46.5219C139.189 47.5445 138.853 48.5832 138.566 49.638C138.564 49.6447 138.564 49.6517 138.565 49.6586C138.566 49.6654 138.569 49.6719 138.573 49.6774C138.577 49.683 138.583 49.6875 138.589 49.6907C138.595 49.6938 138.602 49.6955 138.609 49.6956C139.071 49.7022 139.532 49.6627 139.994 49.5771C141.746 49.2523 143.446 49.006 144.938 48.7871C145.196 48.7494 145.431 48.7842 145.645 48.8913C146.1 49.119 146.488 49.8239 146.594 50.3133C146.789 51.2174 146.262 51.647 145.599 52.1242C143.705 53.487 141.228 54.701 138.875 54.876C138.053 54.9369 136.824 54.5754 136.105 53.9637C135.842 53.7406 135.606 53.4641 135.397 53.1342C134.428 51.608 134.452 49.7197 135.159 48.0816C135.242 47.8885 135.404 47.4982 135.642 46.9109C135.726 46.706 135.749 46.5135 135.712 46.3332C135.621 45.8863 135.537 45.4382 135.458 44.9891C135.306 44.1316 135.979 43.6801 136.732 43.6258C137.164 43.5945 137.346 43.0438 137.472 42.6839C137.697 42.0372 137.927 41.3919 138.163 40.7478C138.164 40.7441 138.164 40.7401 138.164 40.7361C138.164 40.7321 138.163 40.7282 138.161 40.7247C138.159 40.7211 138.156 40.7181 138.153 40.7156C138.15 40.7132 138.146 40.7115 138.142 40.7105ZM102.427 45.0286C101.143 44.6983 100.545 43.8913 100.632 42.5604C100.823 39.6292 103.887 38.3367 106.299 37.7843C108.956 37.1759 111.788 37.0228 114.484 37.4474C115.528 37.612 116.705 37.9203 117.594 38.4755C118.274 38.9001 117.593 39.9112 117.171 40.2239C116.907 40.4192 116.599 40.5577 116.247 40.6392C115.658 40.7753 114.89 40.8682 113.942 40.9179C112.778 40.979 111.613 41.0225 110.447 41.0485C110.332 41.0512 110.157 41.0737 109.992 41.0776C108.426 41.1138 106.691 41.2805 105.09 41.6305C104.768 41.7008 103.992 41.8429 103.812 42.1353C103.752 42.2322 103.769 42.3125 103.863 42.3761C104.217 42.6169 104.835 42.6883 105.253 42.7382C108.538 43.127 110.609 43.3744 111.467 43.4804C112.788 43.6439 114.1 43.9067 115.206 44.4548C116.618 45.1537 117.371 46.8324 117.435 48.3477C117.513 50.1893 116.917 51.6634 115.46 52.7853C113.242 54.4931 109.949 54.6939 107.288 54.0789C105.33 53.6269 103.096 52.5165 101.952 50.7856C101.37 49.9057 101.303 48.752 101.87 47.8429C102.888 46.2103 105.578 46.026 107.261 46.2075C109.056 46.4007 110.794 46.7523 112.391 47.5653C113.429 48.0936 112.565 48.8008 111.954 49.068C110.749 49.5935 109.435 49.8426 108.187 49.4235C106.765 48.9462 105.135 47.8089 103.723 48.3323C103.302 48.4881 102.839 48.9352 102.983 49.4295C103.196 50.1619 104.652 50.5267 105.289 50.6342C105.579 50.6829 105.941 50.7112 106.376 50.7193C108.962 50.7659 111.948 50.3204 114.089 48.7311C114.522 48.4096 114.742 47.9307 114.445 47.4386C114.439 47.4288 114.432 47.4204 114.425 47.414C114.418 47.4075 114.41 47.4032 114.403 47.4013L114.317 47.3788C114.301 47.3745 114.285 47.3625 114.272 47.3448C113.675 46.5274 111.779 46.1779 110.848 46.0205C108.959 45.7012 107.042 45.5684 105.135 45.3973C103.958 45.2919 103.341 45.2634 102.427 45.0286ZM165.342 44.0444V45.3885C165.262 46.4111 165.08 47.3234 164.794 48.1255C163.743 51.0841 161.299 53.3153 158.488 54.633C156.974 55.3424 155.423 55.6594 153.753 55.5585C153.736 55.5574 153.719 55.562 153.705 55.5715C153.69 55.581 153.68 55.595 153.674 55.6112C152.922 57.8138 152.377 59.7937 151.769 62.3376C151.69 62.6682 151.612 63.0255 151.534 63.4096C151.165 65.2262 150.783 67.0406 150.387 68.8528C150.267 69.4003 150.252 69.7141 149.729 69.8666H149.415C148.295 69.4102 147.258 68.6619 146.925 67.4627C146.641 66.439 146.689 65.2754 146.816 64.2308C147.117 61.75 147.529 59.3768 148.284 57.0128C148.759 55.5243 149.284 54.0531 149.859 52.5993C149.864 52.5855 149.867 52.5706 149.866 52.5556C149.866 52.5406 149.863 52.5258 149.856 52.5121C149.249 51.1839 148.938 49.6989 149.033 48.2385C149.271 44.6182 151.39 41.1664 153.697 38.4772C154.01 38.1125 154.349 37.7975 154.715 37.5319C155.116 37.2406 155.547 37.358 155.651 37.8841C155.688 38.0692 155.689 38.2652 155.657 38.4722C155.491 39.5168 155.034 40.4873 154.512 41.3957C154.122 42.0735 153.733 42.7515 153.345 43.43C152.567 44.79 151.952 46.3601 151.758 47.9044C151.713 48.2681 151.756 48.6082 151.81 48.9654C151.816 49.0056 151.831 49.0091 151.854 48.9758C152.499 48.0673 153.162 47.1676 153.821 46.2657C155.142 44.4564 156.773 42.747 158.115 41.4325C159.061 40.5059 159.825 39.8876 160.888 39.378C161.804 38.9396 162.63 38.9775 163.438 39.6336C164.734 40.6875 165.202 42.4496 165.342 44.0444ZM161.321 43.2813C160.323 44.3752 159.42 45.5432 158.61 46.7852C157.957 47.7881 157.319 48.7997 156.658 49.7976C156.381 50.2164 156.125 50.6487 155.889 51.0945C155.888 51.0976 155.887 51.101 155.886 51.1044C155.886 51.1079 155.887 51.1113 155.888 51.1145C155.889 51.1177 155.891 51.1206 155.894 51.1229C155.896 51.1252 155.899 51.127 155.902 51.128C155.97 51.1492 156.054 51.1572 156.155 51.1521C157.777 51.0715 159.557 50.2233 160.715 49.1541C162.259 47.7288 163.33 45.4483 162.923 43.301C162.857 42.9527 162.557 42.1139 162.034 42.584C161.752 42.8371 161.515 43.0695 161.321 43.2813ZM97.9616 54.2907C96.508 54.5644 95.3713 53.984 95.1517 52.4386C95.0257 51.5517 94.9496 50.5777 94.9233 49.5167C94.8705 47.3644 94.9233 45.2146 95.0818 43.0673C95.1655 41.9303 95.3072 40.8005 95.5067 39.6781C95.5967 39.1744 95.7311 38.6836 95.9099 38.2056C96.0667 37.787 96.3343 37.2741 96.8713 37.4491C97.4289 37.6309 97.8191 38.0136 98.0419 38.5973C98.3156 39.3149 98.426 40.0566 98.5145 40.8049C98.6865 42.2527 98.7931 43.667 98.863 45.0703C98.9686 47.1872 99.0538 49.3048 99.1186 51.4231C99.1339 51.9271 99.1071 52.4276 99.0383 52.9247C98.9482 53.5786 98.657 54.1596 97.9616 54.2907Z" fill="#025DA6"/>
</svg>
