<svg width="24" height="24" viewBox="0 0 24 24" fill="none" xmlns="http://www.w3.org/2000/svg">
    <path
        d="M6 20C5.45 20 4.975 19.8083 4.575 19.425C4.19167 19.025 4 18.55 4 18V16C4 15.7167 4.09167 15.4833 4.275 15.3C4.475 15.1 4.71667 15 5 15C5.28333 15 5.51667 15.1 5.7 15.3C5.9 15.4833 6 15.7167 6 16V18H18V16C18 15.7167 18.0917 15.4833 18.275 15.3C18.475 15.1 18.7167 15 19 15C19.2833 15 19.5167 15.1 19.7 15.3C19.9 15.4833 20 15.7167 20 16V18C20 18.55 19.8 19.025 19.4 19.425C19.0167 19.8083 18.55 20 18 20H6ZM11 7.85L9.125 9.725C8.925 9.925 8.68333 10.025 8.4 10.025C8.13333 10.0083 7.9 9.9 7.7 9.7C7.51667 9.5 7.41667 9.26667 7.4 9C7.4 8.73333 7.5 8.5 7.7 8.3L11.3 4.7C11.4 4.6 11.5083 4.53333 11.625 4.5C11.7417 4.45 11.8667 4.425 12 4.425C12.1333 4.425 12.2583 4.45 12.375 4.5C12.4917 4.53333 12.6 4.6 12.7 4.7L16.3 8.3C16.5 8.5 16.5917 8.73333 16.575 9C16.575 9.26667 16.4833 9.5 16.3 9.7C16.1 9.9 15.8583 10.0083 15.575 10.025C15.3083 10.025 15.075 9.925 14.875 9.725L13 7.85V15C13 15.2833 12.9 15.525 12.7 15.725C12.5167 15.9083 12.2833 16 12 16C11.7167 16 11.475 15.9083 11.275 15.725C11.0917 15.525 11 15.2833 11 15V7.85Z"
        fill="#1F5DE2" />
</svg>