<svg width="72" height="72" viewBox="0 0 72 72" fill="none" xmlns="http://www.w3.org/2000/svg">
<rect width="72" height="72" rx="16" fill="#1F5DE2"/>
<path d="M22 52V20H36.8837C39.8605 20 42.4186 20.4724 44.5581 21.4171C46.7287 22.3619 48.4031 23.7333 49.5814 25.5314C50.7597 27.299 51.3488 29.4019 51.3488 31.84C51.3488 34.2476 50.7597 36.3352 49.5814 38.1029C48.4031 39.84 46.7287 41.181 44.5581 42.1257C42.4186 43.04 39.8605 43.4971 36.8837 43.4971H27.1163L31.2093 39.7029V52H22ZM42.1395 52L34.0465 40.3429H43.8605L52 52H42.1395ZM31.2093 40.6629L27.1163 36.5029H36.3256C38.2481 36.5029 39.6744 36.0914 40.6047 35.2686C41.5659 34.4457 42.0465 33.3029 42.0465 31.84C42.0465 30.3467 41.5659 29.1886 40.6047 28.3657C39.6744 27.5429 38.2481 27.1314 36.3256 27.1314H27.1163L31.2093 22.9714V40.6629Z" fill="white"/>
</svg>
