<svg width="170" height="28" viewBox="0 0 170 28" fill="none" xmlns="http://www.w3.org/2000/svg">
<path fill-rule="evenodd" clip-rule="evenodd" d="M5.53488 0.546875C2.47805 0.546875 0 3.02493 0 6.08176V21.8957C0 24.9525 2.47805 27.4306 5.53488 27.4306H21.3488C24.4057 27.4306 26.8837 24.9525 26.8837 21.8957V6.08176C26.8837 3.02493 24.4057 0.546875 21.3488 0.546875H5.53488ZM8.21314 8.02762V20.0279H11.6075V16.8392H13.4604L15.6362 20.0279H19.2705L16.6808 16.2542C17.4068 15.9049 17.9729 15.4256 18.3791 14.8163C18.8134 14.1535 19.0305 13.3706 19.0305 12.4677C19.0305 11.5534 18.8134 10.7648 18.3791 10.1019C17.9448 9.42765 17.3276 8.91335 16.5276 8.55906C15.739 8.20476 14.7961 8.02762 13.699 8.02762H8.21314ZM11.6075 14.2163H13.4933C14.2018 14.2163 14.7276 14.062 15.0704 13.7535C15.4247 13.4449 15.6019 13.0163 15.6019 12.4677C15.6019 11.9077 15.4247 11.4734 15.0704 11.1648C14.7276 10.8563 14.2018 10.702 13.4933 10.702H11.6075V14.2163Z" fill="white"/>
<path d="M35.5163 20.9922V7.19092H40.4357C41.5049 7.19092 42.3922 7.37511 43.0975 7.74351C43.8073 8.1119 44.3375 8.62181 44.6879 9.27324C45.0383 9.92017 45.2135 10.6682 45.2135 11.5173C45.2135 12.3619 45.0361 13.1054 44.6812 13.7479C44.3307 14.3858 43.8006 14.8823 43.0908 15.2372C42.3854 15.5921 41.4982 15.7695 40.4289 15.7695H36.7023V13.977H40.2402C40.9141 13.977 41.4622 13.8804 41.8845 13.6872C42.3113 13.494 42.6235 13.2132 42.8212 12.8449C43.0189 12.4765 43.1177 12.0339 43.1177 11.5173C43.1177 10.9962 43.0166 10.5446 42.8145 10.1628C42.6168 9.7809 42.3046 9.48888 41.8778 9.28672C41.4555 9.08006 40.9006 8.97673 40.2133 8.97673H37.5986V20.9922H35.5163ZM42.3293 14.7654L45.7392 20.9922H43.3671L40.0246 14.7654H42.3293ZM51.9171 21.2011C50.8972 21.2011 50.0189 20.9832 49.2821 20.5474C48.5498 20.1071 47.9838 19.4894 47.5839 18.6942C47.1886 17.8945 46.9909 16.9578 46.9909 15.8841C46.9909 14.8238 47.1886 13.8894 47.5839 13.0807C47.9838 12.272 48.5409 11.6408 49.2552 11.1871C49.974 10.7333 50.8141 10.5065 51.7755 10.5065C52.3596 10.5065 52.9256 10.603 53.4737 10.7962C54.0218 10.9894 54.5138 11.2927 54.9496 11.706C55.3853 12.1193 55.729 12.6562 55.9806 13.3166C56.2322 13.9725 56.358 14.7699 56.358 15.7089V16.4232H48.1298V14.9137H54.3835C54.3835 14.3836 54.2757 13.9141 54.06 13.5053C53.8444 13.0919 53.5411 12.7662 53.1503 12.5281C52.7639 12.29 52.3102 12.171 51.789 12.171C51.2229 12.171 50.7288 12.3102 50.3065 12.5888C49.8886 12.8628 49.5652 13.2222 49.3361 13.667C49.1114 14.1073 48.9991 14.5857 48.9991 15.1024V16.2817C48.9991 16.9736 49.1204 17.5621 49.363 18.0473C49.6101 18.5325 49.9538 18.9031 50.3941 19.1592C50.8343 19.4108 51.3487 19.5366 51.9373 19.5366C52.3191 19.5366 52.6673 19.4827 52.9818 19.3749C53.2963 19.2625 53.5681 19.0963 53.7972 18.8762C54.0263 18.656 54.2015 18.3842 54.3228 18.0608L56.23 18.4044C56.0772 18.966 55.8032 19.458 55.4078 19.8803C55.0169 20.2981 54.525 20.6238 53.932 20.8574C53.3435 21.0865 52.6718 21.2011 51.9171 21.2011ZM66.3501 13.1683L64.5239 13.4918C64.4475 13.2582 64.3262 13.0358 64.16 12.8246C63.9982 12.6135 63.7781 12.4405 63.4995 12.3057C63.221 12.171 62.8728 12.1036 62.455 12.1036C61.8845 12.1036 61.4082 12.2316 61.0264 12.4877C60.6445 12.7393 60.4536 13.065 60.4536 13.4648C60.4536 13.8108 60.5816 14.0893 60.8377 14.3005C61.0938 14.5116 61.5071 14.6846 62.0776 14.8194L63.7219 15.1967C64.6744 15.4169 65.3842 15.7561 65.8514 16.2143C66.3186 16.6726 66.5523 17.2678 66.5523 18.0001C66.5523 18.6201 66.3726 19.1727 66.0132 19.6579C65.6582 20.1386 65.1618 20.516 64.5239 20.79C63.8904 21.0641 63.1559 21.2011 62.3202 21.2011C61.1611 21.2011 60.2154 20.954 59.4832 20.4598C58.7509 19.9611 58.3016 19.2536 58.1354 18.3371L60.0829 18.0405C60.2042 18.5482 60.4536 18.9323 60.8309 19.1929C61.2083 19.449 61.7003 19.577 62.3068 19.577C62.9672 19.577 63.495 19.44 63.8904 19.1659C64.2857 18.8874 64.4834 18.5482 64.4834 18.1484C64.4834 17.8249 64.3621 17.5531 64.1195 17.333C63.8814 17.1128 63.5153 16.9466 63.0211 16.8343L61.269 16.4502C60.3031 16.23 59.5887 15.8796 59.126 15.3989C58.6677 14.9182 58.4386 14.3094 58.4386 13.5727C58.4386 12.9617 58.6093 12.427 58.9508 11.9688C59.2922 11.5106 59.7639 11.1534 60.366 10.8973C60.968 10.6367 61.6576 10.5065 62.4348 10.5065C63.5535 10.5065 64.434 10.7491 65.0764 11.2343C65.7189 11.715 66.1434 12.3597 66.3501 13.1683ZM75.3246 16.6995V10.6412H77.3463V20.9922H75.3651V19.1996H75.2572C75.0191 19.7522 74.6373 20.2127 74.1116 20.5811C73.5905 20.945 72.9413 21.127 72.1641 21.127C71.4992 21.127 70.9106 20.981 70.3985 20.6889C69.8908 20.3924 69.491 19.9544 69.199 19.3749C68.9114 18.7953 68.7677 18.0787 68.7677 17.2251V10.6412H70.7826V16.9825C70.7826 17.6879 70.978 18.2495 71.3689 18.6673C71.7597 19.0851 72.2674 19.294 72.8919 19.294C73.2693 19.294 73.6444 19.1996 74.0173 19.011C74.3947 18.8223 74.7069 18.537 74.954 18.1551C75.2056 17.7732 75.3291 17.288 75.3246 16.6995ZM80.0537 20.9922V10.6412H81.9877V12.326H82.1158C82.3314 11.7554 82.6841 11.3106 83.1738 10.9917C83.6635 10.6682 84.2497 10.5065 84.9326 10.5065C85.6245 10.5065 86.204 10.6682 86.6713 10.9917C87.143 11.3151 87.4912 11.7599 87.7158 12.326H87.8236C88.0707 11.7734 88.4638 11.3331 89.0029 11.0051C89.542 10.6727 90.1845 10.5065 90.9302 10.5065C91.8692 10.5065 92.6352 10.8007 93.2282 11.3893C93.8257 11.9778 94.1245 12.8651 94.1245 14.0511V20.9922H92.1095V14.2398C92.1095 13.539 91.9186 13.0313 91.5367 12.7168C91.1549 12.4023 90.6989 12.2451 90.1687 12.2451C89.5128 12.2451 89.0029 12.4473 88.639 12.8516C88.2751 13.2514 88.0932 13.7658 88.0932 14.3948V20.9922H86.085V14.1118C86.085 13.5502 85.9098 13.0987 85.5593 12.7573C85.2089 12.4158 84.7529 12.2451 84.1913 12.2451C83.8095 12.2451 83.4568 12.3462 83.1333 12.5483C82.8144 12.746 82.556 13.0223 82.3584 13.3772C82.1652 13.7321 82.0686 14.1432 82.0686 14.6104V20.9922H80.0537ZM101.286 21.2011C100.266 21.2011 99.3881 20.9832 98.6513 20.5474C97.919 20.1071 97.353 19.4894 96.9531 18.6942C96.5578 17.8945 96.3601 16.9578 96.3601 15.8841C96.3601 14.8238 96.5578 13.8894 96.9531 13.0807C97.353 12.272 97.9101 11.6408 98.6244 11.1871C99.3432 10.7333 100.183 10.5065 101.145 10.5065C101.729 10.5065 102.295 10.603 102.843 10.7962C103.391 10.9894 103.883 11.2927 104.319 11.706C104.755 12.1193 105.098 12.6562 105.35 13.3166C105.601 13.9725 105.727 14.7699 105.727 15.7089V16.4232H97.499V14.9137H103.753C103.753 14.3836 103.645 13.9141 103.429 13.5053C103.214 13.0919 102.91 12.7662 102.519 12.5281C102.133 12.29 101.679 12.171 101.158 12.171C100.592 12.171 100.098 12.3102 99.6756 12.5888C99.2578 12.8628 98.9344 13.2222 98.7052 13.667C98.4806 14.1073 98.3683 14.5857 98.3683 15.1024V16.2817C98.3683 16.9736 98.4896 17.5621 98.7322 18.0473C98.9793 18.5325 99.323 18.9031 99.7633 19.1592C100.204 19.4108 100.718 19.5366 101.306 19.5366C101.688 19.5366 102.037 19.4827 102.351 19.3749C102.665 19.2625 102.937 19.0963 103.166 18.8762C103.396 18.656 103.571 18.3842 103.692 18.0608L105.599 18.4044C105.446 18.966 105.172 19.458 104.777 19.8803C104.386 20.2981 103.894 20.6238 103.301 20.8574C102.713 21.0865 102.041 21.2011 101.286 21.2011ZM108.125 20.9922V7.19092H110.207V19.1996H116.461V20.9922H108.125ZM123.135 21.2011C122.116 21.2011 121.237 20.9832 120.501 20.5474C119.768 20.1071 119.202 19.4894 118.802 18.6942C118.407 17.8945 118.209 16.9578 118.209 15.8841C118.209 14.8238 118.407 13.8894 118.802 13.0807C119.202 12.272 119.759 11.6408 120.474 11.1871C121.192 10.7333 122.033 10.5065 122.994 10.5065C123.578 10.5065 124.144 10.603 124.692 10.7962C125.24 10.9894 125.732 11.2927 126.168 11.706C126.604 12.1193 126.947 12.6562 127.199 13.3166C127.451 13.9725 127.576 14.7699 127.576 15.7089V16.4232H119.348V14.9137H125.602C125.602 14.3836 125.494 13.9141 125.278 13.5053C125.063 13.0919 124.76 12.7662 124.369 12.5281C123.982 12.29 123.529 12.171 123.007 12.171C122.441 12.171 121.947 12.3102 121.525 12.5888C121.107 12.8628 120.784 13.2222 120.554 13.667C120.33 14.1073 120.217 14.5857 120.217 15.1024V16.2817C120.217 16.9736 120.339 17.5621 120.581 18.0473C120.828 18.5325 121.172 18.9031 121.612 19.1592C122.053 19.4108 122.567 19.5366 123.156 19.5366C123.538 19.5366 123.886 19.4827 124.2 19.3749C124.515 19.2625 124.786 19.0963 125.016 18.8762C125.245 18.656 125.42 18.3842 125.541 18.0608L127.448 18.4044C127.296 18.966 127.022 19.458 126.626 19.8803C126.235 20.2981 125.743 20.6238 125.15 20.8574C124.562 21.0865 123.89 21.2011 123.135 21.2011ZM132.824 21.2213C132.168 21.2213 131.575 21.1 131.045 20.8574C130.515 20.6103 130.095 20.2532 129.785 19.7859C129.48 19.3187 129.327 18.7459 129.327 18.0675C129.327 17.4835 129.439 17.0028 129.664 16.6254C129.888 16.248 130.192 15.9492 130.574 15.7291C130.955 15.509 131.382 15.3427 131.854 15.2304C132.326 15.1181 132.806 15.0328 133.296 14.9743C133.916 14.9025 134.419 14.8441 134.806 14.7991C135.192 14.7497 135.473 14.6711 135.648 14.5633C135.823 14.4555 135.911 14.2802 135.911 14.0376V13.9905C135.911 13.4019 135.744 12.9459 135.412 12.6225C135.084 12.299 134.594 12.1373 133.943 12.1373C133.265 12.1373 132.73 12.2878 132.339 12.5888C131.953 12.8853 131.685 13.2155 131.537 13.5794L129.644 13.1481C129.868 12.5191 130.196 12.0115 130.627 11.6251C131.063 11.2343 131.564 10.9512 132.13 10.776C132.696 10.5963 133.292 10.5065 133.916 10.5065C134.329 10.5065 134.767 10.5559 135.23 10.6547C135.697 10.7491 136.133 10.9243 136.537 11.1803C136.946 11.4364 137.281 11.8026 137.542 12.2788C137.802 12.7505 137.932 13.3638 137.932 14.1185V20.9922H135.965V19.577H135.884C135.753 19.8376 135.558 20.0937 135.297 20.3453C135.037 20.5968 134.702 20.8057 134.293 20.972C133.885 21.1382 133.395 21.2213 132.824 21.2213ZM133.262 19.604C133.819 19.604 134.296 19.4939 134.691 19.2738C135.091 19.0536 135.394 18.7661 135.601 18.4112C135.812 18.0518 135.917 17.6677 135.917 17.2588V15.9245C135.846 15.9964 135.706 16.0638 135.5 16.1267C135.297 16.1851 135.066 16.2368 134.806 16.2817C134.545 16.3221 134.291 16.3603 134.044 16.3963C133.797 16.4277 133.59 16.4547 133.424 16.4771C133.033 16.5265 132.676 16.6097 132.353 16.7265C132.034 16.8433 131.778 17.0117 131.584 17.2319C131.396 17.4475 131.301 17.7351 131.301 18.0945C131.301 18.5931 131.486 18.9705 131.854 19.2266C132.222 19.4782 132.692 19.604 133.262 19.604ZM144.491 21.1944C143.655 21.1944 142.91 20.981 142.254 20.5542C141.602 20.1229 141.09 19.5096 140.717 18.7144C140.349 17.9148 140.165 16.9556 140.165 15.8369C140.165 14.7183 140.351 13.7613 140.724 12.9662C141.101 12.171 141.618 11.5622 142.274 11.1399C142.93 10.7176 143.673 10.5065 144.504 10.5065C145.147 10.5065 145.664 10.6143 146.054 10.8299C146.45 11.0411 146.755 11.2882 146.971 11.5712C147.191 11.8542 147.362 12.1036 147.483 12.3192H147.604V7.19092H149.619V20.9922H147.652V19.3816H147.483C147.362 19.6017 147.187 19.8533 146.957 20.1363C146.733 20.4194 146.423 20.6665 146.027 20.8776C145.632 21.0888 145.12 21.1944 144.491 21.1944ZM144.936 19.4759C145.515 19.4759 146.005 19.3232 146.405 19.0177C146.809 18.7077 147.115 18.2787 147.321 17.7306C147.533 17.1825 147.638 16.5445 147.638 15.8167C147.638 15.0979 147.535 14.4689 147.328 13.9298C147.121 13.3907 146.818 12.9706 146.418 12.6696C146.019 12.3686 145.524 12.2181 144.936 12.2181C144.329 12.2181 143.824 12.3754 143.42 12.6899C143.015 13.0043 142.71 13.4334 142.503 13.977C142.301 14.5206 142.2 15.1338 142.2 15.8167C142.2 16.5086 142.303 17.1308 142.51 17.6834C142.716 18.236 143.022 18.674 143.426 18.9975C143.835 19.3164 144.338 19.4759 144.936 19.4759ZM156.956 21.2011C155.936 21.2011 155.058 20.9832 154.321 20.5474C153.589 20.1071 153.023 19.4894 152.623 18.6942C152.228 17.8945 152.03 16.9578 152.03 15.8841C152.03 14.8238 152.228 13.8894 152.623 13.0807C153.023 12.272 153.58 11.6408 154.294 11.1871C155.013 10.7333 155.853 10.5065 156.815 10.5065C157.399 10.5065 157.965 10.603 158.513 10.7962C159.061 10.9894 159.553 11.2927 159.989 11.706C160.425 12.1193 160.768 12.6562 161.02 13.3166C161.271 13.9725 161.397 14.7699 161.397 15.7089V16.4232H153.169V14.9137H159.423C159.423 14.3836 159.315 13.9141 159.099 13.5053C158.884 13.0919 158.58 12.7662 158.19 12.5281C157.803 12.29 157.349 12.171 156.828 12.171C156.262 12.171 155.768 12.3102 155.346 12.5888C154.928 12.8628 154.604 13.2222 154.375 13.667C154.151 14.1073 154.038 14.5857 154.038 15.1024V16.2817C154.038 16.9736 154.16 17.5621 154.402 18.0473C154.649 18.5325 154.993 18.9031 155.433 19.1592C155.874 19.4108 156.388 19.5366 156.977 19.5366C157.358 19.5366 157.707 19.4827 158.021 19.3749C158.336 19.2625 158.607 19.0963 158.836 18.8762C159.066 18.656 159.241 18.3842 159.362 18.0608L161.269 18.4044C161.116 18.966 160.842 19.458 160.447 19.8803C160.056 20.2981 159.564 20.6238 158.971 20.8574C158.383 21.0865 157.711 21.2011 156.956 21.2011ZM163.633 20.9922V10.6412H165.58V12.2855H165.688C165.877 11.7284 166.209 11.2904 166.686 10.9714C167.166 10.648 167.71 10.4862 168.316 10.4862C168.442 10.4862 168.59 10.4907 168.761 10.4997C168.936 10.5087 169.073 10.5199 169.172 10.5334V12.4607C169.091 12.4383 168.948 12.4136 168.741 12.3866C168.534 12.3552 168.328 12.3394 168.121 12.3394C167.645 12.3394 167.22 12.4405 166.847 12.6427C166.479 12.8404 166.187 13.1167 165.971 13.4716C165.756 13.822 165.648 14.2218 165.648 14.6711V20.9922H163.633Z" fill="white"/>
</svg>
