<svg width="210" height="88" viewBox="0 0 210 88" fill="none" xmlns="http://www.w3.org/2000/svg">
<path fill-rule="evenodd" clip-rule="evenodd" d="M81.87 13C71.7936 12.9966 60.0087 46.7672 60 74.7632H69.274C69.274 45.43 76.457 18.9868 81.6182 18.9868C85.9609 18.9868 89.8345 30.5329 91.2069 52.7254H101.537C102.915 30.5329 106.799 18.9863 111.118 18.9868C114.934 18.9877 119.842 33.3909 122.155 52.7254H130.645C126.8 31.6617 118.355 13 110.881 13C102.265 13 97.7456 31.2831 96.3752 41.4163C94.9941 31.2804 90.4733 13.0029 81.87 13ZM91.6545 63.517C91.7098 65.9907 91.7384 68.5515 91.7384 71.2242H100.998C100.998 68.5515 101.034 65.9907 101.089 63.517H91.6545ZM123.127 63.517C123.35 67.1829 123.477 70.9473 123.477 74.7632H132.751C132.751 71.0854 132.547 67.3056 132.17 63.517H123.127Z" fill="#FF8000"/>
<path fill-rule="evenodd" clip-rule="evenodd" d="M128.728 62.4366H131.417V53.5918H128.728V62.4366ZM141.303 53.592H143.134L142.512 56.0024H141.181L141.303 53.592ZM146.289 54.9022C148.077 54.9022 149.757 55.3534 149.765 57.1089H147.212C147.212 56.5042 146.859 56.2293 146.263 56.2293C145.91 56.2293 145.432 56.3762 145.432 56.9305C145.432 57.8504 146.887 57.6662 148.122 58.033C149.231 58.362 150 59.0238 150 60.0927C150 61.7302 148.715 62.636 146.288 62.6456C143.743 62.6559 142.786 61.7385 142.778 60.0927H145.365C145.365 60.7139 145.751 61.0837 146.296 61.0837C146.95 61.0837 147.246 60.8357 147.246 60.374C147.246 59.4125 145.463 59.4374 144.411 59.0934C143.696 58.8588 143.046 58.3289 143.046 57.2033C143.046 56.2629 143.752 54.9022 146.288 54.9022M91.2295 59.7563C90.7832 61.5147 89.3246 62.6546 87.5053 62.6548C85.3091 62.6548 83.6382 60.9928 83.6404 58.5876C83.642 56.1855 85.1272 54.5233 87.5056 54.521C89.4773 54.5195 90.8349 55.6647 91.2427 57.4256L88.7266 57.4258C88.5337 56.8967 88.1631 56.4838 87.5053 56.4836C86.3953 56.4831 86.1025 57.6597 86.103 58.5876C86.1032 59.5161 86.3953 60.692 87.5053 60.692C88.1604 60.692 88.5304 60.2829 88.724 59.7565L91.2295 59.7563ZM72.6823 53.5929H75.8943L77.2924 58.8179L78.6906 53.5929H81.9048L83.3092 62.6548H80.6591L79.9591 57.3589L78.5108 62.6548H76.0741L74.626 57.3589L73.9255 62.6548H71.2734L72.6823 53.5929ZM113.881 58.1039V62.4381H111.223V54.711H113.881V55.3146C114.554 54.7905 115.162 54.521 116.541 54.521C118.039 54.521 119.246 55.5221 119.246 56.5729V62.4384H116.57V58.1852C116.571 57.4786 115.938 56.9028 115.249 56.9028C114.363 56.9028 113.923 57.6863 113.881 58.1039ZM137.593 55.4774V53.592H140.281V62.4368H137.593V62.0075C137.24 62.3262 136.777 62.6521 135.618 62.6521C134.315 62.6521 132.244 61.9276 132.242 58.8161C132.241 55.7088 134.312 54.9022 135.786 54.9022C136.857 54.9022 137.362 55.2717 137.593 55.4774ZM134.804 58.8159C134.804 60.0253 135.366 60.7981 136.291 60.7981C136.845 60.7981 137.308 60.5564 137.594 60.0528V57.7324C137.451 57.2203 136.954 56.8428 136.291 56.8426C135.365 56.8421 134.804 57.6066 134.804 58.8159ZM102.3 58.5887C102.302 56.1866 103.86 54.5239 106.355 54.5217C108.85 54.5195 110.408 56.1866 110.41 58.5887C110.412 60.9935 108.85 62.6552 106.355 62.6552C103.862 62.6554 102.298 60.9935 102.3 58.5887ZM107.895 58.5887C107.896 57.6603 107.574 56.4843 106.355 56.4843C105.135 56.4838 104.814 57.6603 104.814 58.5887C104.815 59.5168 105.135 60.6929 106.355 60.6929C107.574 60.6929 107.895 59.5168 107.895 58.5887ZM92.1661 53.5929H96.7847C99.6745 53.5929 101.644 55.3878 101.644 58.1238C101.644 60.8596 99.675 62.6548 96.785 62.6548H92.1661V53.5929ZM95.2215 60.5127H96.618C97.5226 60.5127 98.624 59.9608 98.624 58.1238C98.624 56.2889 97.5226 55.7352 96.6178 55.7352H95.2215V60.5127ZM124.041 54.5222C125.949 54.5206 127.521 55.222 127.644 56.7624V62.437H124.953V61.672C124.3 62.2318 123.649 62.6519 122.473 62.6519C121.104 62.6519 120 61.5691 120 60.2997C120 59.0303 120.782 57.6201 123.911 57.6207C124.718 57.621 124.953 57.3036 124.953 56.9256C124.955 56.4612 124.419 56.2023 123.971 56.2023C123.523 56.2023 123.015 56.3889 123.015 56.8743H120.494C120.494 55.7356 121.26 54.5248 124.041 54.5222H124.041ZM123.892 58.8763C123.272 58.8763 122.697 59.2075 122.697 59.8422C122.697 60.2531 122.94 60.6081 123.575 60.6076C124.182 60.6076 124.829 60.2478 124.953 59.5016V58.7946C124.748 58.9067 124.284 58.8763 123.892 58.8763ZM136.865 68.7306H138.517C139.334 68.7306 139.879 69.1697 139.879 69.7501C139.879 70.2859 139.466 70.6374 138.956 70.6813V70.6992C139.738 70.9626 139.852 71.5074 139.861 72.2457H139.123C139.097 71.3581 138.903 70.9716 138.121 70.9716H137.515V72.2457H136.865V68.7306ZM137.515 70.4092H138.288C138.895 70.4092 139.14 70.1981 139.14 69.8027C139.14 69.5037 138.956 69.2928 138.394 69.2928H137.515V70.4092ZM138.218 67.5091C138.615 67.5083 139.008 67.586 139.376 67.7376C139.743 67.8892 140.076 68.1119 140.357 68.3927C140.638 68.6736 140.861 69.0072 141.012 69.3743C141.164 69.7414 141.241 70.1348 141.241 70.532C141.241 72.2106 139.888 73.555 138.218 73.555C136.548 73.555 135.195 72.2106 135.195 70.532C135.194 70.1349 135.272 69.7414 135.423 69.3743C135.575 69.0072 135.798 68.6737 136.079 68.3928C136.359 68.1119 136.693 67.8893 137.06 67.7377C137.427 67.586 137.821 67.5083 138.218 67.5091ZM138.218 73.2298C139.703 73.2298 140.916 72.0259 140.916 70.532C140.916 69.0381 139.703 67.8343 138.218 67.8343C136.733 67.8343 135.52 69.0381 135.52 70.532C135.52 72.0259 136.733 73.2298 138.218 73.2298Z" fill="black"/>
</svg>
