<svg width="210" height="88" viewBox="0 0 210 88" fill="none" xmlns="http://www.w3.org/2000/svg">
<path fill-rule="evenodd" clip-rule="evenodd" d="M96.174 28.3055C96.5343 28.3055 96.8248 28.012 96.8248 27.6513C96.8271 27.564 96.812 27.4772 96.7803 27.3959C96.7486 27.3147 96.701 27.2406 96.6402 27.178C96.5795 27.1155 96.5069 27.0658 96.4267 27.0319C96.3465 26.998 96.2603 26.9805 96.1733 26.9805C96.0862 26.9805 96.0001 26.998 95.9199 27.0319C95.8397 27.0658 95.767 27.1155 95.7063 27.178C95.6456 27.2406 95.598 27.3147 95.5663 27.3959C95.5346 27.4772 95.5195 27.564 95.5218 27.6513C95.5218 28.012 95.8118 28.3055 96.174 28.3055ZM104.051 41.7128C105.019 41.7128 105.671 41.5819 106.195 41.388C106.717 41.1936 107.118 40.9594 107.409 40.7197C107.686 40.4926 107.862 40.2622 108.158 40.1108C108.418 39.9757 108.785 39.9439 109.197 39.9439C109.788 39.9439 110.453 40.1271 110.939 40.3954L111.009 39.4883C110.685 39.328 109.543 38.9265 108.551 38.9265C107.424 38.9265 106.998 39.2312 106.581 39.6079C106.097 40.0481 105.485 40.5715 103.83 40.5715C103.389 40.5715 102.331 40.4519 101.901 40.4519C101.64 40.4519 101.439 40.5173 101.439 40.5173C101.518 40.7655 101.687 41.4492 101.687 41.4492C102.083 41.4987 102.775 41.7128 104.051 41.7128ZM98.9636 39.0228C99.2988 39.0228 100.274 39.1719 101.399 39.2803C102.039 39.3406 102.723 39.3883 103.369 39.3883C104.634 39.3883 106.019 38.7854 107.244 38.1559L107.004 37.2825C106.432 37.5965 105.344 37.9456 104.437 38.0905C104.213 38.1269 103.565 38.1358 103.38 38.1064C103.074 38.0587 102.707 37.9484 102.313 37.8765C101.759 37.7722 101.154 37.7475 100.796 37.7316C100.4 37.7138 99.6904 37.7811 99.3417 37.804C98.0606 37.8807 97.214 38.183 96.4038 38.7312C95.9945 39.0088 95.4719 39.4621 95.0687 40.0107C95.2761 40.0262 95.8677 40.1916 95.8677 40.1916C96.7413 39.4467 98.0541 39.0228 98.9636 39.0228Z" fill="#2463A9"/>
<path fill-rule="evenodd" clip-rule="evenodd" d="M83.5263 39.445C84.1501 39.445 84.4004 39.6478 84.7444 39.8553C84.9855 40.0044 85.1747 40.1689 85.3547 40.332C85.7397 40.6769 85.6297 40.9932 85.3276 41.2321C85.1724 41.3559 85.0395 41.505 84.6479 41.7601C84.4591 41.8849 84.1328 42.0854 83.91 42.1798C83.5179 42.3424 83.3473 42.3607 83.2051 42.3607C83.0611 42.3607 82.8317 42.3382 82.703 42.2097L81.7059 42.821C82.0052 43.0551 82.345 43.1346 82.917 43.1346C83.5631 43.1346 84.0787 42.9948 84.7155 42.7448C85.5411 42.4172 86.4693 41.7737 86.7774 41.5975C87.4082 41.2363 88.045 41.0017 88.727 41.0017C89.3279 41.0017 90.0053 41.3582 90.7642 41.7218C91.6602 42.1527 92.7544 42.5747 93.7604 42.5747C94.3636 42.5747 95.0391 42.4864 95.7463 42.342C97.0022 42.0849 98.3527 41.6606 99.6743 41.2115L99.245 40.4381C98.9228 40.5572 97.8194 40.8685 96.633 41.133C95.6493 41.3494 94.6517 41.5452 94.1342 41.5452C93.7114 41.5452 93.2135 41.5143 92.7679 41.3765C92.0113 41.1484 91.3316 40.9091 91.3316 40.2997C91.3316 39.8782 91.5115 39.58 92.0206 39.3749C92.8443 39.0431 94.1277 39.0636 94.8027 39.0636C94.9291 38.9281 95.44 38.3122 95.44 38.3122C94.899 38.203 94.3486 38.1471 93.7967 38.1453C92.9506 38.1453 92.1688 38.2538 91.5208 38.5267C90.9199 38.78 90.4472 39.1454 90.105 39.6394C89.9675 39.8357 89.8258 40.0226 89.6193 40.0226C89.2766 40.0226 88.6823 39.7427 88.0613 39.7427C87.7909 39.7427 87.5616 39.7988 87.3229 39.7988C86.6945 39.7988 85.8754 39.3408 85.1458 38.9506C84.6866 38.7047 84.2139 38.4743 83.6648 38.4743C83.4373 38.4743 83.1249 38.5309 82.8475 38.6482C82.3142 38.8716 81.7735 39.2328 81.5012 39.4604L81.9898 39.7969C82.2746 39.6478 82.793 39.445 83.5263 39.445ZM127.631 46.4699C125.283 44.4847 123.011 42.3125 121.409 40.5367C118.643 37.4747 114.874 31.6317 113.587 28.3253C113.112 27.1089 112.13 27.522 112.633 28.759C113.848 31.7471 116.651 36.141 119.577 39.7632C118.895 39.4604 118.049 39.0538 117.592 38.8515C117.436 39.1066 117.051 39.6118 116.655 40.0268C116.196 40.5054 115.724 40.8932 115.577 41.0288C115.255 41.3293 115.019 41.3517 114.802 41.018C114.704 40.8596 114.495 40.5759 114.386 40.0834L113.764 39.294C113.431 38.8744 111.87 36.7331 111.391 36.0129C110.914 35.2956 110.296 34.5277 109.294 34.5277C108.053 34.5277 107.626 35.9045 107.529 37.1611L108.352 36.8022C108.544 36.0237 108.925 35.6176 109.294 35.6176C109.557 35.6176 109.879 36.0012 109.879 36.2877C109.76 36.6242 109.543 37.3191 109.438 37.8561L110.249 38.1318C110.249 37.7364 110.415 37.0186 110.643 36.6466C110.643 36.6466 110.867 36.8382 110.951 36.9943C111.005 37.0952 111.406 37.7093 111.87 38.5262C112.285 39.2552 112.745 40.1558 113.168 40.8731C113.373 41.2185 113.608 41.5279 113.765 41.7714C113.974 42.0924 114.162 42.3172 114.361 42.4308C114.547 42.534 114.749 42.5368 114.911 42.5368C115.435 42.5368 115.676 42.3625 116.032 42.0588C116.698 41.4825 117.273 40.682 117.867 39.9642L119.267 40.5979C119.808 40.8561 120.355 41.1037 120.906 41.3405C122.1 42.6995 123.436 44.0309 124.839 45.2969L125.791 46.1386C126.051 46.3638 126.311 46.5849 126.575 46.804L127.631 46.4699Z" fill="#2463A9"/>
<path fill-rule="evenodd" clip-rule="evenodd" d="M132.887 46.062C130.489 40.7989 127.328 34.3264 124.625 30.3616L123.994 29.4723C123.091 28.2521 122.115 27.2403 121.157 26.2589L120.414 25.5257C118.541 23.7063 116.439 21.8875 114.837 20.5916C113.424 19.4504 112.42 16.8184 109.183 16.8184C106.266 16.8184 105.268 18.8064 104.942 19.9714C104.725 20.736 104.631 21 104.428 21.287L102.575 23.4988L104.761 23.3227L103.653 25.1663C104.288 25.0336 108.122 24.2615 108.91 25.5028C109.867 27.0038 109.214 28.6329 111.003 32.0477L111.777 33.3974C112.667 34.833 113.722 36.2429 114.659 37.3557L113.763 39.2941L114.385 40.0835L115.778 37.1388C115.067 36.5023 112.939 33.6338 112.059 32.0384C110.06 28.4096 110.845 26.543 109.625 24.8798C108.495 23.3362 105.263 24.0652 105.263 24.0652L106.455 22.3889L104.392 22.6413L105.346 21.4907C105.549 21.193 105.596 21.0126 105.679 20.7252C106.084 19.2522 107.147 17.7918 109.164 17.7918C111.613 17.7918 112.314 19.6766 114.016 21.1771C115.74 22.6983 119.353 25.6229 122.66 29.405C125.326 32.4538 128.743 39.5423 131.368 45.1372C128.498 43.7352 123.638 38.9151 121.602 35.3041L120.641 35.1914C122.827 39.3484 127.518 44.1885 132.158 46.8238L132.887 46.062Z" fill="#2463A9"/>
<path fill-rule="evenodd" clip-rule="evenodd" d="M126.241 28.687C127.006 28.136 127.912 27.6869 128.866 27.3238C129.454 28.0369 130.838 28.6618 131.936 28.8085L131.761 29.9736C130.543 29.3572 128.389 28.7295 126.241 28.687L125.278 29.517C128.193 29.5712 130.048 30.1628 132.45 31.176L132.927 28.1C131.975 27.9692 130.473 27.6963 129.953 26.956C132.15 26.2854 134.43 26.0326 135.777 26.0513V22.2617C135.176 22.614 134.419 22.9435 133.706 23.165C132.832 23.4333 132.039 23.551 131.82 23.165C131.578 22.7407 132.783 21.9845 134.024 21.3233L131.23 18.9964C130.807 19.5675 129.845 21.1653 128.865 22.221C128.168 22.9706 127.451 23.4622 127.041 23.1557C126.826 22.993 126.818 22.5238 126.995 21.9327C127.335 20.7971 128.229 19.2198 128.773 18.5249L124.911 18.159C124.911 19.7414 124.17 21.4836 123.258 22.8916C122.471 24.1034 121.329 24.9843 120.415 25.5255L121.158 26.2588C122.288 25.4713 123.389 24.5077 124.24 23.1351C124.925 22.0317 125.561 20.698 125.8 19.1362L127.137 19.2918C126.581 20.3138 125.953 21.9009 125.905 22.9388C125.939 23.645 126.074 23.7712 126.437 24.0399C127.108 24.5432 127.938 24.2048 128.73 23.5253C129.604 22.7781 130.462 21.5256 131.334 20.3924L132.463 21.3364C131.032 22.2206 130.626 23.1664 131.063 23.7936C131.233 24.0371 131.601 24.2203 132.058 24.2338C132.51 24.245 133.046 24.1114 133.632 23.9716C134.044 23.8721 134.49 23.7282 134.901 23.6015V25.1091C131.649 25.3418 126.097 26.6616 123.995 29.4712L124.626 30.3605C124.808 30.0605 125.028 29.7801 125.278 29.516L126.241 28.687ZM83.7091 21.2803L84.1459 21.6093C85.2899 20.6751 86.6269 18.9759 87.3812 17.3757L86.9915 17.0981C86.2619 17.7688 84.5217 19.9549 83.7091 21.2803Z" fill="#2463A9"/>
<path fill-rule="evenodd" clip-rule="evenodd" d="M83.0382 20.2578C82.3968 17.9879 84.0419 16.6289 85.7598 16.7551C86.4041 15.5116 87.4143 15.2634 88.4884 15.9088C89.4879 16.5116 89.4044 18.0436 88.5713 18.7614C88.8688 20.1264 87.66 22.0719 85.7827 21.9752C86.0055 23.8595 83.6998 24.9315 82.3021 23.701C81.1404 22.6795 81.3833 20.9779 83.0382 20.2578ZM82.2434 19.9105C81.6472 20.0414 81.3362 20.3414 81.0705 20.9896C81.2486 19.5156 80.2715 18.1029 78.6617 18.2113C78.8193 15.5779 76.2171 14.0096 73.916 15.2914C72.5566 14.1245 71.0369 14.3615 70.1227 15.4471C69.2491 16.485 69.2785 18.2361 71.0439 19.1708C70.5978 20.9896 72.2597 22.7972 74.2135 22.3771C74.3258 22.937 74.7356 23.237 75.2759 23.4604C74.4633 23.508 74.13 24.3179 74.13 24.3179C71.539 23.6524 70.202 25.3788 70.1586 27.1906C68.2678 27.7664 67.7387 30.1357 69.1866 31.5195C70.6835 32.9547 72.469 32.3658 73.2475 30.8984C74.9179 31.5349 76.7057 30.5012 76.7523 28.651C78.6142 28.8267 79.3279 27.3556 79.1545 25.8054L78.5643 25.7578C78.3102 27.1976 77.6278 27.8182 76.0698 27.8182C76.0022 29.2015 74.5277 30.4021 72.8573 30.0843C72.3888 31.19 71.0136 31.5508 70.0747 30.6259C69.1381 29.7006 69.4486 27.9608 71.1012 27.6467C71.0336 25.9498 72.6811 24.8983 75.0339 25.011C75.7024 24.1805 76.2427 23.8282 77.2446 23.9254L77.2539 23.4426C76.315 23.316 75.2568 22.4243 75.1784 21.4658C73.1748 21.6256 71.8033 20.4746 71.8714 18.6693C70.5838 18.0646 70.8155 16.7397 71.2322 16.2369C71.9501 15.3681 72.9538 15.4377 73.765 16.1396C76.0544 15.262 77.8977 17.0738 77.8977 19.053C77.8977 19.053 78.9676 19.0324 79.5685 19.66C80.3633 20.4928 80.3633 21.2172 80.5521 22.0247C80.7302 22.7874 81.1129 23.8011 82.0471 24.532C83.6993 25.8232 86.2596 25.4732 86.5206 22.7496C88.7196 22.9454 90.1652 21.2149 89.4403 19.0983C90.9801 17.9968 90.6738 15.7265 89.2263 14.8484C88.9014 14.6333 88.5338 14.4911 88.149 14.4316C87.7641 14.3721 87.3709 14.3966 86.9964 14.5036C86.6218 14.6105 86.2748 14.7974 85.979 15.0513C85.6831 15.3052 85.4455 15.6202 85.2824 15.9747C83.0289 15.4555 81.1922 17.708 82.2434 19.9105ZM92.4099 33.1056C92.608 32.3111 91.5633 32.1934 91.4192 32.9252C91.2663 33.7085 90.3163 35.0446 89.4161 35.8815L89.7377 36.2292C90.9195 35.3441 92.1558 34.1192 92.4099 33.1056ZM97.6572 19.9825C97.829 19.976 97.9915 19.9031 98.1108 19.779C98.23 19.6549 98.2966 19.4893 98.2966 19.317C98.2966 19.1447 98.23 18.9791 98.1108 18.855C97.9915 18.7309 97.829 18.658 97.6572 18.6515C97.2903 18.6515 96.9957 18.9516 96.9957 19.317C96.9957 19.6848 97.2903 19.9825 97.6572 19.9825ZM107.432 20.5896C107.437 20.3836 107.522 20.1878 107.669 20.0439C107.816 19.9 108.014 19.8195 108.219 19.8195C108.425 19.8195 108.622 19.9 108.769 20.0439C108.916 20.1878 109.001 20.3836 109.006 20.5896C109.007 20.6934 108.987 20.7963 108.947 20.8923C108.908 20.9883 108.85 21.0756 108.777 21.1492C108.704 21.2228 108.617 21.2812 108.521 21.3211C108.426 21.361 108.323 21.3816 108.219 21.3817C107.786 21.3817 107.432 21.0275 107.432 20.5896ZM106.185 34.7866C101.061 34.3922 95.9603 34.7146 95.9603 34.7146L96.3197 33.7734C101.218 33.4168 106.257 33.7734 106.257 33.7734L106.185 34.7866Z" fill="#2463A9"/>
<path fill-rule="evenodd" clip-rule="evenodd" d="M75.224 38.3617C75.224 38.3617 75.5144 38.7505 75.9671 39.2332C76.1205 39.4501 76.2888 39.6052 76.5023 39.8066C77.4416 40.7249 78.8234 41.4133 80.2485 41.6886C80.6536 41.7662 81.014 41.8264 81.4149 41.8264C82.0228 41.8264 82.5827 41.4993 82.9407 41.1782L82.3827 40.5259C82.2027 40.5796 81.8288 40.5796 81.5813 40.5796C79.5147 40.5796 76.8925 39.2239 76.2888 37.6527C76.2277 37.4994 76.1559 37.4139 76.217 37.269C76.2752 37.1246 76.3522 36.8204 76.3946 36.5405C76.5163 36.6802 76.7657 36.89 77.0831 37.0952C77.8533 37.5896 79.3166 38.2733 79.6024 38.4565C80.2019 38.2846 80.7826 38.0524 81.3356 37.7635C81.7654 37.5401 82.3533 37.3391 83.033 37.3391C84.5434 37.3391 86.279 38.2009 87.9092 39.0066L89.0234 38.5687C87.5759 37.5466 84.4292 36.118 82.6778 36.118C81.6466 36.118 80.676 36.8765 79.9856 36.8765C79.1367 36.8765 76.7055 35.6871 76.7055 34.6964C76.7055 33.9337 78.2789 33.5 80.8088 33.1883C80.3675 33.8409 79.9538 34.5118 79.5688 35.1992L80.2126 35.5581C84.1747 29.7964 88.2943 26.0554 91.7613 23.7781C93.0218 22.9496 93.3081 22.4649 93.7468 21.5597C94.8208 19.3572 95.8338 17.6622 97.5965 17.6622C98.4179 17.6622 99.091 18.1272 99.553 18.7006L100.827 19.0843L99.5367 19.9619L100.856 20.49C99.1339 20.9751 96.7816 22.6566 95.8273 25.1231C93.9924 25.2203 93.1076 26.712 92.509 27.9622C92.1035 28.8043 91.4601 29.1403 90.5212 29.7791L83.0181 35.0305L84.0511 35.1749L90.9823 30.5124C92.3515 29.5875 92.9995 28.9057 93.3286 28.2463C93.9701 26.9555 94.6637 25.9966 96.0236 25.9966C96.6921 25.9966 97.4053 26.283 97.9773 26.827L99.195 27.2242L97.8669 28.0388L98.981 28.7276C95.7979 29.7277 93.8279 32.0158 92.6843 36.389L93.5263 36.5788C93.9472 35.1324 94.3658 33.8033 95.1108 32.6294C96.9522 32.6093 98.8193 32.5415 100.649 32.5415C105.534 32.5415 109.59 32.749 111.779 33.3967L111.005 32.0471C108.664 31.6452 105.267 31.44 100.649 31.44C99.1032 31.44 97.5335 31.4961 95.976 31.5143C96.9825 30.4469 98.4277 29.5464 100.656 28.8538L99.0761 27.9804L100.832 27.0009L98.4389 26.1069C98.0202 25.7302 97.5 25.3848 96.8455 25.2175C97.6128 22.8547 100.222 21.4737 102.725 20.5213L100.972 19.8012L102.739 18.831L100.017 17.9594C99.306 17.1201 98.6239 16.7383 97.5746 16.7383C95.0488 16.7383 93.9864 18.9385 92.9869 20.8886C92.4578 21.9177 92.1268 22.3509 91.2308 22.9379C89.2877 24.2128 86.8137 26.1625 84.4506 28.6608C83.2167 27.7677 80.6928 25.1535 80.0112 23.7277C79.7408 24.0637 79.4732 24.7955 79.4732 24.7955C79.7324 25.068 82.7015 28.0809 83.8064 29.3581C83.7229 29.4506 83.6404 29.5431 83.557 29.638C82.3794 29.8726 79.3227 30.1684 78.2821 30.0264L77.6971 31.0671C78.4733 30.9905 81.5128 30.6311 82.7733 30.5568C82.387 31.0273 82.0123 31.5074 81.6498 31.9966C77.7442 32.4434 75.1326 33.2467 75.1326 34.6959C75.1326 34.9352 75.2291 35.2058 75.2291 35.4605C75.2291 36.0675 75.0016 36.2914 74.5718 36.562C74.2926 36.7405 74.2744 36.8625 74.3942 37.0293C75.0422 38.0789 73.0297 38.6 74.432 40.4777L75.6207 40.5497C75.6203 40.5502 74.4609 39.8739 75.224 38.3617ZM73.6833 17.515L73.2963 17.9122C73.8525 18.709 76.3153 20.9209 77.5642 21.7425L78.0234 21.1714C77.2043 20.2054 74.8762 18.1225 73.6833 17.515ZM71.9836 28.6641L72.3481 29.0632C73.287 28.6075 75.0515 27.2985 76.0063 26.3171L75.7433 25.9265C74.6217 26.3961 72.8884 27.6822 71.9836 28.6641Z" fill="#2463A9"/>
<path fill-rule="evenodd" clip-rule="evenodd" d="M126.373 44.9712C126.373 44.8078 126.341 44.646 126.279 44.4949C126.216 44.3439 126.125 44.2067 126.01 44.0911C125.895 43.9755 125.758 43.8837 125.608 43.8211C125.457 43.7585 125.296 43.7263 125.133 43.7262L123.296 43.7253C123.133 43.7256 122.972 43.7581 122.821 43.821C122.67 43.884 122.533 43.9761 122.418 44.092C122.303 44.208 122.212 44.3456 122.15 44.4969C122.088 44.6482 122.056 44.8103 122.056 44.974L122.057 64.2303C122.057 64.3938 122.089 64.5557 122.151 64.7069C122.213 64.858 122.304 64.9954 122.419 65.1111C122.535 65.2268 122.671 65.3187 122.822 65.3813C122.973 65.444 123.134 65.4762 123.297 65.4762H125.134C125.297 65.4758 125.458 65.4433 125.609 65.3804C125.759 65.3175 125.896 65.2254 126.011 65.1096C126.126 64.9937 126.217 64.8563 126.279 64.7051C126.341 64.5539 126.373 64.3919 126.373 64.2284V44.9712ZM128.713 45.4833V46.3988C128.714 46.4891 128.732 46.5783 128.766 46.6616C128.801 46.7448 128.852 46.8204 128.916 46.8839C128.98 46.9475 129.055 46.9978 129.139 47.0321C129.222 47.0663 129.311 47.0838 129.401 47.0835H142.073C142.65 47.0835 143.119 46.6162 143.119 46.0367V44.4861C143.119 43.9075 142.644 43.3827 142.07 43.4392C142.07 43.4392 129.822 44.644 129.427 44.6889C128.97 44.7394 128.713 45.1043 128.713 45.4833ZM118.456 65.4771C115.303 65.4771 113.319 63.0811 113.319 60.4131L113.316 52.7087H112.414C112.3 52.7089 112.186 52.6865 112.081 52.6428C111.975 52.5991 111.879 52.5349 111.798 52.4539C111.717 52.373 111.653 52.2768 111.61 52.171C111.566 52.0652 111.543 51.9517 111.543 51.8372V50.5473C111.543 50.0655 111.935 49.6786 112.415 49.6786L113.316 49.6795L113.314 44.9422C113.314 44.7828 113.345 44.6249 113.406 44.4776C113.467 44.3303 113.556 44.1964 113.668 44.0836C113.78 43.9709 113.914 43.8814 114.06 43.8204C114.207 43.7594 114.365 43.728 114.524 43.7281H116.315C116.636 43.729 116.944 43.8578 117.171 44.086C117.397 44.3143 117.524 44.6234 117.524 44.9455L117.525 49.679H120.317C120.799 49.679 121.191 50.0669 121.191 50.5487V51.8386C121.191 51.953 121.168 52.0663 121.124 52.172C121.08 52.2776 121.016 52.3736 120.935 52.4544C120.855 52.5352 120.759 52.5992 120.653 52.6428C120.547 52.6863 120.434 52.7086 120.32 52.7083H117.525L117.527 59.8351C117.527 61.2342 118.373 62.189 119.885 62.189L120.139 62.1871C120.661 62.1871 121.085 62.6087 121.085 63.1316V64.5317C121.085 64.656 121.061 64.7791 121.013 64.8939C120.966 65.0087 120.896 65.1129 120.808 65.2007C120.721 65.2885 120.616 65.358 120.502 65.4052C120.387 65.4525 120.264 65.4766 120.14 65.4762H118.456V65.4771ZM88.9351 49.1243C83.8393 49.1243 80.9811 53.1223 80.9811 57.3344C80.9811 61.8231 84.0425 65.7762 88.9682 65.7762C92.3396 65.7762 95.663 63.9952 96.291 61.0702C96.3758 60.6758 96.1106 60.1584 95.5558 60.1566H93.1471C92.7098 60.1566 92.3522 60.3664 92.1368 60.6833C91.4478 61.6964 90.4376 62.2357 88.9444 62.2357C86.8345 62.2357 85.3716 60.5692 85.2616 58.7209H95.5069C96.4504 58.7209 96.8718 58.2078 96.8718 57.3334C96.8728 53.2261 94.4472 49.1243 88.9351 49.1243ZM88.9351 52.4213C90.8161 52.4213 92.4399 53.763 92.6044 55.5786H85.2938C85.4579 53.763 87.0541 52.4213 88.9351 52.4213ZM135.619 49.1243C130.524 49.1243 127.666 53.1223 127.666 57.3344C127.666 61.8231 130.728 65.7762 135.653 65.7762C139.024 65.7762 142.348 63.9952 142.976 61.0702C143.061 60.6758 142.796 60.1584 142.241 60.1566H139.832C139.395 60.1566 139.037 60.3664 138.822 60.6833C138.133 61.6964 137.122 62.2357 135.629 62.2357C133.52 62.2357 132.057 60.5692 131.946 58.7209H142.193C143.136 58.7209 143.557 58.2078 143.557 57.3334C143.557 53.2261 141.132 49.1243 135.619 49.1243ZM135.619 52.4213C137.501 52.4213 139.125 53.763 139.29 55.5786H131.978C132.142 53.763 133.738 52.4213 135.619 52.4213Z" fill="white"/>
<path fill-rule="evenodd" clip-rule="evenodd" d="M109.87 43.9425H76.6842C76.505 43.9425 76.3275 43.9779 76.1619 44.0468C75.9963 44.1156 75.8459 44.2165 75.7192 44.3437C75.5926 44.4709 75.4922 44.6218 75.4238 44.7879C75.3554 44.9541 75.3204 45.1321 75.3207 45.3118L75.4349 58.3779C75.4349 58.3779 68.2837 45.4295 67.9107 44.7687C67.5606 44.1472 66.8077 43.5747 65.7658 43.5747H63.0368C62.8574 43.5747 62.6797 43.6102 62.5139 43.679C62.3481 43.7479 62.1975 43.8488 62.0706 43.9761C61.9438 44.1033 61.8432 44.2544 61.7746 44.4206C61.706 44.5869 61.6708 44.765 61.6709 44.9449L61.6723 64.1064C61.6722 64.2862 61.7074 64.4643 61.7759 64.6305C61.8444 64.7966 61.945 64.9477 62.0717 65.0749C62.1985 65.2021 62.349 65.3031 62.5146 65.372C62.6803 65.4409 62.8579 65.4765 63.0373 65.4766H64.7878C65.1503 65.4757 65.4977 65.3306 65.7535 65.073C66.0093 64.8154 66.1526 64.4666 66.1518 64.1031L66.0418 50.6711C66.0418 50.6711 73.262 63.7489 73.5711 64.2639C73.9874 64.9602 74.6923 65.4771 75.7141 65.4771H78.2212C78.4006 65.4769 78.5782 65.4414 78.7438 65.3725C78.9095 65.3035 79.0599 65.2026 79.1866 65.0753C79.3134 64.9481 79.4138 64.7971 79.4823 64.6309C79.5508 64.4647 79.5859 64.2866 79.5857 64.1069L79.5848 47.19L109.872 47.1909C109.995 47.1913 110.116 47.1674 110.229 47.1207C110.342 47.074 110.445 47.0054 110.532 46.9187C110.619 46.8321 110.688 46.7292 110.735 46.6158C110.782 46.5024 110.806 46.3809 110.806 46.2581V44.8762C110.806 44.628 110.707 44.3902 110.531 44.2151C110.356 44.0401 110.118 43.942 109.87 43.9425Z" fill="white"/>
<path fill-rule="evenodd" clip-rule="evenodd" d="M104.499 52.2611C105.943 52.2611 107.021 52.7859 107.41 53.6921C107.597 54.1276 107.958 54.2113 108.455 54.2113H110.439C110.767 54.2113 111.144 53.9286 111.144 53.4986C111.144 51.1867 108.394 49.1221 104.497 49.1221C100.467 49.1221 97.8208 51.0461 97.8208 54.1122C97.8208 56.4573 99.6697 57.8527 101.942 58.4486C102.978 58.7196 104.747 59.158 105.608 59.3851C106.537 59.6286 107.367 59.9137 107.367 60.7105C107.367 61.969 106.044 62.3971 104.599 62.3971C103.229 62.3971 101.866 61.7844 101.475 60.8053C101.249 60.2385 100.852 60.1562 100.251 60.1562H98.2325C97.8805 60.1562 97.4754 60.459 97.4754 60.9194V61.1806C97.4754 63.4186 100.471 65.7628 104.602 65.7628C107.532 65.7628 111.614 64.5416 111.614 60.603C111.614 58.3219 110.092 56.7428 107.614 56.1115C106.646 55.8652 104.317 55.2717 103.81 55.1403C102.907 54.9057 102.064 54.6109 102.064 53.8351C102.064 52.6598 103.148 52.2611 104.499 52.2611Z" fill="white"/>
<path fill-rule="evenodd" clip-rule="evenodd" d="M126.373 44.9712C126.373 44.8078 126.341 44.646 126.279 44.4949C126.216 44.3439 126.125 44.2067 126.01 44.0911C125.895 43.9755 125.758 43.8837 125.608 43.8211C125.457 43.7585 125.296 43.7263 125.133 43.7262L123.296 43.7253C123.133 43.7256 122.972 43.7581 122.821 43.821C122.67 43.884 122.533 43.9761 122.418 44.092C122.303 44.208 122.212 44.3456 122.15 44.4969C122.088 44.6482 122.056 44.8103 122.056 44.974L122.057 64.2303C122.057 64.3938 122.089 64.5557 122.151 64.7069C122.213 64.858 122.304 64.9954 122.419 65.1111C122.535 65.2268 122.671 65.3187 122.822 65.3813C122.973 65.444 123.134 65.4762 123.297 65.4762H125.134C125.297 65.4758 125.458 65.4433 125.609 65.3804C125.759 65.3175 125.896 65.2254 126.011 65.1096C126.126 64.9937 126.217 64.8563 126.279 64.7051C126.341 64.5539 126.373 64.3919 126.373 64.2284V44.9712ZM128.713 45.4833V46.3988C128.714 46.4891 128.732 46.5783 128.766 46.6616C128.801 46.7448 128.852 46.8204 128.916 46.8839C128.98 46.9475 129.055 46.9978 129.139 47.0321C129.222 47.0663 129.311 47.0838 129.401 47.0835H142.073C142.65 47.0835 143.119 46.6162 143.119 46.0367V44.4861C143.119 43.9075 142.644 43.3827 142.07 43.4392C142.07 43.4392 129.822 44.644 129.427 44.6889C128.97 44.7394 128.713 45.1043 128.713 45.4833ZM118.456 65.4771C115.303 65.4771 113.319 63.0811 113.319 60.4131L113.316 52.7087H112.414C112.3 52.7089 112.186 52.6865 112.081 52.6428C111.975 52.5991 111.879 52.5349 111.798 52.4539C111.717 52.373 111.653 52.2768 111.61 52.171C111.566 52.0652 111.543 51.9517 111.543 51.8372V50.5473C111.543 50.0655 111.935 49.6786 112.415 49.6786L113.316 49.6795L113.315 44.9422C113.314 44.7828 113.345 44.6249 113.406 44.4776C113.467 44.3303 113.556 44.1964 113.668 44.0836C113.78 43.9709 113.914 43.8814 114.061 43.8204C114.207 43.7594 114.365 43.728 114.524 43.7281H116.315C116.636 43.729 116.944 43.8578 117.171 44.086C117.397 44.3143 117.524 44.6234 117.524 44.9455L117.525 49.679H120.317C120.799 49.679 121.191 50.0669 121.191 50.5487V51.8386C121.191 51.953 121.168 52.0663 121.124 52.172C121.08 52.2776 121.016 52.3736 120.935 52.4544C120.855 52.5352 120.759 52.5992 120.653 52.6428C120.547 52.6863 120.434 52.7086 120.32 52.7083H117.525L117.527 59.8351C117.527 61.2342 118.373 62.189 119.885 62.189L120.139 62.1871C120.661 62.1871 121.085 62.6087 121.085 63.1316V64.5317C121.085 64.656 121.061 64.7791 121.013 64.8939C120.966 65.0087 120.896 65.1129 120.808 65.2007C120.721 65.2885 120.616 65.358 120.502 65.4052C120.387 65.4525 120.264 65.4766 120.14 65.4762H118.456V65.4771ZM96.8728 57.3334C96.8728 53.2261 94.4472 49.1243 88.9356 49.1243C83.8398 49.1243 80.9816 53.1223 80.9816 57.3344C80.9816 61.8231 84.043 65.7762 88.9687 65.7762C92.3401 65.7762 95.6635 63.9952 96.2915 61.0702C96.3763 60.6758 96.111 60.1584 95.5563 60.1566H93.1475C92.7103 60.1566 92.3527 60.3664 92.1373 60.6833C91.4483 61.6964 90.4381 62.2357 88.9449 62.2357C86.835 62.2357 85.3721 60.5692 85.2621 58.7209H95.5073C96.4509 58.7209 96.8728 58.2078 96.8728 57.3334ZM85.2938 55.5781C85.4584 53.7626 87.0541 52.4209 88.9356 52.4209C90.8166 52.4209 92.4403 53.7626 92.6049 55.5781H85.2938ZM143.557 57.3334C143.557 53.2261 141.132 49.1243 135.62 49.1243C130.524 49.1243 127.666 53.1223 127.666 57.3344C127.666 61.8231 130.728 65.7762 135.653 65.7762C139.025 65.7762 142.348 63.9952 142.977 61.0702C143.061 60.6758 142.796 60.1584 142.242 60.1566H139.833C139.395 60.1566 139.038 60.3664 138.822 60.6833C138.133 61.6964 137.123 62.2357 135.63 62.2357C133.52 62.2357 132.058 60.5692 131.947 58.7209H142.193C143.136 58.7209 143.557 58.2078 143.557 57.3334ZM131.979 55.5781C132.143 53.7626 133.738 52.4209 135.62 52.4209C137.502 52.4209 139.126 53.7626 139.29 55.5781H131.979Z" fill="#2463A9"/>
<path fill-rule="evenodd" clip-rule="evenodd" d="M109.87 43.9425H76.6842C76.505 43.9425 76.3275 43.9779 76.1619 44.0468C75.9963 44.1156 75.8459 44.2165 75.7192 44.3437C75.5926 44.4709 75.4922 44.6218 75.4238 44.7879C75.3554 44.9541 75.3204 45.1321 75.3207 45.3118L75.4349 58.3779C75.4349 58.3779 68.2837 45.4295 67.9107 44.7687C67.5606 44.1472 66.8077 43.5747 65.7658 43.5747H63.0368C62.8574 43.5747 62.6797 43.6102 62.5139 43.679C62.3481 43.7479 62.1975 43.8488 62.0706 43.9761C61.9438 44.1033 61.8432 44.2544 61.7746 44.4206C61.706 44.5869 61.6708 44.765 61.6709 44.9449L61.6723 64.1064C61.6722 64.2862 61.7074 64.4643 61.7759 64.6305C61.8444 64.7966 61.945 64.9477 62.0717 65.0749C62.1985 65.2021 62.349 65.3031 62.5146 65.372C62.6803 65.4409 62.8579 65.4765 63.0373 65.4766H64.7878C65.1503 65.4757 65.4977 65.3306 65.7535 65.073C66.0093 64.8154 66.1526 64.4666 66.1518 64.1031L66.0418 50.6711C66.0418 50.6711 73.262 63.7489 73.5711 64.2639C73.9874 64.9602 74.6923 65.4771 75.7141 65.4771H78.2212C78.4006 65.4769 78.5782 65.4414 78.7438 65.3725C78.9095 65.3035 79.0599 65.2026 79.1866 65.0753C79.3134 64.9481 79.4138 64.7971 79.4823 64.6309C79.5508 64.4647 79.5859 64.2866 79.5857 64.1069L79.5848 47.19L109.872 47.1909C109.995 47.1913 110.116 47.1674 110.229 47.1207C110.342 47.074 110.445 47.0054 110.532 46.9187C110.619 46.8321 110.688 46.7292 110.735 46.6158C110.782 46.5024 110.806 46.3809 110.806 46.2581V44.8762C110.806 44.628 110.707 44.3902 110.531 44.2151C110.356 44.0401 110.118 43.942 109.87 43.9425Z" fill="#2463A9"/>
<path fill-rule="evenodd" clip-rule="evenodd" d="M104.499 52.2611C105.943 52.2611 107.021 52.7859 107.41 53.6921C107.597 54.1276 107.958 54.2113 108.455 54.2113H110.439C110.767 54.2113 111.144 53.9286 111.144 53.4986C111.144 51.1867 108.394 49.1221 104.497 49.1221C100.467 49.1221 97.8208 51.0461 97.8208 54.1122C97.8208 56.4573 99.6697 57.8527 101.942 58.4486C102.978 58.7196 104.747 59.158 105.608 59.3851C106.537 59.6286 107.367 59.9137 107.367 60.7105C107.367 61.969 106.044 62.3971 104.599 62.3971C103.229 62.3971 101.866 61.7844 101.475 60.8053C101.249 60.2385 100.852 60.1562 100.251 60.1562H98.2325C97.8805 60.1562 97.4754 60.459 97.4754 60.9194V61.1806C97.4754 63.4186 100.471 65.7628 104.602 65.7628C107.532 65.7628 111.614 64.5416 111.614 60.603C111.614 58.3219 110.092 56.7428 107.614 56.1115C106.646 55.8652 104.317 55.2717 103.81 55.1403C102.907 54.9057 102.064 54.6109 102.064 53.8351C102.064 52.6598 103.148 52.2611 104.499 52.2611ZM144.981 64.6673H144.531V62.5587H145.317C145.859 62.5587 146.18 62.7139 146.18 63.1957C146.18 63.5836 145.953 63.7243 145.674 63.7453L146.211 64.6673H145.678L145.193 63.7813H144.981V64.6673ZM145.378 63.4242C145.581 63.4242 145.699 63.3822 145.699 63.1485C145.699 62.9312 145.466 62.9158 145.297 62.9158H144.981V63.4242H145.378ZM145.306 65.5735C144.267 65.5735 143.342 64.8533 143.342 63.6149C143.342 62.3774 144.267 61.6573 145.306 61.6573C146.34 61.6573 147.266 62.3774 147.266 63.6149C147.266 64.8533 146.34 65.5735 145.306 65.5735ZM145.306 62.1124C144.531 62.1124 143.905 62.7139 143.905 63.6149C143.905 64.5169 144.531 65.1239 145.306 65.1183V65.1239C146.061 65.1239 146.701 64.5169 146.701 63.6149C146.701 62.7139 146.061 62.1124 145.306 62.1124Z" fill="#2463A9"/>
</svg>
