<svg width="210" height="88" viewBox="0 0 210 88" fill="none" xmlns="http://www.w3.org/2000/svg">
<path d="M63.6753 57.0663C61.9604 57.3595 60.2154 57.4474 58.4102 57.6816L52.9041 41.9786V58.3555C51.1892 58.5313 49.6247 58.7656 48 59V29H52.5734L58.8313 46.0217V29H63.6753V57.0663ZM73.1528 39.9863C75.0183 39.9863 77.8766 39.8984 79.5915 39.8984V44.5858C77.4552 44.5858 74.9581 44.5858 73.1528 44.6737V51.6465C75.9811 51.4708 78.8093 51.2362 81.6674 51.1483V55.6597L68.3388 56.6854V29H81.6674V33.6875H73.1528V39.9863ZM99.5692 33.6876H94.5748V55.2501C92.9501 55.2501 91.3253 55.2501 89.7611 55.3085V33.6876H84.7667V29H99.5694L99.5692 33.6876ZM107.392 39.6642H113.981V44.3516H107.392V54.9864H102.668V29H116.117V33.6875H107.392V39.6642ZM123.94 50.8848C126.678 50.9432 129.446 51.1486 132.123 51.2948V55.9238C127.821 55.66 123.519 55.3966 119.126 55.3085V29H123.94V50.8848ZM136.185 56.2461C137.72 56.3341 139.344 56.422 140.909 56.5975V29H136.185V56.2461ZM162 29L155.892 43.2676L162 59C160.195 58.7656 158.389 58.4433 156.584 58.1503L153.124 49.4786L149.604 57.4474C147.859 57.1542 146.174 57.0663 144.429 56.8319L150.627 43.0917L145.031 29H150.206L153.365 36.8809L156.735 29L162 29Z" fill="#D81F26"/>
</svg>
