<svg width="210" height="88" viewBox="0 0 210 88" fill="none" xmlns="http://www.w3.org/2000/svg">
<path d="M101.619 39.0465C101.619 44.6994 99.2572 48.2444 94.7644 48.2444C93.1045 48.2444 91.5812 47.4391 90.4695 45.9971V53.1332H85.877C85.6053 53.1333 85.3362 53.0796 85.0852 52.9754C84.8342 52.8711 84.6061 52.7183 84.4139 52.5256C84.2218 52.3328 84.0694 52.104 83.9654 51.8522C83.8614 51.6004 83.8079 51.3306 83.8079 51.058V43.9833C81.6868 46.3537 79.4241 47.4189 76.5246 47.9458C70.9952 48.9508 67.6485 46.1986 66.8315 45.3782C66.3352 44.8799 65.9386 44.252 65.5174 43.5851C64.2904 41.6415 64.7381 39.1966 64.8718 37.9936C65.2105 34.9495 68.0811 31.8911 72.5571 31.521C73.1072 31.475 73.6594 31.4593 74.2112 31.474C77.998 31.5795 81.1683 33.1905 81.4282 36.3548C81.7656 40.4632 77.9138 41.8223 74.8684 42.0738C74.0825 42.139 72.3902 42.0965 71.3582 41.9098C71.3582 41.9098 72.0759 44.2571 76.2165 43.6835C77.4858 43.5073 83.8079 41.8963 83.8079 36.4171V31.889H88.1556C88.7027 31.8894 89.2319 32.0842 89.6493 32.4389C90.0668 32.7935 90.3455 33.2851 90.436 33.8263C91.4961 32.3818 92.98 31.4672 94.7644 31.4672C98.9768 31.4672 101.619 35.0117 101.619 39.0465ZM71.0241 38.6411C71.686 38.7871 72.6837 38.9027 74.2472 38.6538C75.0076 38.5331 76.5435 38.0453 76.5435 36.9629C76.5435 36.2901 76.0489 35.6353 74.3302 35.6353C72.4334 35.6353 71.0241 36.8022 71.0241 38.6411ZM90.2792 39.7828C90.2792 42.1028 91.2664 43.8328 92.6467 43.8328C94.0275 43.8328 94.9619 42.1028 94.9619 39.7833C94.9619 37.1912 94.0271 35.6622 92.6467 35.6622C91.2664 35.6622 90.2792 37.3468 90.2792 39.7833M154.535 31.5543C159.623 31.5543 163.747 35.0151 163.747 39.896C163.747 44.5031 159.797 48.2128 154.561 48.2128C150.697 48.2128 147.59 46.3138 146.225 43.2886C144.561 45.5897 141.962 47.4471 139.22 47.9454C133.69 48.9504 130.344 46.1982 129.527 45.3777C129.03 44.8794 128.634 44.2516 128.213 43.5847C126.986 41.6411 127.433 39.1962 127.567 37.9931C127.906 34.9491 130.528 32.0278 135.004 31.6577C135.554 31.6182 136.354 31.5913 136.906 31.6106C140.693 31.7157 143.466 33.4491 143.466 36.3544C143.466 37.5289 142.202 38.6222 141.301 38.6222H139.294C138.913 38.6222 138.866 38.3846 138.866 38.229C138.866 36.7724 138.017 35.6349 136.902 35.6349C135.102 35.6349 134.13 37.2236 134.042 38.8867C133.892 41.7311 134.999 44.1692 139.139 43.5952C140.327 43.4303 143.922 42.2353 145.747 37.5777C145.838 37.2413 145.953 36.917 146.086 36.6029L146.097 36.5697L146.099 36.5727C147.408 33.521 150.645 31.5538 154.535 31.5538V31.5543ZM152.248 39.8888C152.248 42.2584 153.113 43.8811 154.576 43.8811C156.039 43.8811 156.867 42.258 156.867 39.8884C156.867 37.2413 156.039 35.8431 154.576 35.8431C153.113 35.8431 152.248 37.4002 152.248 39.8888ZM63.533 39.0465C63.533 44.6994 61.1709 48.2444 56.6781 48.2444C55.0181 48.2444 53.4944 47.4391 52.3832 45.9971V53.1332H47.7902C47.2416 53.1332 46.7155 52.9146 46.3276 52.5256C45.9397 52.1365 45.7217 51.6087 45.7216 51.0584V31.8886H50.0689C50.6159 31.889 51.1451 32.0838 51.5626 32.4384C51.98 32.7931 52.2587 33.2846 52.3492 33.8259C53.4097 32.3814 54.8936 31.4668 56.6781 31.4668C60.8904 31.4668 63.5325 35.0117 63.5325 39.0465M52.192 39.7824C52.192 42.1024 53.1796 43.8324 54.56 43.8324C55.9403 43.8324 56.8751 42.1024 56.8751 39.7828C56.8751 37.1908 55.9403 35.6618 54.56 35.6618C53.1796 35.6618 52.192 37.346 52.192 39.7824ZM123.751 31.8886C124.055 31.8886 124.356 31.9486 124.637 32.0653C124.918 32.182 125.173 32.353 125.387 32.5686C125.602 32.7842 125.773 33.0401 125.889 33.3218C126.005 33.6035 126.065 33.9054 126.065 34.2102V47.7149H121.472C120.924 47.7149 120.397 47.4963 120.009 47.1073C119.622 46.7182 119.404 46.1904 119.403 45.6401V31.8886H123.751ZM110.442 44.059C111.279 43.9068 111.627 42.7092 110.258 42.3412C106.428 41.3644 102.606 40.3177 102.606 36.7833C102.606 31.1094 111.711 30.8137 114.647 32.1199C115.899 32.6846 116.622 33.0593 117.072 34.0466C117.621 35.2493 116.909 36.9679 115.857 37.6058C114.028 35.859 110.916 35.616 110.093 35.8233C109.328 36.0445 108.988 36.6307 109.595 37.0861C110.93 38.0402 113.887 37.5373 116.363 39.6361C118.081 41.1697 118.386 43.4993 116.821 45.6956C115.35 47.7604 107.907 50.024 101.8 46.006L103.762 42.2643C106.271 44.0725 108.191 44.4539 110.442 44.0586" fill="#03345A"/>
<path d="M80.5426 57.4746V60.4973C80.0861 59.7997 79.4224 59.4509 78.5515 59.4509C77.8141 59.4509 77.1855 59.7221 76.6658 60.2646C76.1461 60.8 75.8861 61.4552 75.886 62.23C75.886 63.0051 76.146 63.6639 76.6658 64.2063C77.1855 64.7419 77.8141 65.0096 78.5515 65.0096C79.4224 65.0096 80.0861 64.6608 80.5426 63.9632V64.8723H81.4589V57.4746H80.5426ZM78.6672 60.3386C79.201 60.3386 79.6471 60.5218 80.0054 60.8881C80.3635 61.2473 80.5426 61.6946 80.5426 62.23C80.5426 62.7656 80.3635 63.2165 80.0054 63.5828C79.6471 63.9421 79.201 64.1218 78.6672 64.1218C78.1406 64.1218 77.6981 63.9421 77.3399 63.5828C76.9817 63.2164 76.8026 62.7655 76.8026 62.23C76.8026 61.6946 76.9817 61.2473 77.3399 60.8881C77.698 60.5218 78.1404 60.3386 78.6672 60.3386ZM72.3759 59.4509C71.6033 59.4509 70.9466 59.7186 70.4059 60.2541C69.8722 60.7896 69.6054 61.4483 69.6054 62.23C69.6054 63.0121 69.8722 63.6709 70.4059 64.2063C70.9466 64.7419 71.6033 65.0096 72.3759 65.0096C73.1485 65.0096 73.8052 64.7419 74.346 64.2063C74.8867 63.671 75.1571 63.0122 75.1571 62.23C75.1571 61.4482 74.8867 60.7895 74.346 60.2541C73.8052 59.7186 73.1486 59.4509 72.3759 59.4509ZM72.3758 60.3492C72.9025 60.3492 73.345 60.5288 73.7032 60.8881C74.0614 61.2473 74.2404 61.6946 74.2403 62.23C74.2403 62.7656 74.0613 63.213 73.7031 63.5724C73.3449 63.9318 72.9025 64.1115 72.3758 64.1114C71.8561 64.1114 71.4173 63.9317 71.0591 63.5724C70.7009 63.2131 70.5219 62.7657 70.5219 62.23C70.5219 61.6944 70.7009 61.2471 71.0591 60.8881C71.4173 60.5288 71.856 60.3492 72.3758 60.3492ZM66.0953 59.4509C65.3228 59.4509 64.6661 59.7186 64.1252 60.2541C63.5914 60.7896 63.3245 61.4483 63.3245 62.23C63.3245 63.0121 63.5914 63.6709 64.1252 64.2063C64.6661 64.7419 65.3228 65.0096 66.0953 65.0096C66.8678 65.0096 67.5244 64.7419 68.065 64.2063C68.6058 63.671 68.8761 63.0122 68.8761 62.23C68.8761 61.4482 68.6058 60.7895 68.065 60.2541C67.5244 59.7186 66.8678 59.4509 66.0953 59.4509ZM66.0953 60.3492C66.622 60.3492 67.0645 60.5288 67.4228 60.8881C67.7809 61.2473 67.96 61.6946 67.96 62.23C67.96 62.7656 67.7809 63.213 67.4226 63.5724C67.0643 63.9318 66.6219 64.1115 66.0953 64.1114C65.5756 64.1114 65.1366 63.9317 64.7785 63.5724C64.4203 63.2131 64.2412 62.7657 64.2411 62.23C64.241 61.6944 64.4201 61.2471 64.7785 60.8881C65.1366 60.5288 65.5756 60.3492 66.0953 60.3492ZM62.585 58.4045H59.3193V60.8036H62.448V61.7336H59.3193V64.8722H58.3395V57.4746H62.585V58.4045Z" fill="#03345A"/>
<path d="M88.0464 57.4746V64.8723H90.9222C91.9266 64.8723 92.7588 64.5166 93.419 63.8051C94.0862 63.0864 94.4198 62.2093 94.4198 61.1736C94.4198 60.1379 94.0862 59.2642 93.419 58.5527C92.7587 57.8341 91.9265 57.4747 90.9222 57.4746H88.0464ZM89.0259 58.4048H90.9222C91.6737 58.4048 92.2882 58.669 92.7659 59.1973C93.2434 59.7257 93.4822 60.3844 93.4822 61.1736C93.4822 61.9625 93.2434 62.6211 92.7659 63.1495C92.2883 63.678 91.6738 63.9423 90.9222 63.9424H89.0259V58.4048ZM83.3679 64.9885C83.1783 64.9885 83.0167 64.9216 82.8832 64.7876C82.7498 64.6538 82.6831 64.4917 82.6831 64.3014C82.6831 64.1113 82.7498 63.9493 82.8832 63.8154C83.0167 63.6816 83.1783 63.6146 83.3679 63.6146C83.5645 63.6146 83.726 63.6816 83.8525 63.8154C83.9859 63.9493 84.0527 64.1114 84.0527 64.3016C84.0527 64.4918 83.9859 64.6539 83.8525 64.7878C83.726 64.9216 83.5645 64.9885 83.3679 64.9885Z" fill="#03345A"/>
<path d="M99.3276 57.3906C99.152 57.3906 99.0045 57.454 98.885 57.5808C98.8272 57.6369 98.7815 57.7044 98.7508 57.7789C98.72 57.8534 98.7048 57.9335 98.7061 58.0141C98.7059 58.1832 98.7656 58.3277 98.885 58.4474C99.0044 58.5672 99.1519 58.6271 99.3276 58.6272C99.4961 58.6272 99.6401 58.5673 99.7595 58.4474C99.8173 58.3913 99.8629 58.3239 99.8937 58.2494C99.9245 58.1748 99.9397 58.0948 99.9384 58.0141C99.9385 57.8451 99.8789 57.7007 99.7595 57.5808C99.6401 57.454 99.4961 57.3906 99.3276 57.3906ZM98.8638 59.5888V64.8728H99.7804V59.5888H98.8638ZM96.4167 60.4765C96.7186 59.8213 97.2663 59.4937 98.06 59.4937V60.4554C97.6105 60.4343 97.2242 60.554 96.9012 60.8147C96.5781 61.0754 96.4166 61.4946 96.4166 62.0722V64.8728H95.5001V59.5888H96.4166L96.4167 60.4765Z" fill="#03345A"/>
<path d="M103.713 59.4512C104.331 59.4512 104.827 59.6484 105.199 60.0429C105.571 60.4304 105.757 60.9588 105.757 61.6281V64.8725H104.841V61.681C104.841 61.2512 104.725 60.9201 104.493 60.6876C104.261 60.4481 103.942 60.3283 103.534 60.3283C103.078 60.3283 102.709 60.4727 102.428 60.7616C102.147 61.0433 102.007 61.4801 102.007 62.0719V64.8725H101.09V59.5885H102.007V60.3494C102.379 59.7506 102.948 59.4512 103.713 59.4512Z" fill="#03345A"/>
<path d="M117.458 64.9885C117.268 64.9885 117.107 64.9216 116.973 64.7876C116.84 64.6538 116.773 64.4917 116.773 64.3014C116.773 64.1113 116.84 63.9493 116.973 63.8154C117.107 63.6816 117.268 63.6146 117.458 63.6146C117.654 63.6146 117.816 63.6816 117.942 63.8154C118.076 63.9493 118.143 64.1114 118.143 64.3016C118.143 64.4918 118.076 64.6539 117.942 64.7878C117.816 64.9216 117.654 64.9885 117.458 64.9885M112.837 61.0148C112.837 61.2192 112.939 61.3848 113.143 61.5118C113.347 61.6314 113.593 61.73 113.881 61.8074C114.168 61.878 114.456 61.9626 114.744 62.0613C115.032 62.1528 115.278 62.3148 115.482 62.5473C115.685 62.7728 115.787 63.0651 115.787 63.4244C115.787 63.9035 115.601 64.2875 115.229 64.5763C114.864 64.8652 114.393 65.0096 113.817 65.0096C113.305 65.0096 112.866 64.8969 112.5 64.6714C112.135 64.446 111.875 64.1466 111.721 63.7732L112.511 63.3188C112.595 63.5724 112.753 63.7732 112.985 63.9212C113.217 64.0691 113.494 64.143 113.817 64.143C114.119 64.143 114.369 64.0867 114.565 63.9739C114.762 63.8542 114.86 63.671 114.86 63.4244C114.86 63.2201 114.758 63.058 114.555 62.9382C114.351 62.8114 114.105 62.7128 113.817 62.6424C113.529 62.5649 113.241 62.4769 112.953 62.3782C112.665 62.2795 112.42 62.1175 112.216 61.892C112.012 61.6665 111.911 61.3777 111.91 61.0256C111.91 60.5676 112.086 60.1907 112.437 59.8948C112.795 59.5989 113.241 59.4509 113.775 59.4509C114.204 59.4509 114.583 59.5495 114.913 59.7468C115.25 59.937 115.503 60.2047 115.671 60.5499L114.902 60.9832C114.713 60.5323 114.337 60.3068 113.775 60.3068C113.515 60.3068 113.294 60.3703 113.111 60.4972C112.929 60.6169 112.838 60.7895 112.838 61.0148M111.473 64.8722H110.335L107.933 62.3676V64.8722H107.016V57.4746H107.933V61.9238L110.208 59.5882H111.388L108.871 62.1456L111.473 64.8722Z" fill="#03345A"/>
<path d="M152.867 64.9886C152.678 64.9886 152.516 64.9216 152.383 64.7877C152.249 64.654 152.183 64.4919 152.183 64.3015C152.183 64.1114 152.249 63.9494 152.383 63.8154C152.516 63.6816 152.678 63.6147 152.867 63.6147C153.064 63.6147 153.226 63.6816 153.352 63.8154C153.485 63.9494 153.552 64.1114 153.552 64.3016C153.552 64.4918 153.485 64.6539 153.352 64.7878C153.226 64.9217 153.064 64.9886 152.867 64.9886ZM148.369 61.0149C148.369 61.2193 148.471 61.3849 148.675 61.5118C148.878 61.6315 149.124 61.73 149.412 61.8075C149.704 61.8791 149.992 61.9638 150.276 62.0613C150.564 62.1527 150.81 62.3147 151.013 62.5473C151.217 62.7727 151.319 63.0651 151.319 63.4245C151.319 63.9036 151.133 64.2875 150.76 64.5764C150.395 64.8652 149.925 65.0095 149.349 65.0095C148.836 65.0095 148.397 64.8968 148.032 64.6713C147.667 64.4459 147.407 64.1465 147.252 63.7731L148.043 63.3187C148.127 63.5722 148.285 63.773 148.517 63.9211C148.748 64.0689 149.026 64.1428 149.349 64.1429C149.651 64.1429 149.9 64.0866 150.097 63.9738C150.293 63.8541 150.392 63.6709 150.392 63.4243C150.392 63.22 150.29 63.0579 150.086 62.9381C149.883 62.8113 149.637 62.7127 149.349 62.6423C149.058 62.5639 148.77 62.4758 148.485 62.3781C148.202 62.2824 147.948 62.1149 147.748 61.8919C147.544 61.6665 147.442 61.3777 147.442 61.0255C147.442 60.5675 147.618 60.1906 147.969 59.8947C148.327 59.5987 148.773 59.4507 149.307 59.4508C149.735 59.4508 150.114 59.5494 150.444 59.7467C150.782 59.9369 151.034 60.2046 151.203 60.5498L150.434 60.9831C150.244 60.5322 149.868 60.3067 149.307 60.3067C149.047 60.3067 148.826 60.3702 148.643 60.4971C148.46 60.6168 148.369 60.7895 148.369 61.0149ZM144.037 59.451C143.222 59.451 142.559 59.7151 142.046 60.2434C141.533 60.7718 141.277 61.434 141.277 62.2301C141.277 63.0333 141.537 63.6991 142.057 64.2276C142.583 64.7489 143.264 65.0095 144.1 65.0095C145.133 65.0095 145.905 64.6115 146.418 63.8154L145.638 63.3716C145.322 63.8858 144.817 64.1429 144.121 64.1429C143.623 64.1429 143.201 64.0126 142.857 63.752C142.52 63.4913 142.306 63.1248 142.215 62.6527H146.629C146.65 62.512 146.66 62.3747 146.66 62.2408C146.66 61.4728 146.414 60.8175 145.923 60.2749C145.438 59.7255 144.81 59.4508 144.037 59.4508M144.037 60.3174C144.459 60.3174 144.827 60.4477 145.143 60.7082C145.459 60.9688 145.656 61.3493 145.733 61.8495H142.215C142.292 61.3846 142.492 61.0149 142.815 60.7402C143.138 60.4583 143.546 60.3174 144.037 60.3174M139.331 64.8722V57.1577H140.247V64.8722H139.331ZM137.477 57.3901C137.301 57.3901 137.153 57.4535 137.034 57.5803C136.976 57.6364 136.931 57.7039 136.9 57.7784C136.869 57.8529 136.854 57.933 136.855 58.0136C136.855 58.1827 136.915 58.3271 137.034 58.4469C137.153 58.5668 137.301 58.6267 137.477 58.6267C137.645 58.6267 137.789 58.5668 137.909 58.4469C137.966 58.3908 138.012 58.3234 138.043 58.2488C138.073 58.1743 138.089 58.0943 138.087 58.0136C138.087 57.8446 138.028 57.7002 137.909 57.5803C137.789 57.4535 137.645 57.3901 137.477 57.3901ZM137.013 59.5883V64.8722H137.929V59.5883H137.013ZM133.758 59.451C134.348 59.451 134.825 59.6447 135.19 60.0321C135.556 60.4127 135.738 60.9305 135.738 61.5855V64.8722H134.822V61.6173C134.822 61.2087 134.716 60.8917 134.506 60.6663C134.295 60.4408 134.014 60.3281 133.663 60.3281C133.27 60.3281 132.954 60.4619 132.715 60.7296C132.483 60.9903 132.367 61.3919 132.367 61.9344V64.8722H131.451V61.6173C131.451 61.2087 131.349 60.8917 131.145 60.6663C130.949 60.4408 130.678 60.3281 130.334 60.3281C129.948 60.3281 129.625 60.4619 129.365 60.7296C129.112 60.9974 128.986 61.399 128.986 61.9344V64.8722H128.069V59.5883H128.986V60.2963C129.344 59.7326 129.867 59.4508 130.555 59.4508C131.264 59.4509 131.781 59.7504 132.104 60.3492C132.469 59.7504 133.02 59.451 133.758 59.451ZM124.456 65.0095C123.768 65.0095 123.178 64.8475 122.686 64.5235C122.201 64.1994 121.861 63.7555 121.664 63.1919L122.507 62.7057C122.795 63.6007 123.451 64.0481 124.477 64.048C124.983 64.048 125.369 63.9458 125.636 63.7414C125.903 63.5301 126.036 63.2519 126.036 62.9066C126.036 62.5544 125.903 62.2902 125.636 62.1141C125.369 61.9379 124.923 61.7512 124.298 61.554C124.062 61.4794 123.826 61.4019 123.592 61.3215C123.43 61.258 123.227 61.1664 122.981 61.0467C122.742 60.9198 122.563 60.793 122.444 60.6663C122.324 60.5324 122.215 60.3598 122.117 60.1485C122.026 59.937 121.98 59.6974 121.98 59.4299C121.98 58.7886 122.205 58.2813 122.654 57.908C123.104 57.5276 123.652 57.3374 124.298 57.3374C124.881 57.3374 125.386 57.4853 125.815 57.7812C126.25 58.0771 126.577 58.4681 126.794 58.9542L125.973 59.4297C125.657 58.6689 125.098 58.2885 124.298 58.2885C123.897 58.2885 123.574 58.3871 123.328 58.5844C123.083 58.7816 122.96 59.0493 122.96 59.3875C122.96 59.7116 123.076 59.9582 123.307 60.1272C123.539 60.2963 123.94 60.4724 124.508 60.6556C124.712 60.7191 124.856 60.7649 124.94 60.7931C125.025 60.8212 125.155 60.8705 125.33 60.9411C125.513 61.0115 125.646 61.0679 125.73 61.1102C125.815 61.1524 125.927 61.2122 126.068 61.2898C126.215 61.3673 126.324 61.4412 126.394 61.5117C126.464 61.582 126.545 61.6701 126.637 61.7759C126.735 61.8744 126.805 61.9766 126.847 62.0824C126.889 62.1879 126.924 62.3112 126.952 62.4522C126.988 62.5861 127.005 62.7305 127.005 62.8855C127.005 63.5337 126.77 64.0515 126.299 64.4389C125.829 64.8194 125.214 65.0097 124.456 65.0097" fill="#03345A"/>
</svg>
