<svg viewBox="0 0 40 40" fill="none" xmlns="http://www.w3.org/2000/svg">
<path d="M0 12C0 5.37258 5.37258 0 12 0H28C34.6274 0 40 5.37258 40 12V28C40 34.6274 34.6274 40 28 40H12C5.37258 40 0 34.6274 0 28V12Z" fill="#1F5DE2" fill-opacity="0.08"/>
<path d="M19.75 27H19.5C17.1333 27 15.125 26.175 13.475 24.525C11.825 22.875 11 20.8667 11 18.5C11 16.1333 11.825 14.125 13.475 12.475C15.125 10.825 17.1333 10 19.5 10C20.6833 10 21.7833 10.225 22.8 10.675C23.8333 11.1083 24.7333 11.7167 25.5 12.5C26.2833 13.2667 26.8917 14.1667 27.325 15.2C27.775 16.2167 28 17.3167 28 18.5C28 20.7333 27.3667 22.8083 26.1 24.725C24.85 26.6417 23.2667 28.1417 21.35 29.225C21.1833 29.3083 21.0167 29.3583 20.85 29.375C20.6833 29.375 20.5333 29.3333 20.4 29.25C20.2667 29.1667 20.15 29.0583 20.05 28.925C19.95 28.7917 19.8917 28.6333 19.875 28.45L19.75 27ZM22 26.35C23.1833 25.35 24.1417 24.1833 24.875 22.85C25.625 21.5 26 20.05 26 18.5C26 16.6833 25.3667 15.15 24.1 13.9C22.85 12.6333 21.3167 12 19.5 12C17.6833 12 16.1417 12.6333 14.875 13.9C13.625 15.15 13 16.6833 13 18.5C13 20.3167 13.625 21.8583 14.875 23.125C16.1417 24.375 17.6833 25 19.5 25H22V26.35ZM19.475 23.975C19.7583 23.975 20 23.875 20.2 23.675C20.4 23.475 20.5 23.2333 20.5 22.95C20.5 22.6667 20.4 22.425 20.2 22.225C20 22.025 19.7583 21.925 19.475 21.925C19.1917 21.925 18.95 22.025 18.75 22.225C18.55 22.425 18.45 22.6667 18.45 22.95C18.45 23.2333 18.55 23.475 18.75 23.675C18.95 23.875 19.1917 23.975 19.475 23.975ZM17.3 16.375C17.4833 16.4583 17.6667 16.4667 17.85 16.4C18.0333 16.3167 18.1833 16.1917 18.3 16.025C18.45 15.825 18.625 15.675 18.825 15.575C19.025 15.4583 19.25 15.4 19.5 15.4C19.9 15.4 20.225 15.5167 20.475 15.75C20.725 15.9667 20.85 16.25 20.85 16.6C20.85 16.8167 20.7833 17.0333 20.65 17.25C20.5333 17.4667 20.3167 17.7333 20 18.05C19.5833 18.4167 19.275 18.7667 19.075 19.1C18.875 19.4167 18.775 19.7417 18.775 20.075C18.775 20.275 18.8417 20.45 18.975 20.6C19.125 20.7333 19.3 20.8 19.5 20.8C19.7 20.8 19.8667 20.725 20 20.575C20.1333 20.425 20.2333 20.25 20.3 20.05C20.3833 19.7667 20.5333 19.5083 20.75 19.275C20.9667 19.0417 21.1667 18.8333 21.35 18.65C21.7 18.3 21.9583 17.95 22.125 17.6C22.3083 17.25 22.4 16.9 22.4 16.55C22.4 15.7833 22.1333 15.1667 21.6 14.7C21.0833 14.2333 20.3833 14 19.5 14C18.9667 14 18.475 14.1333 18.025 14.4C17.575 14.65 17.2083 15 16.925 15.45C16.825 15.6333 16.8083 15.8167 16.875 16C16.9583 16.1667 17.1 16.2917 17.3 16.375Z" fill="black" fill-opacity="0.48"/>
</svg>
