<svg width="255" height="558" viewBox="0 0 255 558" fill="none" xmlns="http://www.w3.org/2000/svg">
<path style="mix-blend-mode:multiply" opacity="0.6" d="M146.311 0L0.414429 558C58.6447 508.605 113.52 412.968 143.991 296.453C174.462 179.938 173.204 70.4364 146.311 0Z" fill="url(#paint0_radial_27482_3450)"/>
<path d="M254.385 77.0703L229.198 178.851H99.5425L126.184 77.0703H254.385Z" fill="#1F5DE2"/>
<g style="mix-blend-mode:multiply">
<path d="M127.358 283.912C122.046 280.732 117.881 276.083 114.862 269.993C111.87 263.904 110.361 256.673 110.361 248.327C110.361 239.981 111.87 232.75 114.862 226.66C117.853 220.571 122.018 215.922 127.358 212.742C132.669 209.561 138.763 207.984 145.584 207.984C152.405 207.984 158.388 209.561 163.699 212.742C169.01 215.922 173.176 220.571 176.167 226.66C179.158 232.75 180.668 239.981 180.668 248.327C180.668 256.673 179.158 263.904 176.167 269.993C173.176 276.083 169.01 280.732 163.699 283.912C158.388 287.093 152.349 288.67 145.584 288.67C138.819 288.67 132.669 287.093 127.358 283.912ZM154.67 265.345C156.906 261.756 158.024 256.102 158.024 248.327C158.024 240.552 156.906 234.898 154.67 231.309C152.433 227.721 149.414 225.926 145.612 225.926C141.81 225.926 138.679 227.721 136.443 231.309C134.207 234.898 133.088 240.579 133.088 248.327C133.088 256.075 134.207 261.756 136.443 265.345C138.679 268.933 141.754 270.727 145.612 270.727C149.47 270.727 152.433 268.933 154.67 265.345Z" fill="#1F5DE2" fill-opacity="0.2"/>
<path d="M246.893 248.484C250.415 252.425 252.205 257.21 252.205 262.837C252.205 267.432 250.947 271.672 248.375 275.587C245.831 279.502 241.945 282.655 236.745 285.075C231.546 287.467 225.088 288.69 217.429 288.69C211.81 288.69 206.247 288.038 200.739 286.706C195.232 285.374 190.452 283.498 186.427 281.051L194.645 264.523C197.748 266.589 201.271 268.193 205.184 269.28C209.098 270.395 212.956 270.938 216.758 270.938C220.56 270.938 223.718 270.232 225.983 268.845C228.275 267.432 229.393 265.447 229.393 262.865C229.393 257.835 225.34 255.334 217.205 255.334H207.756V241.47L222.013 226.518H190.564V209.555H248.235V223.31L231.714 240.6C238.339 241.932 243.399 244.569 246.921 248.538L246.893 248.484Z" fill="#1F5DE2" fill-opacity="0.2"/>
</g>
<path d="M159.75 149C159.244 149 158.817 148.844 158.467 148.533C158.156 148.183 158 147.756 158 147.25V142.992C158 142.525 158.097 142.078 158.292 141.65C158.486 141.183 158.739 140.794 159.05 140.483L191.308 108.225C191.736 107.797 192.164 107.486 192.592 107.292C193.058 107.097 193.544 107 194.05 107C194.517 107 194.964 107.097 195.392 107.292C195.858 107.486 196.306 107.797 196.733 108.225L198.775 110.267C199.203 110.656 199.514 111.083 199.708 111.55C199.903 111.978 200 112.444 200 112.95C200 113.417 199.903 113.883 199.708 114.35C199.514 114.817 199.203 115.264 198.775 115.692L166.517 147.95C166.206 148.261 165.817 148.514 165.35 148.708C164.922 148.903 164.475 149 164.008 149H159.75ZM192.592 116.975L196.558 113.008L193.992 110.442L190.025 114.408L192.592 116.975ZM181.333 149C184.367 149 187.069 148.3 189.442 146.9C191.814 145.461 193 143.439 193 140.833C193 139.433 192.533 138.15 191.6 136.983C190.667 135.817 189.228 134.806 187.283 133.95C186.856 133.756 186.389 133.678 185.883 133.717C185.417 133.756 185.047 133.989 184.775 134.417C184.503 134.844 184.406 135.311 184.483 135.817C184.6 136.322 184.872 136.672 185.3 136.867C186.583 137.45 187.594 138.092 188.333 138.792C189.111 139.453 189.5 140.133 189.5 140.833C189.5 142.078 188.703 143.167 187.108 144.1C185.553 145.033 183.628 145.5 181.333 145.5C180.867 145.5 180.458 145.675 180.108 146.025C179.758 146.336 179.583 146.744 179.583 147.25C179.583 147.717 179.758 148.125 180.108 148.475C180.458 148.825 180.867 149 181.333 149ZM170.25 114.058C170.25 114.836 169.881 115.517 169.142 116.1C168.403 116.683 166.75 117.442 164.183 118.375C160.528 119.697 158.194 120.903 157.183 121.992C156.172 123.081 155.667 124.306 155.667 125.667C155.667 127.144 156.192 128.331 157.242 129.225C158.292 130.119 159.458 130.8 160.742 131.267C161.208 131.461 161.656 131.461 162.083 131.267C162.511 131.033 162.803 130.683 162.958 130.217C163.114 129.75 163.094 129.322 162.9 128.933C162.706 128.506 162.375 128.194 161.908 128C161.014 127.65 160.333 127.281 159.867 126.892C159.4 126.503 159.167 126.094 159.167 125.667C159.167 125.044 159.575 124.461 160.392 123.917C161.247 123.333 162.978 122.556 165.583 121.583C168.811 120.378 170.969 119.231 172.058 118.142C173.186 117.014 173.75 115.653 173.75 114.058C173.75 111.881 172.953 110.169 171.358 108.925C169.764 107.642 167.644 107 165 107C163.367 107 161.889 107.292 160.567 107.875C159.244 108.419 158.253 109.119 157.592 109.975C157.281 110.325 157.125 110.733 157.125 111.2C157.164 111.667 157.397 112.056 157.825 112.367C158.214 112.678 158.642 112.814 159.108 112.775C159.614 112.697 160.022 112.503 160.333 112.192C160.917 111.608 161.578 111.181 162.317 110.908C163.056 110.636 163.95 110.5 165 110.5C166.789 110.5 168.111 110.85 168.967 111.55C169.822 112.25 170.25 113.086 170.25 114.058Z" fill="white"/>
<defs>
<radialGradient id="paint0_radial_27482_3450" cx="0" cy="0" r="1" gradientUnits="userSpaceOnUse" gradientTransform="translate(-11.2903 251.672) rotate(13.8826) scale(162.681 346.181)">
<stop offset="0.225962" stop-color="#3758F9" stop-opacity="0.7"/>
<stop offset="0.673077" stop-color="#1F5DE2" stop-opacity="0.16"/>
<stop offset="0.841346" stop-color="#1F5DE2" stop-opacity="0.04"/>
<stop offset="1" stop-color="#1F5DE2" stop-opacity="0"/>
</radialGradient>
</defs>
</svg>
