<svg width="268" height="558" viewBox="0 0 268 558" fill="none" xmlns="http://www.w3.org/2000/svg">
<path style="mix-blend-mode:multiply" opacity="0.6" d="M146.761 0L0.86377 558C59.094 508.605 113.97 412.968 144.441 296.453C174.912 179.938 173.654 70.4364 146.761 0Z" fill="url(#paint0_radial_27482_3460)"/>
<path d="M255.28 77.0703L230.093 178.851H100.41L127.051 77.0703H255.28Z" fill="#1F5DE2"/>
<g style="mix-blend-mode:multiply">
<path d="M128.253 283.912C122.941 280.732 118.776 276.083 115.757 269.993C112.766 263.904 111.256 256.673 111.256 248.327C111.256 239.981 112.766 232.75 115.757 226.66C118.748 220.571 122.913 215.922 128.253 212.742C133.564 209.561 139.658 207.984 146.479 207.984C153.3 207.984 159.283 209.561 164.594 212.742C169.906 215.922 174.071 220.571 177.062 226.66C180.053 232.75 181.563 239.981 181.563 248.327C181.563 256.673 180.053 263.904 177.062 269.993C174.071 276.083 169.906 280.732 164.594 283.912C159.283 287.093 153.245 288.67 146.479 288.67C139.714 288.67 133.564 287.093 128.253 283.912ZM155.565 265.345C157.801 261.756 158.919 256.102 158.919 248.327C158.919 240.552 157.801 234.898 155.565 231.309C153.328 227.721 150.309 225.926 146.507 225.926C142.705 225.926 139.574 227.721 137.338 231.309C135.102 234.898 133.984 240.579 133.984 248.327C133.984 256.075 135.102 261.756 137.338 265.345C139.574 268.933 142.65 270.727 146.507 270.727C150.365 270.727 153.328 268.933 155.565 265.345Z" fill="#1F5DE2" fill-opacity="0.2"/>
<path d="M268 272.282H256.147V287.125H234.146V272.282H191.962V257.983L227.745 209.539H251.115L218.631 254.884H234.817V241.699H256.119V254.884H267.972V272.282H268Z" fill="#1F5DE2" fill-opacity="0.2"/>
</g>
<path d="M174.558 133.308L168.842 127.592C168.492 127.242 168.064 127.067 167.558 127.067C167.053 127.067 166.606 127.261 166.217 127.65C165.867 128 165.692 128.428 165.692 128.933C165.692 129.439 165.867 129.867 166.217 130.217L173.333 137.392C173.683 137.742 174.092 137.917 174.558 137.917C175.025 137.917 175.433 137.742 175.783 137.392L189.725 123.45C190.114 123.061 190.308 122.614 190.308 122.108C190.308 121.603 190.114 121.156 189.725 120.767C189.336 120.417 188.869 120.261 188.325 120.3C187.819 120.3 187.392 120.475 187.042 120.825L174.558 133.308ZM178 151.333C174.811 151.333 171.797 150.731 168.958 149.525C166.119 148.281 163.631 146.608 161.492 144.508C159.392 142.369 157.719 139.881 156.475 137.042C155.269 134.203 154.667 131.189 154.667 128C154.667 124.772 155.269 121.739 156.475 118.9C157.719 116.061 159.392 113.592 161.492 111.492C163.631 109.392 166.119 107.739 168.958 106.533C171.797 105.289 174.811 104.667 178 104.667C181.228 104.667 184.261 105.289 187.1 106.533C189.939 107.739 192.408 109.392 194.508 111.492C196.608 113.592 198.261 116.061 199.467 118.9C200.711 121.739 201.333 124.772 201.333 128C201.333 131.189 200.711 134.203 199.467 137.042C198.261 139.881 196.608 142.369 194.508 144.508C192.408 146.608 189.939 148.281 187.1 149.525C184.261 150.731 181.228 151.333 178 151.333Z" fill="white"/>
<defs>
<radialGradient id="paint0_radial_27482_3460" cx="0" cy="0" r="1" gradientUnits="userSpaceOnUse" gradientTransform="translate(-10.8409 251.672) rotate(13.8826) scale(162.681 346.181)">
<stop offset="0.225962" stop-color="#3758F9" stop-opacity="0.7"/>
<stop offset="0.673077" stop-color="#1F5DE2" stop-opacity="0.16"/>
<stop offset="0.841346" stop-color="#1F5DE2" stop-opacity="0.04"/>
<stop offset="1" stop-color="#1F5DE2" stop-opacity="0"/>
</radialGradient>
</defs>
</svg>
