<svg width="326" height="287" viewBox="0 0 326 287" fill="none" xmlns="http://www.w3.org/2000/svg">
<path style="mix-blend-mode:multiply" opacity="0.6" d="M75.4715 0L0 287C30.1221 261.594 58.5089 212.405 74.2713 152.477C90.0337 92.5486 89.3829 36.2281 75.4715 0Z" fill="url(#paint0_radial_2804_8862)"/>
<path d="M108.5 64L98.7401 104H48.5L58.8232 64H108.5Z" fill="#1F5DE2"/>
<g style="mix-blend-mode:multiply">
<g style="mix-blend-mode:multiply">
<path d="M122.864 98.1055C120.758 96.8443 119.107 95.0012 117.91 92.5867C116.724 90.1722 116.125 87.305 116.125 83.9959C116.125 80.6868 116.724 77.8196 117.91 75.4051C119.096 72.9906 120.747 71.1474 122.864 69.8863C124.97 68.6252 127.387 68 130.091 68C132.796 68 135.168 68.6252 137.274 69.8863C139.38 71.1474 141.031 72.9906 142.217 75.4051C143.403 77.8196 144.002 80.6868 144.002 83.9959C144.002 87.305 143.403 90.1722 142.217 92.5867C141.031 95.0012 139.38 96.8443 137.274 98.1055C135.168 99.3666 132.773 99.9918 130.091 99.9918C127.409 99.9918 124.97 99.3666 122.864 98.1055ZM133.693 90.7435C134.58 89.3207 135.024 87.0786 135.024 83.9959C135.024 80.9131 134.58 78.6711 133.693 77.2483C132.807 75.8255 131.61 75.1141 130.102 75.1141C128.595 75.1141 127.353 75.8255 126.467 77.2483C125.58 78.6711 125.136 80.9239 125.136 83.9959C125.136 87.0679 125.58 89.3207 126.467 90.7435C127.353 92.1663 128.573 92.8777 130.102 92.8777C131.632 92.8777 132.807 92.1663 133.693 90.7435Z" fill="#1F5DE2" fill-opacity="0.2"/>
<path d="M170.26 84.0579C171.657 85.6209 172.366 87.518 172.366 89.7492C172.366 91.5708 171.867 93.2523 170.848 94.8045C169.839 96.3567 168.298 97.607 166.237 98.5663C164.175 99.5149 161.615 99.9999 158.578 99.9999C156.35 99.9999 154.144 99.7412 151.96 99.2131C149.777 98.6849 147.881 97.9412 146.285 96.9711L149.544 90.4175C150.774 91.2367 152.171 91.8726 153.723 92.3038C155.274 92.7457 156.804 92.9613 158.312 92.9613C159.819 92.9613 161.071 92.6811 161.969 92.1313C162.878 91.5708 163.322 90.784 163.322 89.76C163.322 87.7659 161.714 86.7742 158.489 86.7742H154.742V81.277L160.395 75.3486H147.926V68.6226H170.792V74.0767L164.242 80.9321C166.869 81.4602 168.875 82.5058 170.271 84.0795L170.26 84.0579Z" fill="#1F5DE2" fill-opacity="0.2"/>
</g>
</g>
<path d="M70.5 93C70.2167 93 69.975 92.9083 69.775 92.725C69.5917 92.525 69.5 92.2833 69.5 92V89.575C69.5 89.3083 69.55 89.0583 69.65 88.825C69.75 88.575 69.8917 88.3583 70.075 88.175L82.675 75.6C82.875 75.4 83.1 75.25 83.35 75.15C83.6 75.05 83.85 75 84.1 75C84.3667 75 84.6167 75.05 84.85 75.15C85.1 75.25 85.3167 75.4 85.5 75.6L86.9 77C87.1 77.1833 87.25 77.4 87.35 77.65C87.45 77.8833 87.5 78.1333 87.5 78.4C87.5 78.65 87.45 78.9 87.35 79.15C87.25 79.4 87.1 79.625 86.9 79.825L74.325 92.425C74.1417 92.6083 73.925 92.75 73.675 92.85C73.4417 92.95 73.1917 93 72.925 93H70.5ZM84.15 79.775L85.5 78.425L84.075 77L82.725 78.35L84.15 79.775ZM79.5 93C80.7333 93 81.875 92.6917 82.925 92.075C83.975 91.4583 84.5 90.6 84.5 89.5C84.5 88.9667 84.3667 88.5083 84.1 88.125C83.8333 87.725 83.4833 87.3583 83.05 87.025C82.8167 86.8583 82.5667 86.775 82.3 86.775C82.0333 86.775 81.8083 86.875 81.625 87.075C81.4417 87.275 81.35 87.525 81.35 87.825C81.35 88.1083 81.4667 88.3333 81.7 88.5C81.9333 88.6833 82.125 88.85 82.275 89C82.425 89.15 82.5 89.3167 82.5 89.5C82.5 89.8833 82.1917 90.2333 81.575 90.55C80.975 90.85 80.2833 91 79.5 91C79.2167 91 78.975 91.1 78.775 91.3C78.5917 91.4833 78.5 91.7167 78.5 92C78.5 92.2833 78.5917 92.525 78.775 92.725C78.975 92.9083 79.2167 93 79.5 93ZM74.5 78C74.5 78.2333 74.35 78.45 74.05 78.65C73.7667 78.8333 73.1 79.1667 72.05 79.65C70.7167 80.2333 69.7917 80.7667 69.275 81.25C68.7583 81.7167 68.5 82.3 68.5 83C68.5 83.4333 68.6 83.8167 68.8 84.15C69 84.4833 69.2583 84.775 69.575 85.025C69.7917 85.2083 70.0333 85.2917 70.3 85.275C70.5667 85.2417 70.7917 85.1167 70.975 84.9C71.1583 84.6833 71.2417 84.4417 71.225 84.175C71.2083 83.9083 71.0917 83.6833 70.875 83.5C70.7583 83.4167 70.6667 83.3333 70.6 83.25C70.5333 83.1667 70.5 83.0833 70.5 83C70.5 82.8 70.65 82.6 70.95 82.4C71.25 82.2 71.8833 81.8917 72.85 81.475C74.3167 80.8417 75.2917 80.2667 75.775 79.75C76.2583 79.2333 76.5 78.65 76.5 78C76.5 77.0833 76.1333 76.3583 75.4 75.825C74.6667 75.275 73.7 75 72.5 75C71.75 75 71.075 75.1333 70.475 75.4C69.8917 75.6667 69.4417 75.9917 69.125 76.375C68.9417 76.5917 68.8667 76.8333 68.9 77.1C68.9333 77.3667 69.0583 77.5833 69.275 77.75C69.4917 77.9333 69.7333 78.0083 70 77.975C70.2667 77.9417 70.4917 77.8333 70.675 77.65C70.9083 77.4167 71.1667 77.25 71.45 77.15C71.7333 77.05 72.0833 77 72.5 77C73.1833 77 73.6833 77.1 74 77.3C74.3333 77.5 74.5 77.7333 74.5 78Z" fill="white"/>
<defs>
<radialGradient id="paint0_radial_2804_8862" cx="0" cy="0" r="1" gradientUnits="userSpaceOnUse" gradientTransform="translate(-6.05475 129.444) rotate(13.8064) scale(84.126 178.112)">
<stop offset="0.225962" stop-color="#3758F9" stop-opacity="0.7"/>
<stop offset="0.673077" stop-color="#1F5DE2" stop-opacity="0.16"/>
<stop offset="0.841346" stop-color="#1F5DE2" stop-opacity="0.04"/>
<stop offset="1" stop-color="#1F5DE2" stop-opacity="0"/>
</radialGradient>
</defs>
</svg>
