<svg width="255" height="558" viewBox="0 0 255 558" fill="none" xmlns="http://www.w3.org/2000/svg">
<path style="mix-blend-mode:multiply" opacity="0.6" d="M145.897 0L0 558C58.2302 508.605 113.106 412.968 143.577 296.453C174.048 179.938 172.79 70.4364 145.897 0Z" fill="url(#paint0_radial_27482_3430)"/>
<path d="M254.08 77.0703L228.892 178.851H99.2371L125.878 77.0703H254.08Z" fill="#1F5DE2"/>
<g style="mix-blend-mode:multiply">
<path d="M127.052 283.912C121.74 280.732 117.575 276.083 114.556 269.993C111.565 263.904 110.055 256.673 110.055 248.327C110.055 239.981 111.565 232.75 114.556 226.66C117.547 220.571 121.712 215.922 127.052 212.742C132.363 209.561 138.457 207.984 145.278 207.984C152.099 207.984 158.082 209.561 163.393 212.742C168.705 215.922 172.87 220.571 175.861 226.66C178.852 232.75 180.362 239.981 180.362 248.327C180.362 256.673 178.852 263.904 175.861 269.993C172.87 276.083 168.705 280.732 163.393 283.912C158.082 287.093 152.043 288.67 145.278 288.67C138.513 288.67 132.363 287.093 127.052 283.912ZM154.364 265.345C156.6 261.756 157.718 256.102 157.718 248.327C157.718 240.552 156.6 234.898 154.364 231.309C152.127 227.721 149.108 225.926 145.306 225.926C141.504 225.926 138.373 227.721 136.137 231.309C133.901 234.898 132.782 240.579 132.782 248.327C132.782 256.075 133.901 261.756 136.137 265.345C138.373 268.933 141.448 270.727 145.306 270.727C149.164 270.727 152.127 268.933 154.364 265.345Z" fill="#1F5DE2" fill-opacity="0.2"/>
<path d="M224.867 209.508V287.121H202.307V226.471H187.491V209.508H224.895H224.867Z" fill="#1F5DE2" fill-opacity="0.2"/>
</g>
<path d="M177 132.667C178.283 132.667 179.372 132.219 180.267 131.325C181.2 130.392 181.667 129.283 181.667 128C181.667 126.717 181.2 125.628 180.267 124.733C179.372 123.8 178.283 123.333 177 123.333C175.717 123.333 174.608 123.8 173.675 124.733C172.781 125.628 172.333 126.717 172.333 128C172.333 129.283 172.781 130.392 173.675 131.325C174.608 132.219 175.717 132.667 177 132.667ZM167.667 142H186.333V140.658C186.333 139.725 186.081 138.869 185.575 138.092C185.069 137.314 184.369 136.731 183.475 136.342C182.464 135.914 181.414 135.583 180.325 135.35C179.275 135.117 178.167 135 177 135C175.833 135 174.706 135.117 173.617 135.35C172.567 135.583 171.536 135.914 170.525 136.342C169.631 136.731 168.931 137.314 168.425 138.092C167.919 138.869 167.667 139.725 167.667 140.658V142ZM192.167 151.333H161.833C160.9 151.333 160.083 150.983 159.383 150.283C158.683 149.583 158.333 148.767 158.333 147.833V108.167C158.333 107.233 158.683 106.417 159.383 105.717C160.083 105.017 160.9 104.667 161.833 104.667H180.267C180.733 104.667 181.181 104.764 181.608 104.958C182.075 105.153 182.464 105.406 182.775 105.717L194.617 117.558C194.928 117.869 195.181 118.258 195.375 118.725C195.569 119.153 195.667 119.6 195.667 120.067V147.833C195.667 148.767 195.317 149.583 194.617 150.283C193.917 150.983 193.1 151.333 192.167 151.333Z" fill="white"/>
<defs>
<radialGradient id="paint0_radial_27482_3430" cx="0" cy="0" r="1" gradientUnits="userSpaceOnUse" gradientTransform="translate(-11.7047 251.672) rotate(13.8826) scale(162.681 346.181)">
<stop offset="0.225962" stop-color="#3758F9" stop-opacity="0.7"/>
<stop offset="0.673077" stop-color="#1F5DE2" stop-opacity="0.16"/>
<stop offset="0.841346" stop-color="#1F5DE2" stop-opacity="0.04"/>
<stop offset="1" stop-color="#1F5DE2" stop-opacity="0"/>
</radialGradient>
</defs>
</svg>
