<svg width="326" height="287" viewBox="0 0 326 287" fill="none" xmlns="http://www.w3.org/2000/svg">
<path style="mix-blend-mode:multiply" opacity="0.6" d="M75.4715 0L0 287C30.1221 261.594 58.5089 212.405 74.2713 152.477C90.0337 92.5486 89.3829 36.2281 75.4715 0Z" fill="url(#paint0_radial_2804_8851)"/>
<path d="M108.5 64L98.7401 104H48.5L58.8232 64H108.5Z" fill="#1F5DE2"/>
<g style="mix-blend-mode:multiply">
<g style="mix-blend-mode:multiply">
<path d="M122.855 98.1132C120.748 96.8518 119.096 95.0081 117.91 92.593C116.724 90.1779 116.125 87.31 116.125 84C116.125 80.69 116.724 77.8221 117.91 75.407C119.096 72.9919 120.748 71.1482 122.855 69.8868C124.961 68.6253 127.378 68 130.095 68C132.811 68 135.172 68.6253 137.279 69.8868C139.386 71.1482 141.038 72.9919 142.235 75.407C143.421 77.8221 144.02 80.69 144.02 84C144.02 87.31 143.421 90.1779 142.235 92.593C141.049 95.0081 139.397 96.8518 137.279 98.1132C135.172 99.3747 132.778 100 130.095 100C127.412 100 124.972 99.3747 122.855 98.1132ZM133.687 90.7493C134.574 89.3261 135.017 87.0836 135.017 84C135.017 80.9164 134.574 78.6739 133.687 77.2507C132.8 75.8275 131.602 75.1159 130.095 75.1159C128.587 75.1159 127.345 75.8275 126.458 77.2507C125.571 78.6739 125.128 80.9272 125.128 84C125.128 87.0728 125.571 89.3261 126.458 90.7493C127.345 92.1725 128.565 92.8841 130.095 92.8841C131.625 92.8841 132.8 92.1725 133.687 90.7493Z" fill="#1F5DE2" fill-opacity="0.2"/>
<path d="M172.547 92.4852V99.3854H147.901V93.9299L159.742 83.159C160.884 82.1024 161.66 81.1968 162.048 80.4528C162.436 79.7089 162.635 78.9542 162.635 78.1887C162.635 77.1968 162.292 76.4205 161.593 75.8598C160.895 75.2992 159.886 75.0296 158.566 75.0296C157.391 75.0296 156.316 75.2884 155.329 75.7951C154.353 76.3127 153.544 77.0458 152.912 78.0162L146.26 74.4151C147.49 72.4205 149.231 70.8571 151.46 69.7143C153.688 68.5714 156.327 68 159.376 68C161.782 68 163.921 68.3774 165.773 69.1429C167.624 69.9084 169.077 70.9973 170.108 72.4205C171.15 73.8437 171.671 75.4933 171.671 77.3693C171.671 79.0404 171.305 80.6146 170.563 82.0916C169.82 83.5687 168.401 85.2507 166.294 87.1267L160.329 92.4959H172.536L172.547 92.4852Z" fill="#1F5DE2" fill-opacity="0.2"/>
</g>
</g>
<path d="M76.5 94C75.95 94 75.475 93.8083 75.075 93.425C74.6917 93.025 74.5 92.55 74.5 92V88H71.5C70.95 88 70.475 87.8083 70.075 87.425C69.6917 87.025 69.5 86.55 69.5 86V79C69.5 77.9 69.8917 76.9583 70.675 76.175C71.4583 75.3917 72.4 75 73.5 75H84.5C84.7833 75 85.0167 75.1 85.2 75.3C85.4 75.4833 85.5 75.7167 85.5 76V86C85.5 86.55 85.3 87.025 84.9 87.425C84.5167 87.8083 84.05 88 83.5 88H80.5V92C80.5 92.55 80.3 93.025 79.9 93.425C79.5167 93.8083 79.05 94 78.5 94H76.5ZM71.5 82H83.5V77H82.5V80C82.5 80.2833 82.4 80.525 82.2 80.725C82.0167 80.9083 81.7833 81 81.5 81C81.2167 81 80.975 80.9083 80.775 80.725C80.5917 80.525 80.5 80.2833 80.5 80V77H79.5V78C79.5 78.2833 79.4 78.525 79.2 78.725C79.0167 78.9083 78.7833 79 78.5 79C78.2167 79 77.975 78.9083 77.775 78.725C77.5917 78.525 77.5 78.2833 77.5 78V77H73.5C72.95 77 72.475 77.2 72.075 77.6C71.6917 77.9833 71.5 78.45 71.5 79V82Z" fill="white"/>
<defs>
<radialGradient id="paint0_radial_2804_8851" cx="0" cy="0" r="1" gradientUnits="userSpaceOnUse" gradientTransform="translate(-6.05475 129.444) rotate(13.8064) scale(84.126 178.112)">
<stop offset="0.225962" stop-color="#3758F9" stop-opacity="0.7"/>
<stop offset="0.673077" stop-color="#1F5DE2" stop-opacity="0.16"/>
<stop offset="0.841346" stop-color="#1F5DE2" stop-opacity="0.04"/>
<stop offset="1" stop-color="#1F5DE2" stop-opacity="0"/>
</radialGradient>
</defs>
</svg>
