<svg width="255" height="558" viewBox="0 0 255 558" fill="none" xmlns="http://www.w3.org/2000/svg">
<path style="mix-blend-mode:multiply" opacity="0.6" d="M146.456 0L0.558472 558C58.7887 508.605 113.664 412.968 144.135 296.453C174.606 179.938 173.348 70.4364 146.456 0Z" fill="url(#paint0_radial_27482_3440)"/>
<path d="M254.936 77.0703L229.748 178.851H100.065L126.706 77.0703H254.936Z" fill="#1F5DE2"/>
<g style="mix-blend-mode:multiply">
<path d="M127.908 283.912C122.596 280.732 118.431 276.083 115.44 269.993C112.448 263.904 110.939 256.673 110.939 248.327C110.939 239.981 112.448 232.75 115.44 226.66C118.431 220.571 122.596 215.922 127.908 212.742C133.219 209.561 139.313 207.984 146.162 207.984C153.011 207.984 158.966 209.561 164.277 212.742C169.588 215.922 173.754 220.571 176.773 226.66C179.764 232.75 181.274 239.981 181.274 248.327C181.274 256.673 179.764 263.904 176.773 269.993C173.782 276.083 169.616 280.732 164.277 283.912C158.966 287.093 152.927 288.67 146.162 288.67C139.397 288.67 133.247 287.093 127.908 283.912ZM155.22 265.345C157.456 261.756 158.574 256.102 158.574 248.327C158.574 240.552 157.456 234.898 155.22 231.309C152.983 227.721 149.964 225.926 146.162 225.926C142.36 225.926 139.229 227.721 136.993 231.309C134.757 234.898 133.638 240.579 133.638 248.327C133.638 256.075 134.757 261.756 136.993 265.345C139.229 268.933 142.304 270.727 146.162 270.727C150.02 270.727 152.983 268.933 155.22 265.345Z" fill="#1F5DE2" fill-opacity="0.2"/>
<path d="M253.202 269.722V287.12H191.058V273.364L220.914 246.207C223.794 243.542 225.75 241.259 226.729 239.383C227.707 237.507 228.211 235.604 228.211 233.674C228.211 231.173 227.344 229.216 225.583 227.802C223.822 226.389 221.278 225.709 217.951 225.709C214.988 225.709 212.276 226.361 209.788 227.639C207.328 228.944 205.287 230.793 203.694 233.239L186.921 224.159C190.024 219.13 194.413 215.188 200.032 212.307C205.651 209.425 212.304 207.984 219.992 207.984C226.058 207.984 231.453 208.936 236.122 210.866C240.79 212.796 244.452 215.542 247.052 219.13C249.68 222.719 250.994 226.878 250.994 231.608C250.994 235.822 250.071 239.791 248.198 243.515C246.325 247.24 242.747 251.48 237.436 256.211L222.396 269.749H253.174L253.202 269.722Z" fill="#1F5DE2" fill-opacity="0.2"/>
</g>
<path d="M174.825 151.333C173.892 151.333 173.075 151.003 172.375 150.342C171.675 149.642 171.325 148.806 171.325 147.833V136.167H162.167C161.233 136.167 160.417 135.817 159.717 135.117C159.017 134.417 158.667 133.6 158.667 132.667V114.992C158.667 112.853 159.425 110.986 160.942 109.392C162.497 107.797 164.364 107 166.542 107H194.25C194.756 107 195.164 107.175 195.475 107.525C195.825 107.836 196 108.244 196 108.75V132.667C196 133.6 195.65 134.417 194.95 135.117C194.25 135.817 193.433 136.167 192.5 136.167H183.342V147.833C183.342 148.806 182.992 149.642 182.292 150.342C181.592 151.003 180.775 151.333 179.842 151.333H174.825ZM162.167 123.683H192.5V110.5H189.233V118.725C189.233 119.231 189.058 119.658 188.708 120.008C188.397 120.319 187.989 120.475 187.483 120.475C186.978 120.475 186.55 120.319 186.2 120.008C185.889 119.658 185.733 119.231 185.733 118.725V110.5H181.592V113.708C181.592 114.214 181.417 114.642 181.067 114.992C180.756 115.303 180.347 115.458 179.842 115.458C179.336 115.458 178.908 115.303 178.558 114.992C178.247 114.642 178.092 114.214 178.092 113.708V110.5H166.542C165.297 110.5 164.247 110.947 163.392 111.842C162.575 112.736 162.167 113.786 162.167 114.992V123.683Z" fill="white"/>
<defs>
<radialGradient id="paint0_radial_27482_3440" cx="0" cy="0" r="1" gradientUnits="userSpaceOnUse" gradientTransform="translate(-11.1462 251.672) rotate(13.8826) scale(162.681 346.181)">
<stop offset="0.225962" stop-color="#3758F9" stop-opacity="0.7"/>
<stop offset="0.673077" stop-color="#1F5DE2" stop-opacity="0.16"/>
<stop offset="0.841346" stop-color="#1F5DE2" stop-opacity="0.04"/>
<stop offset="1" stop-color="#1F5DE2" stop-opacity="0"/>
</radialGradient>
</defs>
</svg>
