<svg width="326" height="287" viewBox="0 0 326 287" fill="none" xmlns="http://www.w3.org/2000/svg">
<path style="mix-blend-mode:multiply" opacity="0.6" d="M75.4715 0L0 287C30.1221 261.594 58.5089 212.405 74.2713 152.477C90.0337 92.5486 89.3829 36.2281 75.4715 0Z" fill="url(#paint0_radial_2804_8841)"/>
<path d="M108.5 64L98.7401 104H48.5L58.8232 64H108.5Z" fill="#1F5DE2"/>
<g style="mix-blend-mode:multiply">
<path d="M123.172 98.1407C121.087 96.8922 119.452 95.0674 118.267 92.677C117.093 90.2867 116.5 87.4481 116.5 84.1721C116.5 80.896 117.093 78.0574 118.267 75.6671C119.441 73.2767 121.076 71.4519 123.172 70.2034C125.257 68.9549 127.649 68.3359 130.327 68.3359C133.004 68.3359 135.352 68.9549 137.437 70.2034C139.522 71.4519 141.157 73.2767 142.332 75.6671C143.506 78.0574 144.098 80.896 144.098 84.1721C144.098 87.4481 143.506 90.2867 142.332 92.677C141.157 95.0674 139.522 96.8922 137.437 98.1407C135.352 99.3892 132.982 100.008 130.327 100.008C127.671 100.008 125.257 99.3892 123.172 98.1407ZM133.893 90.8523C134.771 89.4437 135.21 87.224 135.21 84.1721C135.21 81.1201 134.771 78.9005 133.893 77.4919C133.015 76.0833 131.83 75.379 130.338 75.379C128.845 75.379 127.616 76.0833 126.738 77.4919C125.86 78.9005 125.421 81.1308 125.421 84.1721C125.421 87.2134 125.86 89.4437 126.738 90.8523C127.616 92.2609 128.823 92.9652 130.338 92.9652C131.852 92.9652 133.015 92.2609 133.893 90.8523Z" fill="#1F5DE2" fill-opacity="0.2"/>
<path d="M161.568 68.9375V99.4039H152.712V75.5964H146.896V68.9375H161.579H161.568Z" fill="#1F5DE2" fill-opacity="0.2"/>
</g>
<path d="M77.5 86C78.05 86 78.5167 85.8083 78.9 85.425C79.3 85.025 79.5 84.55 79.5 84C79.5 83.45 79.3 82.9833 78.9 82.6C78.5167 82.2 78.05 82 77.5 82C76.95 82 76.475 82.2 76.075 82.6C75.6917 82.9833 75.5 83.45 75.5 84C75.5 84.55 75.6917 85.025 76.075 85.425C76.475 85.8083 76.95 86 77.5 86ZM73.5 90H81.5V89.425C81.5 89.025 81.3917 88.6583 81.175 88.325C80.9583 87.9917 80.6583 87.7417 80.275 87.575C79.8417 87.3917 79.3917 87.25 78.925 87.15C78.475 87.05 78 87 77.5 87C77 87 76.5167 87.05 76.05 87.15C75.6 87.25 75.1583 87.3917 74.725 87.575C74.3417 87.7417 74.0417 87.9917 73.825 88.325C73.6083 88.6583 73.5 89.025 73.5 89.425V90ZM83.5 94H71.5C70.95 94 70.475 93.8083 70.075 93.425C69.6917 93.025 69.5 92.55 69.5 92V76C69.5 75.45 69.6917 74.9833 70.075 74.6C70.475 74.2 70.95 74 71.5 74H78.675C78.9417 74 79.1917 74.05 79.425 74.15C79.675 74.25 79.8917 74.3917 80.075 74.575L84.925 79.425C85.1083 79.6083 85.25 79.825 85.35 80.075C85.45 80.3083 85.5 80.5583 85.5 80.825V92C85.5 92.55 85.3 93.025 84.9 93.425C84.5167 93.8083 84.05 94 83.5 94Z" fill="white"/>
<defs>
<radialGradient id="paint0_radial_2804_8841" cx="0" cy="0" r="1" gradientUnits="userSpaceOnUse" gradientTransform="translate(-6.05475 129.444) rotate(13.8064) scale(84.126 178.112)">
<stop offset="0.225962" stop-color="#3758F9" stop-opacity="0.7"/>
<stop offset="0.673077" stop-color="#1F5DE2" stop-opacity="0.16"/>
<stop offset="0.841346" stop-color="#1F5DE2" stop-opacity="0.04"/>
<stop offset="1" stop-color="#1F5DE2" stop-opacity="0"/>
</radialGradient>
</defs>
</svg>
