<svg width="326" height="287" viewBox="0 0 326 287" fill="none" xmlns="http://www.w3.org/2000/svg">
<path style="mix-blend-mode:multiply" opacity="0.6" d="M75.4715 0L0 287C30.1221 261.594 58.5089 212.405 74.2713 152.477C90.0337 92.5486 89.3829 36.2281 75.4715 0Z" fill="url(#paint0_radial_2804_8873)"/>
<path d="M108.5 64L98.7401 104H48.5L58.8232 64H108.5Z" fill="#1F5DE2"/>
<g style="mix-blend-mode:multiply">
<g style="mix-blend-mode:multiply">
<path d="M122.866 99.1132C120.759 97.8518 119.107 96.0081 117.91 93.593C116.724 91.1779 116.125 88.31 116.125 85C116.125 81.69 116.724 78.8221 117.91 76.407C119.096 73.9919 120.748 72.1482 122.866 70.8868C124.972 69.6253 127.389 69 130.095 69C132.8 69 135.173 69.6253 137.279 70.8868C139.386 72.1482 141.038 73.9919 142.224 76.407C143.41 78.8221 144.009 81.69 144.009 85C144.009 88.31 143.41 91.1779 142.224 93.593C141.038 96.0081 139.386 97.8518 137.279 99.1132C135.173 100.375 132.778 101 130.095 101C127.412 101 124.972 100.375 122.866 99.1132ZM133.698 91.7493C134.585 90.3261 135.028 88.0836 135.028 85C135.028 81.9164 134.585 79.6739 133.698 78.2507C132.811 76.8275 131.614 76.1159 130.106 76.1159C128.598 76.1159 127.356 76.8275 126.469 78.2507C125.582 79.6739 125.139 81.9272 125.139 85C125.139 88.0728 125.582 90.3261 126.469 91.7493C127.356 93.1725 128.576 93.8841 130.106 93.8841C131.636 93.8841 132.811 93.1725 133.698 91.7493Z" fill="#1F5DE2" fill-opacity="0.2"/>
<path d="M178.291 94.5008H173.59V100.388H164.864V94.5008H148.134V88.8296L162.325 69.6167H171.594L158.711 87.6005H165.13V82.3714H173.579V87.6005H178.28V94.5008H178.291Z" fill="#1F5DE2" fill-opacity="0.2"/>
</g>
</g>
<path d="M76.725 85.8L74.575 83.65C74.3917 83.4667 74.1583 83.375 73.875 83.375C73.5917 83.375 73.3583 83.4667 73.175 83.65C72.9917 83.8333 72.9 84.0667 72.9 84.35C72.9 84.6333 72.9917 84.8667 73.175 85.05L76.025 87.9C76.225 88.1 76.4583 88.2 76.725 88.2C76.9917 88.2 77.225 88.1 77.425 87.9L83.075 82.25C83.2583 82.0667 83.35 81.8333 83.35 81.55C83.35 81.2667 83.2583 81.0333 83.075 80.85C82.8917 80.6667 82.6583 80.575 82.375 80.575C82.0917 80.575 81.8583 80.6667 81.675 80.85L76.725 85.8ZM78.125 94C76.7417 94 75.4417 93.7417 74.225 93.225C73.0083 92.6917 71.95 91.975 71.05 91.075C70.15 90.175 69.4333 89.1167 68.9 87.9C68.3833 86.6833 68.125 85.3833 68.125 84C68.125 82.6167 68.3833 81.3167 68.9 80.1C69.4333 78.8833 70.15 77.825 71.05 76.925C71.95 76.025 73.0083 75.3167 74.225 74.8C75.4417 74.2667 76.7417 74 78.125 74C79.5083 74 80.8083 74.2667 82.025 74.8C83.2417 75.3167 84.3 76.025 85.2 76.925C86.1 77.825 86.8083 78.8833 87.325 80.1C87.8583 81.3167 88.125 82.6167 88.125 84C88.125 85.3833 87.8583 86.6833 87.325 87.9C86.8083 89.1167 86.1 90.175 85.2 91.075C84.3 91.975 83.2417 92.6917 82.025 93.225C80.8083 93.7417 79.5083 94 78.125 94Z" fill="white"/>
<defs>
<radialGradient id="paint0_radial_2804_8873" cx="0" cy="0" r="1" gradientUnits="userSpaceOnUse" gradientTransform="translate(-6.05475 129.444) rotate(13.8064) scale(84.126 178.112)">
<stop offset="0.225962" stop-color="#3758F9" stop-opacity="0.7"/>
<stop offset="0.673077" stop-color="#1F5DE2" stop-opacity="0.16"/>
<stop offset="0.841346" stop-color="#1F5DE2" stop-opacity="0.04"/>
<stop offset="1" stop-color="#1F5DE2" stop-opacity="0"/>
</radialGradient>
</defs>
</svg>
