<svg width="186" height="46" viewBox="0 0 186 46" fill="none" xmlns="http://www.w3.org/2000/svg">
<path d="M48.8708 16.3015H67.6816V19.8304H60.2751V39.7231H56.2154V19.8304H48.8398L48.8708 16.3015ZM66.8759 22.7659H70.3467V26.0449H70.4087C70.5327 25.5765 70.7496 25.1393 71.0595 24.7021C71.3694 24.2649 71.7413 23.8589 72.2061 23.5154C72.64 23.1406 73.1358 22.8596 73.6936 22.641C74.2204 22.4224 74.7782 22.2974 75.3361 22.2974C75.7699 22.2974 76.0798 22.3287 76.2348 22.3287C76.3897 22.3599 76.5757 22.3911 76.7306 22.3911V25.9824C76.4827 25.92 76.2038 25.8887 75.9249 25.8575C75.646 25.8263 75.398 25.7951 75.1191 25.7951C74.4993 25.7951 73.9105 25.92 73.3527 26.1698C72.7949 26.4196 72.3301 26.7944 71.8962 27.2628C71.4933 27.7625 71.1524 28.3558 70.9045 29.0741C70.6566 29.7923 70.5327 30.6355 70.5327 31.5724V39.6294H66.8139L66.8759 22.7659ZM93.775 39.7231H90.1182V37.3497H90.0562C89.5913 38.2241 88.9096 38.8799 88.0109 39.4108C87.1122 39.9417 86.1825 40.1915 85.2528 40.1915C83.0525 40.1915 81.441 39.6606 80.4494 38.5364C79.4577 37.4434 78.9619 35.757 78.9619 33.5398V22.7659H82.6806V33.1651C82.6806 34.664 82.9595 35.7258 83.5483 36.3192C84.1062 36.9437 84.9119 37.256 85.9345 37.256C86.7093 37.256 87.3601 37.1311 87.8869 36.8813C88.4137 36.6315 88.8476 36.3192 89.1575 35.9132C89.4984 35.5072 89.7153 35.0075 89.8702 34.4454C90.0252 33.8833 90.0872 33.2587 90.0872 32.6029V22.7659H93.8059V39.7231H93.775ZM100.097 34.2893C100.221 35.3823 100.624 36.1318 101.336 36.6002C102.049 37.0374 102.917 37.256 103.909 37.256C104.249 37.256 104.652 37.2248 105.086 37.1623C105.52 37.0999 105.954 37.0062 106.326 36.85C106.729 36.6939 107.039 36.4753 107.286 36.163C107.534 35.8507 107.658 35.476 107.627 35.0076C107.596 34.5391 107.441 34.1331 107.101 33.8209C106.76 33.5086 106.357 33.29 105.861 33.0714C105.365 32.884 104.776 32.7278 104.126 32.6029C103.475 32.478 102.824 32.3219 102.142 32.1657C101.46 32.0096 100.779 31.8222 100.128 31.6036C99.4771 31.385 98.9192 31.1039 98.3924 30.698C97.8966 30.3232 97.4627 29.8548 97.1838 29.2615C96.8739 28.6681 96.719 27.9811 96.719 27.1067C96.719 26.1698 96.9359 25.4203 97.4007 24.7957C97.8346 24.1712 98.4234 23.6715 99.1052 23.2968C99.787 22.922 100.562 22.641 101.398 22.4848C102.235 22.3287 103.041 22.2662 103.785 22.2662C104.652 22.2662 105.489 22.3599 106.264 22.5473C107.039 22.7346 107.782 23.0157 108.402 23.4529C109.053 23.8589 109.58 24.421 109.983 25.0768C110.416 25.7326 110.664 26.5446 110.788 27.4814H106.915C106.729 26.5758 106.326 25.9824 105.706 25.6701C105.055 25.3579 104.342 25.2017 103.506 25.2017C103.258 25.2017 102.917 25.2329 102.576 25.2642C102.204 25.3266 101.894 25.3891 101.553 25.514C101.243 25.6389 100.965 25.8263 100.748 26.0449C100.531 26.2635 100.407 26.5758 100.407 26.9505C100.407 27.419 100.562 27.7625 100.872 28.0435C101.181 28.3246 101.584 28.5432 102.111 28.7618C102.607 28.9492 103.196 29.1053 103.847 29.2302C104.497 29.3551 105.179 29.5113 105.861 29.6674C106.543 29.8236 107.194 30.0109 107.844 30.2295C108.495 30.4481 109.084 30.7292 109.58 31.1352C110.076 31.5099 110.509 31.9784 110.819 32.5405C111.129 33.1026 111.284 33.8209 111.284 34.6328C111.284 35.6321 111.067 36.4753 110.602 37.1936C110.138 37.8806 109.549 38.4739 108.836 38.9112C108.123 39.3484 107.286 39.6606 106.419 39.8792C105.52 40.0666 104.652 40.1915 103.785 40.1915C102.731 40.1915 101.739 40.0666 100.841 39.8168C99.9419 39.567 99.1362 39.1922 98.4854 38.7238C97.8346 38.2241 97.3078 37.6308 96.9359 36.8813C96.564 36.163 96.3471 35.2886 96.3161 34.2581H100.066V34.2893H100.097ZM112.338 22.7659H115.158V17.6443H118.877V22.7346H122.224V25.514H118.877V34.5704C118.877 34.9763 118.908 35.2886 118.939 35.6009C118.97 35.882 119.063 36.1318 119.156 36.3192C119.279 36.5065 119.465 36.6627 119.682 36.7564C119.93 36.8501 120.24 36.9125 120.674 36.9125C120.922 36.9125 121.201 36.9125 121.449 36.8813C121.697 36.8501 121.976 36.8188 122.224 36.7564V39.6606C121.821 39.7231 121.418 39.7543 121.015 39.7856C120.612 39.848 120.24 39.848 119.806 39.848C118.815 39.848 118.04 39.7543 117.451 39.567C116.862 39.3796 116.397 39.0985 116.057 38.755C115.716 38.3803 115.499 37.9431 115.375 37.4122C115.251 36.8813 115.189 36.2255 115.158 35.5384V25.5452H112.338V22.7034V22.7659ZM124.827 22.7659H128.328V25.0768H128.39C128.917 24.0775 129.63 23.3904 130.56 22.9532C131.489 22.516 132.481 22.2974 133.597 22.2974C134.929 22.2974 136.076 22.516 137.068 23.0157C138.059 23.4841 138.865 24.1087 139.516 24.9519C140.167 25.7638 140.662 26.7319 140.972 27.8249C141.282 28.9179 141.468 30.1046 141.468 31.3226C141.468 32.478 141.313 33.571 141.034 34.6328C140.724 35.6946 140.291 36.6627 139.702 37.4746C139.113 38.2866 138.369 38.9424 137.439 39.442C136.51 39.9417 135.456 40.1915 134.217 40.1915C133.69 40.1915 133.132 40.1291 132.605 40.0354C132.078 39.9417 131.551 39.7856 131.056 39.567C130.56 39.3484 130.095 39.0673 129.692 38.7238C129.258 38.3803 128.917 37.9743 128.638 37.5371H128.576V46.0001H124.858V22.7659H124.827ZM137.811 31.2601C137.811 30.5106 137.718 29.7611 137.501 29.0429C137.316 28.3246 137.006 27.7 136.603 27.1379C136.2 26.5758 135.704 26.1386 135.146 25.7951C134.557 25.4515 133.876 25.2954 133.132 25.2954C131.582 25.2954 130.405 25.8263 129.599 26.9193C128.824 28.0123 128.421 29.4801 128.421 31.2913C128.421 32.1657 128.514 32.9464 128.731 33.6647C128.948 34.383 129.227 35.0075 129.661 35.5384C130.064 36.0693 130.56 36.4753 131.149 36.7876C131.737 37.0999 132.388 37.256 133.163 37.256C134.031 37.256 134.712 37.0687 135.301 36.7251C135.89 36.3816 136.355 35.9132 136.758 35.3823C137.13 34.8202 137.408 34.1956 137.563 33.4773C137.718 32.7279 137.811 32.0096 137.811 31.2601ZM144.35 16.3015H148.069V19.8304H144.35V16.3015ZM144.35 22.7659H148.069V39.7231H144.35V22.7659ZM151.385 16.3015H155.104V39.7231H151.385V16.3015ZM166.446 40.1915C165.113 40.1915 163.905 39.9729 162.851 39.5045C161.797 39.0361 160.93 38.4427 160.186 37.662C159.473 36.8813 158.915 35.9132 158.543 34.8202C158.172 33.7272 157.955 32.5092 157.955 31.2289C157.955 29.9485 158.141 28.7618 158.543 27.6688C158.915 26.5758 159.473 25.6389 160.186 24.827C160.899 24.0462 161.797 23.4217 162.851 22.9845C163.905 22.5473 165.113 22.2974 166.446 22.2974C167.778 22.2974 168.987 22.516 170.041 22.9845C171.094 23.4217 171.962 24.0462 172.706 24.827C173.419 25.6077 173.976 26.5758 174.348 27.6688C174.72 28.7618 174.937 29.9485 174.937 31.2289C174.937 32.5405 174.751 33.7272 174.348 34.8202C173.945 35.9132 173.419 36.8501 172.706 37.662C171.993 38.4427 171.094 39.0673 170.041 39.5045C168.987 39.9417 167.809 40.1915 166.446 40.1915ZM166.446 37.2248C167.252 37.2248 167.995 37.0374 168.584 36.6939C169.204 36.3504 169.669 35.882 170.072 35.3198C170.475 34.7577 170.753 34.1019 170.939 33.4149C171.125 32.6966 171.218 31.9784 171.218 31.2289C171.218 30.5106 171.125 29.7923 170.939 29.0741C170.753 28.3558 170.475 27.7312 170.072 27.1691C169.669 26.607 169.173 26.1698 168.584 25.8263C167.964 25.4828 167.252 25.2954 166.446 25.2954C165.64 25.2954 164.896 25.4828 164.308 25.8263C163.688 26.1698 163.223 26.6382 162.82 27.1691C162.417 27.7312 162.138 28.3558 161.952 29.0741C161.766 29.7923 161.673 30.5106 161.673 31.2289C161.673 31.9784 161.766 32.6966 161.952 33.4149C162.138 34.1331 162.417 34.7577 162.82 35.3198C163.223 35.882 163.719 36.3504 164.308 36.6939C164.927 37.0687 165.64 37.2248 166.446 37.2248ZM176.053 22.7659H178.873V17.6443H182.592V22.7346H185.938V25.514H182.592V34.5704C182.592 34.9763 182.623 35.2886 182.654 35.6009C182.684 35.882 182.777 36.1318 182.87 36.3192C182.994 36.5065 183.18 36.6627 183.397 36.7564C183.645 36.8501 183.955 36.9125 184.389 36.9125C184.637 36.9125 184.916 36.9125 185.164 36.8813C185.412 36.8501 185.69 36.8188 185.938 36.7564V39.6606C185.536 39.7231 185.133 39.7543 184.73 39.7856C184.327 39.848 183.955 39.848 183.521 39.848C182.53 39.848 181.755 39.7543 181.166 39.567C180.577 39.3796 180.112 39.0985 179.771 38.755C179.431 38.3803 179.214 37.9431 179.09 37.4122C178.966 36.8813 178.904 36.2255 178.873 35.5384V25.5452H176.053V22.7034V22.7659Z" fill="black"/>
<path d="M44.5322 16.3014H27.5189L22.2816 0L17.0134 16.3014L0 16.2702L13.7594 26.3571L8.49119 42.6585L22.2506 32.5716L36.0101 42.6585L30.7728 26.3571L44.5322 16.3014Z" fill="#00B67A"/>
<path d="M31.95 30.0422L30.7724 26.3572L22.2812 32.5717L31.95 30.0422Z" fill="#005128"/>
</svg>
