<svg width="210" height="88" viewBox="0 0 210 88" fill="none" xmlns="http://www.w3.org/2000/svg">
<mask id="mask0_8106_58437" style="mask-type:luminance" maskUnits="userSpaceOnUse" x="149" y="26" width="33" height="37">
<path d="M181.259 26.1333H149.19V62.4H181.259V26.1333Z" fill="white"/>
</mask>
<g mask="url(#mask0_8106_58437)">
<path d="M171.824 42.6222C172.578 42.4669 179.244 39.409 179.839 39.0651C181.198 38.2799 181.663 36.5409 180.879 35.1815C180.094 33.8215 178.357 33.3555 176.999 34.1407C176.404 34.4846 170.426 38.7351 169.915 39.3105C169.329 39.9705 169.228 40.9141 169.661 41.6648C170.095 42.4161 170.961 42.7999 171.824 42.6222Z" fill="#FFC220"/>
<path d="M179.839 49.3923C179.244 49.0489 172.578 45.9904 171.824 45.8357C170.961 45.6574 170.095 46.0412 169.661 46.7925C169.228 47.5439 169.329 48.488 169.915 49.1469C170.426 49.7223 176.404 53.9733 176.999 54.3167C178.357 55.1024 180.095 54.6358 180.879 53.2764C181.663 51.9164 181.197 50.1774 179.839 49.3923Z" fill="#FFC220"/>
<path d="M165.226 49.3569C164.359 49.3569 163.593 49.9166 163.315 50.7538C163.073 51.4852 162.385 58.7929 162.385 59.4808C162.385 61.0505 163.657 62.3241 165.226 62.3241C166.795 62.3241 168.066 61.0511 168.066 59.4808C168.066 58.7929 167.378 51.4846 167.135 50.7538C166.858 49.916 166.092 49.3569 165.226 49.3569Z" fill="#FFC220"/>
<path d="M158.626 45.8357C157.873 45.9904 151.206 49.0483 150.611 49.3922C149.252 50.178 148.788 51.917 149.572 53.2764C150.356 54.6364 152.093 55.1024 153.452 54.3166C154.046 53.9727 160.025 49.7223 160.536 49.1468C161.122 48.4868 161.223 47.5438 160.789 46.7925C160.356 46.0418 159.489 45.6574 158.626 45.8357Z" fill="#FFC220"/>
<path d="M153.451 34.1407C152.093 33.3555 150.355 33.8215 149.572 35.1815C148.787 36.5415 149.253 38.2805 150.611 39.0651C151.206 39.409 157.872 42.4669 158.625 42.6222C159.489 42.7999 160.356 42.4167 160.789 41.6648C161.222 40.9141 161.121 39.9699 160.536 39.3105C160.024 38.7351 154.046 34.4846 153.451 34.1407Z" fill="#FFC220"/>
<path d="M165.226 26.1333C163.657 26.1333 162.385 27.406 162.385 28.9767C162.385 29.6643 163.073 36.9728 163.315 37.7042C163.593 38.5419 164.359 39.1011 165.226 39.1011C166.092 39.1011 166.858 38.5413 167.135 37.7042C167.378 36.9728 168.066 29.6649 168.066 28.9767C168.066 27.4066 166.795 26.1333 165.226 26.1333Z" fill="#FFC220"/>
</g>
<mask id="mask1_8106_58437" style="mask-type:luminance" maskUnits="userSpaceOnUse" x="28" y="33" width="111" height="22">
<path d="M138.3 33.9912H28.1772V54.5423H138.3V33.9912Z" fill="white"/>
</mask>
<g mask="url(#mask1_8106_58437)">
<path d="M49.8415 33.9912L47.1935 47.1469L44.2225 33.9912H39.0627L36.0916 47.1469L33.4453 33.9912H28.1772L32.473 54.0872H38.6035L41.6024 40.7441L44.6013 54.0872H50.5973L54.8653 33.9912H49.8415Z" fill="#0053E2"/>
<path d="M60.6057 51.3008C59.4167 51.3008 58.7693 50.5773 58.7693 49.5866C58.7693 48.3004 59.7955 47.7914 61.0922 47.3357C61.768 47.0836 62.4451 46.8219 62.9025 46.4254V48.6485C62.9025 50.3367 62.0107 51.3008 60.6069 51.3008M61.3088 37.6899C58.0396 37.6899 55.7439 38.7894 54.9062 39.5649V43.8523C55.8782 42.9951 57.9312 41.7361 60.6335 41.7361C62.3071 41.7361 62.9285 42.1918 62.9285 43.1299C62.9285 43.9332 62.0645 44.2554 59.6593 44.7644C56.0132 45.5145 53.906 46.8285 53.906 49.9626C53.906 52.8561 55.8244 54.5443 58.6065 54.5443C60.9366 54.5443 62.3289 53.472 63.0913 52.031V54.0885H68.1146V44.2276C68.1146 39.6997 65.7373 37.6899 61.3069 37.6899" fill="#0053E2"/>
<path d="M75.2095 33.9912H69.9956V54.0872H75.2095V33.9912Z" fill="#0053E2"/>
<path d="M96.1331 37.7437C93.6033 37.7437 91.9684 39.2511 91.114 41.2597C90.6553 39.1079 89.1318 37.7437 87.0019 37.7437C84.5901 37.7437 83.0181 39.1387 82.2212 41.0983V38.1988H77.089V54.0884H82.3029V45.2738C82.3029 43.1039 83.0326 41.8714 84.5986 41.8714C85.8674 41.8714 86.3006 42.7285 86.3006 44.0686V54.0902H91.5146V45.275C91.5146 43.1057 92.2437 41.8726 93.8096 41.8726C95.079 41.8726 95.5117 42.7297 95.5117 44.0698V54.0921H100.726V43.3432C100.726 39.994 99.1318 37.7437 96.1331 37.7437Z" fill="#0053E2"/>
<path d="M108.559 51.3008C107.37 51.3008 106.722 50.5773 106.722 49.5866C106.722 48.3004 107.749 47.7914 109.046 47.3357C109.722 47.0836 110.399 46.8219 110.856 46.4254V48.6485C110.856 50.3367 109.964 51.3008 108.559 51.3008ZM109.261 37.6899C105.991 37.6899 103.696 38.7894 102.858 39.5649V43.8523C103.83 42.9951 105.883 41.7361 108.585 41.7361C110.259 41.7361 110.88 42.1918 110.88 43.1299C110.88 43.9332 110.016 44.2554 107.611 44.7644C103.965 45.5145 101.857 46.8285 101.857 49.9626C101.857 52.8561 103.776 54.5443 106.558 54.5443C108.888 54.5443 110.281 53.472 111.043 52.031V54.0885H116.066V44.2276C116.066 39.6997 113.689 37.6899 109.259 37.6899" fill="#0053E2"/>
<path d="M122.957 42.6875V38.1989H117.851V54.0886H123.065V47.3357C123.065 44.2277 125.01 43.3966 126.874 43.3966C127.495 43.3966 128.089 43.4763 128.359 43.5579V38.0913C125.426 37.9517 123.644 39.8092 122.957 42.6875Z" fill="#0053E2"/>
<path d="M138.3 42.2177V38.1988H134.979V35.1167H129.765V48.7814C129.765 52.6136 131.951 54.4088 135.437 54.4088C137.059 54.4088 137.923 54.0866 138.3 53.846V49.8531C138.003 50.0682 137.516 50.229 136.895 50.229C135.734 50.255 134.977 49.7461 134.977 48.0597V42.2177H138.299H138.3Z" fill="#0053E2"/>
</g>
</svg>
