<svg width="227" height="34" viewBox="0 0 227 34" fill="none" xmlns="http://www.w3.org/2000/svg">
  <rect width="35.242" height="34" rx="7.55556" fill="#1F5DE2" />
  <path
    d="M10.7683 24.5564V9.44531H18.0535C19.5105 9.44531 20.7627 9.66838 21.8099 10.1145C22.8723 10.5607 23.6919 11.2083 24.2686 12.0574C24.8454 12.8921 25.1338 13.8851 25.1338 15.0364C25.1338 16.1734 24.8454 17.1592 24.2686 17.9939C23.6919 18.8142 22.8723 19.4474 21.8099 19.8936C20.7627 20.3253 19.5105 20.5412 18.0535 20.5412H13.2726L15.276 18.7494V24.5564H10.7683ZM20.6261 24.5564L16.6647 19.0517H21.4684L25.4525 24.5564H20.6261ZM15.276 19.2028L13.2726 17.2383H17.7803C18.7213 17.2383 19.4194 17.044 19.8748 16.6555C20.3453 16.2669 20.5805 15.7272 20.5805 15.0364C20.5805 14.3312 20.3453 13.7844 19.8748 13.3958C19.4194 13.0072 18.7213 12.8129 17.7803 12.8129H13.2726L15.276 10.8485V19.2028Z"
    fill="white" />
  <path
    d="M46.6438 25.5795V8.125H53.0927C54.4943 8.125 55.6575 8.35795 56.5821 8.82386C57.5126 9.28977 58.2076 9.93466 58.667 10.7585C59.1263 11.5767 59.356 12.5227 59.356 13.5966C59.356 14.6648 59.1234 15.6051 58.6581 16.4176C58.1987 17.2244 57.5038 17.8523 56.5733 18.3011C55.6487 18.75 54.4855 18.9744 53.0838 18.9744H48.1986V16.7074H52.8365C53.7199 16.7074 54.4384 16.5852 54.992 16.3409C55.5515 16.0966 55.9608 15.7415 56.2199 15.2756C56.4791 14.8097 56.6086 14.25 56.6086 13.5966C56.6086 12.9375 56.4761 12.3665 56.2111 11.8835C55.952 11.4006 55.5426 11.0312 54.9832 10.7756C54.4296 10.5142 53.7022 10.3835 52.8011 10.3835H49.3735V25.5795H46.6438ZM55.575 17.7045L60.0451 25.5795H56.9355L52.5538 17.7045H55.575Z"
    fill="black" />
  <path
    d="M68.1437 25.8438C66.8068 25.8438 65.6554 25.5682 64.6896 25.017C63.7296 24.4602 62.9875 23.679 62.4634 22.6733C61.9451 21.6619 61.686 20.4773 61.686 19.1193C61.686 17.7784 61.9451 16.5966 62.4634 15.5739C62.9875 14.5511 63.7178 13.7528 64.6542 13.179C65.5965 12.6051 66.6979 12.3182 67.9582 12.3182C68.7238 12.3182 69.4659 12.4403 70.1844 12.6847C70.9029 12.929 71.5478 13.3125 72.119 13.8352C72.6903 14.358 73.1408 15.0369 73.4706 15.8722C73.8004 16.7017 73.9653 17.7102 73.9653 18.8977V19.8011H63.179V17.892H71.377C71.377 17.2216 71.2356 16.6278 70.9529 16.1108C70.6702 15.5881 70.2727 15.1761 69.7603 14.875C69.2538 14.5739 68.659 14.4233 67.9758 14.4233C67.2338 14.4233 66.586 14.5994 66.0324 14.9517C65.4846 15.2983 65.0606 15.7528 64.7603 16.3153C64.4658 16.8722 64.3185 17.4773 64.3185 18.1307V19.6222C64.3185 20.4972 64.4776 21.2415 64.7956 21.8551C65.1195 22.4688 65.57 22.9375 66.1472 23.2614C66.7244 23.5795 67.3987 23.7386 68.1702 23.7386C68.6708 23.7386 69.1272 23.6705 69.5395 23.5341C69.9517 23.392 70.308 23.1818 70.6084 22.9034C70.9088 22.625 71.1384 22.2813 71.2975 21.8722L73.7975 22.3068C73.5973 23.017 73.238 23.6392 72.7197 24.1733C72.2074 24.7017 71.5625 25.1136 70.7851 25.4091C70.0136 25.6989 69.1331 25.8438 68.1437 25.8438Z"
    fill="black" />
  <path
    d="M87.064 15.6847L84.67 16.0938C84.5699 15.7983 84.4109 15.517 84.193 15.25C83.981 14.983 83.6924 14.7642 83.3272 14.5938C82.9621 14.4233 82.5057 14.3381 81.958 14.3381C81.21 14.3381 80.5857 14.5 80.0851 14.8239C79.5845 15.142 79.3342 15.554 79.3342 16.0597C79.3342 16.4972 79.5021 16.8494 79.8378 17.1165C80.1735 17.3835 80.7153 17.6023 81.4632 17.7727L83.6188 18.25C84.8673 18.5284 85.7978 18.9574 86.4103 19.5369C87.0228 20.1165 87.3291 20.8693 87.3291 21.7955C87.3291 22.5795 87.0935 23.2784 86.6223 23.892C86.1571 24.5 85.5063 24.9773 84.67 25.3239C83.8396 25.6705 82.8767 25.8438 81.7813 25.8438C80.2618 25.8438 79.0221 25.5312 78.0621 24.9062C77.1022 24.2756 76.5132 23.3807 76.2953 22.2216L78.8484 21.8466C79.0074 22.4886 79.3342 22.9744 79.8289 23.304C80.3237 23.6278 80.9685 23.7898 81.7636 23.7898C82.6293 23.7898 83.3213 23.6165 83.8396 23.2699C84.3579 22.9176 84.617 22.4886 84.617 21.983C84.617 21.5739 84.458 21.2301 84.14 20.9517C83.8278 20.6733 83.3478 20.4631 82.7 20.321L80.4032 19.8352C79.1369 19.5568 78.2005 19.1136 77.5939 18.5057C76.9932 17.8977 76.6929 17.1278 76.6929 16.196C76.6929 15.4233 76.9167 14.7472 77.3642 14.1676C77.8118 13.5881 78.4302 13.1364 79.2194 12.8125C80.0086 12.483 80.9126 12.3182 81.9315 12.3182C83.3979 12.3182 84.5522 12.625 85.3944 13.2386C86.2366 13.8466 86.7931 14.6619 87.064 15.6847Z"
    fill="black" />
  <path
    d="M98.8288 20.1506V12.4886H101.479V25.5795H98.8818V23.3125H98.7405C98.4283 24.0114 97.9277 24.5938 97.2387 25.0597C96.5555 25.5199 95.7045 25.75 94.6856 25.75C93.814 25.75 93.0425 25.5653 92.3711 25.196C91.7056 24.821 91.1814 24.267 90.7986 23.5341C90.4217 22.8011 90.2333 21.8949 90.2333 20.8153V12.4886H92.8746V20.5085C92.8746 21.4006 93.1308 22.1108 93.6432 22.6392C94.1556 23.1676 94.8211 23.4318 95.6397 23.4318C96.1344 23.4318 96.6262 23.3125 97.115 23.0739C97.6097 22.8352 98.019 22.4744 98.3429 21.9915C98.6727 21.5085 98.8347 20.8949 98.8288 20.1506Z"
    fill="black" />
  <path
    d="M105.028 25.5795V12.4886H107.563V14.6193H107.731C108.014 13.8977 108.476 13.3352 109.118 12.9318C109.76 12.5227 110.529 12.3182 111.424 12.3182C112.331 12.3182 113.091 12.5227 113.703 12.9318C114.322 13.3409 114.778 13.9034 115.072 14.6193H115.214C115.538 13.9205 116.053 13.3636 116.76 12.9489C117.466 12.5284 118.309 12.3182 119.286 12.3182C120.517 12.3182 121.521 12.6903 122.299 13.4347C123.082 14.179 123.474 15.3011 123.474 16.8011V25.5795H120.832V17.0398C120.832 16.1534 120.582 15.5114 120.081 15.1136C119.581 14.7159 118.983 14.517 118.288 14.517C117.428 14.517 116.76 14.7727 116.283 15.2841C115.806 15.7898 115.567 16.4403 115.567 17.2358V25.5795H112.935V16.8778C112.935 16.1676 112.705 15.5966 112.246 15.1648C111.786 14.733 111.188 14.517 110.452 14.517C109.952 14.517 109.489 14.6449 109.065 14.9006C108.647 15.1506 108.308 15.5 108.049 15.9489C107.796 16.3977 107.669 16.9176 107.669 17.5085V25.5795H105.028Z"
    fill="black" />
  <path
    d="M132.862 25.8438C131.525 25.8438 130.374 25.5682 129.408 25.017C128.448 24.4602 127.706 23.679 127.182 22.6733C126.663 21.6619 126.404 20.4773 126.404 19.1193C126.404 17.7784 126.663 16.5966 127.182 15.5739C127.706 14.5511 128.436 13.7528 129.373 13.179C130.315 12.6051 131.416 12.3182 132.677 12.3182C133.442 12.3182 134.184 12.4403 134.903 12.6847C135.621 12.929 136.266 13.3125 136.837 13.8352C137.409 14.358 137.859 15.0369 138.189 15.8722C138.519 16.7017 138.684 17.7102 138.684 18.8977V19.8011H127.897V17.892H136.095C136.095 17.2216 135.954 16.6278 135.671 16.1108C135.389 15.5881 134.991 15.1761 134.479 14.875C133.972 14.5739 133.377 14.4233 132.694 14.4233C131.952 14.4233 131.304 14.5994 130.751 14.9517C130.203 15.2983 129.779 15.7528 129.479 16.3153C129.184 16.8722 129.037 17.4773 129.037 18.1307V19.6222C129.037 20.4972 129.196 21.2415 129.514 21.8551C129.838 22.4688 130.288 22.9375 130.866 23.2614C131.443 23.5795 132.117 23.7386 132.889 23.7386C133.389 23.7386 133.846 23.6705 134.258 23.5341C134.67 23.392 135.026 23.1818 135.327 22.9034C135.627 22.625 135.857 22.2813 136.016 21.8722L138.516 22.3068C138.316 23.017 137.956 23.6392 137.438 24.1733C136.926 24.7017 136.281 25.1136 135.503 25.4091C134.732 25.6989 133.851 25.8438 132.862 25.8438Z"
    fill="black" />
  <path d="M141.826 25.5795V8.125H144.556V23.3125H152.754V25.5795H141.826Z" fill="black" />
  <path
    d="M161.504 25.8438C160.167 25.8438 159.016 25.5682 158.05 25.017C157.09 24.4602 156.348 23.679 155.824 22.6733C155.306 21.6619 155.047 20.4773 155.047 19.1193C155.047 17.7784 155.306 16.5966 155.824 15.5739C156.348 14.5511 157.078 13.7528 158.015 13.179C158.957 12.6051 160.058 12.3182 161.319 12.3182C162.084 12.3182 162.826 12.4403 163.545 12.6847C164.263 12.929 164.908 13.3125 165.48 13.8352C166.051 14.358 166.501 15.0369 166.831 15.8722C167.161 16.7017 167.326 17.7102 167.326 18.8977V19.8011H156.54V17.892H164.738C164.738 17.2216 164.596 16.6278 164.313 16.1108C164.031 15.5881 163.633 15.1761 163.121 14.875C162.614 14.5739 162.02 14.4233 161.336 14.4233C160.594 14.4233 159.947 14.5994 159.393 14.9517C158.845 15.2983 158.421 15.7528 158.121 16.3153C157.826 16.8722 157.679 17.4773 157.679 18.1307V19.6222C157.679 20.4972 157.838 21.2415 158.156 21.8551C158.48 22.4688 158.931 22.9375 159.508 23.2614C160.085 23.5795 160.759 23.7386 161.531 23.7386C162.031 23.7386 162.488 23.6705 162.9 23.5341C163.312 23.392 163.669 23.1818 163.969 22.9034C164.269 22.625 164.499 22.2813 164.658 21.8722L167.158 22.3068C166.958 23.017 166.599 23.6392 166.08 24.1733C165.568 24.7017 164.923 25.1136 164.146 25.4091C163.374 25.6989 162.494 25.8438 161.504 25.8438Z"
    fill="black" />
  <path
    d="M174.205 25.8693C173.346 25.8693 172.568 25.7159 171.873 25.4091C171.178 25.0966 170.628 24.6449 170.221 24.054C169.821 23.4631 169.621 22.7386 169.621 21.8807C169.621 21.142 169.768 20.5341 170.062 20.0568C170.357 19.5795 170.754 19.2017 171.255 18.9233C171.755 18.6449 172.315 18.4347 172.933 18.2926C173.552 18.1506 174.182 18.0426 174.824 17.9688C175.637 17.8778 176.296 17.804 176.803 17.7472C177.309 17.6847 177.677 17.5852 177.907 17.4489C178.137 17.3125 178.251 17.0909 178.251 16.7841V16.7244C178.251 15.9801 178.034 15.4034 177.598 14.9943C177.168 14.5852 176.526 14.3807 175.672 14.3807C174.783 14.3807 174.082 14.571 173.569 14.9517C173.063 15.3267 172.712 15.7443 172.518 16.2045L170.036 15.6591C170.33 14.8636 170.76 14.2216 171.326 13.733C171.897 13.2386 172.553 12.8807 173.296 12.6591C174.038 12.4318 174.818 12.3182 175.637 12.3182C176.178 12.3182 176.753 12.3807 177.359 12.5057C177.972 12.625 178.543 12.8466 179.073 13.1705C179.609 13.4943 180.048 13.9574 180.389 14.5597C180.731 15.1563 180.902 15.9318 180.902 16.8864V25.5795H178.322V23.7898H178.216C178.045 24.1193 177.789 24.4432 177.448 24.7614C177.106 25.0795 176.667 25.3438 176.131 25.554C175.595 25.7642 174.953 25.8693 174.205 25.8693ZM174.78 23.8239C175.51 23.8239 176.134 23.6847 176.652 23.4063C177.177 23.1278 177.574 22.7642 177.845 22.3153C178.122 21.8608 178.26 21.375 178.26 20.858V19.1705C178.166 19.2614 177.983 19.3466 177.713 19.4261C177.448 19.5 177.144 19.5653 176.803 19.6222C176.461 19.6733 176.128 19.7216 175.804 19.767C175.48 19.8068 175.21 19.8409 174.992 19.8693C174.479 19.9318 174.011 20.0369 173.587 20.1847C173.169 20.3324 172.833 20.5455 172.58 20.8239C172.333 21.0966 172.209 21.4602 172.209 21.9148C172.209 22.5455 172.45 23.0227 172.933 23.3466C173.416 23.6648 174.032 23.8239 174.78 23.8239Z"
    fill="black" />
  <path
    d="M189.499 25.8352C188.404 25.8352 187.426 25.5653 186.566 25.0256C185.713 24.4801 185.041 23.7045 184.552 22.6989C184.069 21.6875 183.828 20.4744 183.828 19.0597C183.828 17.6449 184.072 16.4347 184.561 15.429C185.056 14.4233 185.733 13.6534 186.593 13.1193C187.453 12.5852 188.428 12.3182 189.517 12.3182C190.359 12.3182 191.037 12.4545 191.549 12.7273C192.067 12.9943 192.468 13.3068 192.75 13.6648C193.039 14.0227 193.263 14.3381 193.422 14.6108H193.581V8.125H196.222V25.5795H193.643V23.5426H193.422C193.263 23.821 193.033 24.1392 192.733 24.4972C192.438 24.8551 192.032 25.1676 191.514 25.4347C190.995 25.7017 190.324 25.8352 189.499 25.8352ZM190.082 23.6619C190.842 23.6619 191.484 23.4688 192.008 23.0824C192.538 22.6903 192.939 22.1477 193.21 21.4545C193.487 20.7614 193.625 19.9545 193.625 19.0341C193.625 18.125 193.489 17.3295 193.219 16.6477C192.948 15.9659 192.55 15.4347 192.026 15.054C191.502 14.6733 190.854 14.483 190.082 14.483C189.287 14.483 188.625 14.6818 188.095 15.0795C187.565 15.4773 187.164 16.0199 186.893 16.7074C186.628 17.3949 186.496 18.1705 186.496 19.0341C186.496 19.9091 186.631 20.696 186.902 21.3949C187.173 22.0938 187.574 22.6477 188.104 23.0568C188.64 23.4602 189.299 23.6619 190.082 23.6619Z"
    fill="black" />
  <path
    d="M205.84 25.8438C204.503 25.8438 203.352 25.5682 202.386 25.017C201.426 24.4602 200.684 23.679 200.16 22.6733C199.642 21.6619 199.382 20.4773 199.382 19.1193C199.382 17.7784 199.642 16.5966 200.16 15.5739C200.684 14.5511 201.414 13.7528 202.351 13.179C203.293 12.6051 204.394 12.3182 205.655 12.3182C206.42 12.3182 207.162 12.4403 207.881 12.6847C208.599 12.929 209.244 13.3125 209.816 13.8352C210.387 14.358 210.837 15.0369 211.167 15.8722C211.497 16.7017 211.662 17.7102 211.662 18.8977V19.8011H200.875V17.892H209.073C209.073 17.2216 208.932 16.6278 208.649 16.1108C208.367 15.5881 207.969 15.1761 207.457 14.875C206.95 14.5739 206.356 14.4233 205.672 14.4233C204.93 14.4233 204.282 14.5994 203.729 14.9517C203.181 15.2983 202.757 15.7528 202.457 16.3153C202.162 16.8722 202.015 17.4773 202.015 18.1307V19.6222C202.015 20.4972 202.174 21.2415 202.492 21.8551C202.816 22.4688 203.267 22.9375 203.844 23.2614C204.421 23.5795 205.095 23.7386 205.867 23.7386C206.367 23.7386 206.824 23.6705 207.236 23.5341C207.648 23.392 208.005 23.1818 208.305 22.9034C208.605 22.625 208.835 22.2813 208.994 21.8722L211.494 22.3068C211.294 23.017 210.935 23.6392 210.416 24.1733C209.904 24.7017 209.259 25.1136 208.482 25.4091C207.71 25.6989 206.83 25.8438 205.84 25.8438Z"
    fill="black" />
  <path
    d="M214.593 25.5795V12.4886H217.146V14.5682H217.287C217.534 13.8636 217.97 13.3097 218.594 12.9062C219.225 12.4972 219.937 12.2926 220.732 12.2926C220.897 12.2926 221.091 12.2983 221.315 12.3097C221.545 12.321 221.725 12.3352 221.854 12.3523V14.7898C221.748 14.7614 221.56 14.7301 221.289 14.696C221.018 14.6562 220.747 14.6364 220.476 14.6364C219.852 14.6364 219.295 14.7642 218.806 15.0199C218.323 15.2699 217.941 15.6193 217.658 16.0682C217.375 16.5114 217.234 17.017 217.234 17.5852V25.5795H214.593Z"
    fill="black" />
</svg>